<svg width="948" height="3078" viewBox="0 0 948 3078" fill="none" xmlns="http://www.w3.org/2000/svg">
<path d="M153.578 100.176C174.099 114.213 214.533 116.425 206.98 153.578C247.108 159.529 248.558 113.069 245.125 84.918C213.312 90.6396 214.99 46.2394 214.609 23.8867C195.079 28.7692 188.442 10.5361 176.464 1H84.9175C77.67 43.6456 126.571 81.6375 153.578 100.176Z" stroke="#D7E3D7" stroke-width="0.3"/>
<path d="M153.578 100.176C137.176 100.939 141.296 109.864 130.691 115.434C153.883 128.479 161.207 155.028 153.578 184.094C150.527 195.766 125.961 208.811 138.32 229.867C178.525 220.941 218.653 205.073 237.496 168.836C254.509 179.288 270.606 213.236 275.641 237.496C300.511 240.853 312.107 205.607 313.785 184.094C314.395 176.541 313.327 168.836 313.785 161.207C296.849 158.766 271.063 168.76 260.383 153.578C302.952 148.314 341.631 125.504 351.93 84.918C335.756 76.755 281.286 94.3015 298.527 69.6602C295.934 59.2086 298.985 48.1466 290.898 39.1445C281.82 42.1961 282.659 59.4374 268.012 54.4023C261.069 26.7857 298.146 25.3362 298.527 1H176.465C188.442 10.5361 195.079 28.7692 214.609 23.8867C214.991 46.2394 213.312 90.6396 245.125 84.918C248.558 113.069 247.109 159.529 206.98 153.578C214.533 116.425 174.1 114.213 153.578 100.176Z" stroke="#A9A06B" stroke-width="0.3"/>
<path d="M290.899 39.1445C308.979 33.1177 335.604 14.3506 359.559 23.8867C358.033 16.563 360.78 8.40004 359.559 1H298.528C298.146 25.3362 261.07 26.7857 268.012 54.4023C282.66 59.4374 281.821 42.1961 290.899 39.1445Z" stroke="#CED1BC" stroke-width="0.3"/>
<path d="M359.559 23.8867C368.409 66.5323 403.807 67.5241 382.446 107.805C381.988 115.357 382.446 123.139 382.446 130.691C394.194 153.731 397.704 177.228 397.704 214.609C397.704 221.781 396.559 230.401 397.704 237.496C402.739 247.261 441.417 277.319 458.735 283.27C420.133 242.913 455.378 178.525 443.477 130.691C431.576 82.8582 365.662 64.5488 382.446 1H359.559C360.78 8.40004 358.033 16.563 359.559 23.8867Z" stroke="#A5A258" stroke-width="0.3"/>
<path d="M458.735 283.27C460.642 285.253 465.754 288.991 466.364 290.898C472.009 284.032 470.789 268.241 489.251 275.641C489.251 283.27 489.251 290.898 489.251 298.527C499.092 301.731 511.222 297.612 519.766 306.156C531.744 263.434 551.121 245.659 535.634 198.741C520.071 151.823 509.696 128.326 504.508 77.2891C491.081 110.78 477.502 57.6828 504.508 62.0312C511.069 110.246 565.234 115.51 580.797 153.578C585.375 112.687 606.278 101.32 618.942 69.6602C668.454 69.5076 723.153 121.918 725.747 184.094C742.607 186.306 742.988 160.673 763.891 168.836C764.273 153.578 763.586 138.32 763.891 123.062C702.478 161.512 666.928 38.6868 641.829 1H382.446C365.662 64.5488 431.576 82.8582 443.477 130.691C455.378 178.525 420.133 242.913 458.735 283.27Z" stroke="#788055" stroke-width="0.3"/>
<path d="M763.891 168.836C763.738 176.465 763.891 184.094 763.891 191.723C763.891 201.717 762.899 212.321 763.891 222.238C766.866 230.096 791.507 239.098 794.406 222.238C817.827 250.542 825.074 300.282 863.066 298.527C850.784 325 874.815 357.575 893.582 321.414C906.78 360.321 887.86 400.984 888.165 430.507C888.547 459.955 889.081 532.124 939.355 512.137C887.631 538.838 944.772 581.483 936.838 624.053C928.828 666.698 931.04 703.851 946.984 748.633V1H641.828C666.927 38.6868 702.478 161.512 763.891 123.062C763.585 138.32 764.272 153.578 763.891 168.836ZM924.098 54.4023C920.894 76.8313 908.535 106.737 878.324 100.176C889.31 72.8643 861.388 52.4951 870.695 31.5156C889.386 37.6188 892.819 65.7694 924.098 54.4023Z" stroke="#455B48" stroke-width="0.3"/>
<path d="M290.898 39.1446C298.985 48.1467 295.934 59.2087 298.527 69.6603C306.004 60.4293 344.987 51.122 359.559 46.7735C355.973 74.8479 396.94 71.7201 382.445 107.805C403.806 67.5242 368.408 66.5324 359.559 23.8868C335.604 14.3507 308.979 33.1178 290.898 39.1446Z" stroke="#C9C270" stroke-width="0.3"/>
<path d="M924.097 54.4023C892.818 65.7694 889.385 37.6188 870.695 31.5156C861.387 52.4951 889.309 72.8643 878.324 100.176C908.534 106.737 920.893 76.8313 924.097 54.4023Z" stroke="#5A7249" stroke-width="0.3"/>
<path d="M489.25 298.527C491.31 308.139 492.683 335.222 489.25 344.3C535.634 318.82 562.717 262.9 565.539 222.238C584.688 228.341 605.133 232.003 626.57 229.867C636.107 260.916 612.915 272.741 611.313 298.527C635.878 298.603 668.758 339.494 718.117 329.042C719.948 354.218 731.01 369.857 756.262 374.816C746.726 394.575 750.922 422.573 718.117 412.96C700.037 443.095 710.946 472.618 710.488 512.136C739.326 476.814 760.61 510.076 763.891 542.652C738.792 562.106 696.299 535.175 679.973 565.538C669.674 532.2 691.874 524.266 702.86 504.507C667.309 493.369 675.472 481.163 626.57 481.621C634.047 517.171 598.954 538.761 603.684 573.167C626.647 576.906 642.133 545.093 649.457 580.796C657.696 594.376 666.164 613.753 672.344 626.57C680.507 632.673 701.181 621.992 710.488 626.57C707.742 645.489 724.22 661.358 741.004 664.714C741.614 691.721 734.443 707.055 733.375 733.374C723.61 735.511 706.674 727.576 702.86 741.003C713.006 741.003 723.229 741.003 733.375 741.003C741.691 777.393 727.348 792.193 702.86 809.663C720.177 800.509 738.563 793.795 756.262 786.777C766.408 814.699 786.243 837.662 779.149 870.695C794.101 902.965 833.085 932.794 855.438 954.613C864.745 995.046 825.38 1022.51 786.778 1015.64C790.592 1036.01 814.928 1038.07 809.664 1061.42C753.058 1072.25 848.419 1128.09 794.406 1145.34C793.415 1180.2 834.763 1194.16 847.809 1229.25C888.471 1178.29 835.679 1124.89 832.551 1069.05C863.829 1069.66 866.652 1030.75 893.582 1023.27C891.217 990.774 889.463 979.941 885.953 946.984C885.19 939.584 885.953 931.573 885.953 924.097C885.877 897.854 880.46 893.047 855.438 885.953C881.757 852.462 804.782 832.703 840.18 794.406C778.843 837.89 770.299 696.527 840.18 702.859C822.405 636.335 763.357 627.485 779.149 550.281C791.126 572.557 833.466 562.182 794.406 580.796C807.07 584.916 812.182 600.326 824.922 603.683C827.592 581.864 822.862 562.563 817.293 542.652C833.695 549.67 872.45 513.357 840.18 512.136C835.145 501.532 814.47 493.064 824.922 473.992C787.846 493.064 804.324 434.932 779.149 451.105C803.714 391.599 769.765 345.826 712.396 304.248C655.103 262.595 697.29 199.656 763.891 191.722C763.891 184.093 763.738 176.464 763.891 168.835C742.988 160.672 742.606 186.306 725.746 184.093C723.152 121.918 668.453 69.507 618.942 69.6596C606.278 101.32 585.374 112.687 580.797 153.578C565.234 115.509 511.069 110.245 504.508 62.0307C477.502 57.6822 491.081 110.779 504.508 77.2885C509.696 128.326 520.071 151.823 535.634 198.741C551.121 245.658 531.743 263.434 519.766 306.156C511.221 297.611 499.091 301.731 489.25 298.527ZM657.086 206.98C624.282 225.594 565.921 202.479 594.376 159.528C622.832 116.577 670.513 172.497 657.086 206.98Z" stroke="#9B9C5C" stroke-width="0.3"/>
<path d="M100.176 176.465C112.916 176.465 125.58 176.465 138.32 176.465C154.036 146.102 107.347 150.222 123.062 130.692C105.516 122.758 70.1942 141.296 54.4023 130.692C60.7343 151.671 77.8231 173.643 100.176 176.465Z" stroke="#E0E097" stroke-width="0.3"/>
<path d="M397.703 214.609C397.703 177.228 394.194 153.731 382.445 130.691C382.445 168.073 385.955 191.57 397.703 214.609Z" stroke="#CED285" stroke-width="0.3"/>
<path d="M657.086 206.981C670.513 172.498 622.832 116.578 594.376 159.529C565.92 202.48 624.281 225.596 657.086 206.981Z" stroke="#C1BB57" stroke-width="0.3"/>
<path d="M313.786 184.093C330.798 184.704 360.475 188.06 351.93 161.207C339.419 159.833 326.221 163.037 313.786 161.207C313.328 168.835 314.396 176.541 313.786 184.093Z" stroke="#D9D47E" stroke-width="0.3"/>
<path d="M153.578 184.094C114.518 194.393 85.7571 225.29 77.2891 268.012C137.176 224.222 187.222 274.801 199.352 329.043C218.271 327.212 234.139 315.769 252.754 313.785C251.61 273.047 233.224 242.836 229.867 206.98C255.729 190.883 265.952 236.199 275.641 237.496C270.606 213.236 254.509 179.288 237.496 168.836C218.653 205.073 178.525 220.941 138.32 229.867C125.961 208.811 150.527 195.766 153.578 184.094Z" stroke="#E0E29D" stroke-width="0.3"/>
<path d="M840.18 512.137C836.136 483.681 841.705 455.607 809.664 443.477C880.002 432.033 831.406 367.035 786.777 367.188C778.996 316.76 796.466 258.628 763.89 222.238C762.899 212.321 763.89 201.717 763.89 191.723C697.29 199.657 655.102 262.595 712.395 304.249C769.765 345.827 803.713 391.6 779.148 451.105C804.324 434.932 787.845 493.064 824.922 473.992C814.47 493.064 835.144 501.533 840.18 512.137Z" stroke="#6D7F4E" stroke-width="0.3"/>
<path d="M412.961 405.332C453.776 417.615 455.225 382.293 451.105 351.93C468.423 370.239 477.425 350.785 489.25 344.301C535.634 318.82 562.716 262.9 565.539 222.238C584.688 228.341 605.133 232.003 626.57 229.867C636.106 260.917 612.915 272.742 611.312 298.527C635.878 298.604 668.758 339.495 718.117 329.043C719.948 354.218 731.01 369.858 756.262 374.816C746.726 394.575 750.921 422.573 718.117 412.961C700.037 443.095 710.946 472.619 710.488 512.137C739.326 476.815 760.61 510.077 763.891 542.652C738.792 562.106 696.299 535.176 679.973 565.539C669.674 532.201 691.874 524.267 702.859 504.508C667.309 493.37 675.472 481.163 626.57 481.621C634.047 517.172 598.954 538.762 603.684 573.168C626.647 576.906 642.133 545.094 649.457 580.797C627.409 574.999 623.061 593.995 626.57 611.312C668.834 608.337 643.354 684.626 687.602 679.973C690.272 659.909 680.202 642.744 672.344 626.57C680.507 632.673 701.181 621.993 710.488 626.57C707.742 645.49 724.22 661.358 741.004 664.715C741.614 691.721 734.443 707.055 733.375 733.375C723.61 735.511 706.674 727.577 702.859 741.004C667.461 798.755 595.826 857.345 535.023 885.953C532.277 866.805 545.933 824.159 512.137 832.551C500.617 817.217 527.7 809.359 527.395 802.035C530.446 750.387 463.541 765.416 435.848 733.375C435.848 685.542 531.285 656.781 535.023 710.488C601.548 675.777 472.314 630.308 519.766 588.426C486.427 573.931 485.817 576.601 473.992 588.426C438.67 592.622 444.85 670.208 390.074 657.086C392.134 601.624 415.097 558.063 405.332 496.879C363.831 488.64 352.387 507.331 321.414 527.395C300.511 519.232 300.129 544.865 283.27 542.652C271.14 491.539 306.995 460.108 351.93 466.363C365.28 471.017 381.072 465.524 374.816 489.25C404.417 492.225 417.691 453.318 451.105 466.363C418.072 462.701 405.027 442.637 412.961 405.332ZM412.961 405.332C407.773 382.064 437.984 378.326 428.219 351.93C412.885 355.973 403.196 340.486 390.074 351.93C367.569 344.224 355.82 365.433 336.672 367.188C343.69 318.362 274.878 331.179 237.496 329.043C244.744 361.313 202.022 359.253 199.352 382.445C224.374 399.534 252.754 397.398 283.27 382.445C286.626 414.182 282.354 454.615 328.814 450.877C375.35 447.215 369.705 402.128 412.961 405.332ZM527.395 405.332C504.126 400.144 500.388 430.355 473.992 420.59C487.648 407.01 526.174 346.284 527.395 405.332ZM573.168 435.848C536.626 393.126 604.828 394.346 573.168 435.848ZM489.25 527.395C471.627 523.199 446.223 512.06 451.105 489.25C475.137 484.978 480.4 512.06 489.25 527.395ZM580.797 634.199C536.473 621.764 588.273 578.661 580.797 634.199ZM573.168 748.633C585.908 760.763 576.525 788.608 557.91 786.777C549.824 771.138 554.63 754.889 573.168 748.633Z" stroke="#D1CD78" stroke-width="0.3"/>
<path d="M840.18 512.137C872.45 513.357 833.695 549.671 817.293 542.652C822.862 562.564 827.592 581.865 824.922 603.684C844.681 620.238 877.104 629.393 885.953 657.086C872.374 668.529 847.122 646.329 847.809 672.344C867.873 682.948 840.485 731.239 878.324 741.004C846.588 767.324 878.019 804.782 908.84 809.664C870.695 851.013 914.79 877.485 908.84 924.098C901.211 924.098 893.582 924.098 885.953 924.098C885.953 931.574 885.19 939.584 885.953 946.984C892.895 974.296 924.403 980.399 946.984 992.758V748.633C931.04 703.851 928.828 666.698 936.838 624.053C944.772 581.483 887.631 538.838 939.355 512.137C889.081 532.124 888.547 459.955 888.165 430.507C887.86 400.984 906.78 360.321 893.582 321.414C874.815 357.575 850.784 325 863.066 298.527C825.074 300.282 817.827 250.542 794.406 222.238C791.507 239.098 766.866 230.096 763.891 222.238C796.466 258.628 778.996 316.76 786.777 367.188C831.406 367.035 880.003 432.033 809.664 443.477C841.705 455.607 836.136 483.681 840.18 512.137Z" stroke="#556B4C" stroke-width="0.3"/>
<path d="M390.074 329.043C417.767 332.4 481.316 337.74 466.363 290.898C465.753 288.991 460.642 285.253 458.734 283.27C441.417 277.319 402.738 247.261 397.703 237.496C411.893 256.721 387.709 275.488 367.188 268.012C369.095 293.187 341.631 300.129 351.93 329.043C364.517 330.187 377.563 327.517 390.074 329.043Z" stroke="#CDC46F" stroke-width="0.3"/>
<path d="M466.363 290.898C481.316 337.74 417.767 332.399 390.074 329.043C390.685 329.5 390.761 351.243 390.074 351.929C403.196 340.486 412.885 355.973 428.219 351.929C437.984 378.325 407.773 382.064 412.961 405.332C453.776 417.614 455.225 382.292 451.105 351.929C468.423 370.239 477.425 350.785 489.25 344.301C492.683 335.222 491.31 308.14 489.25 298.527C489.25 290.898 489.25 283.269 489.25 275.64C470.788 268.24 472.009 284.032 466.363 290.898Z" stroke="#D4D9AD" stroke-width="0.3"/>
<path d="M527.395 405.333C526.174 346.285 487.648 407.011 473.992 420.591C500.388 430.356 504.126 400.145 527.395 405.333Z" stroke="#D9DDC1" stroke-width="0.3"/>
<path d="M573.167 435.847C604.827 394.346 536.625 393.125 573.167 435.847Z" stroke="#D9E3C4" stroke-width="0.3"/>
<path d="M306.156 542.651C307.301 536.853 317.6 529.911 321.414 527.394C300.511 519.231 300.13 544.864 283.27 542.651C271.14 491.538 306.996 460.107 351.93 466.362C301.121 436.457 256.645 498.404 275.641 550.28C287.466 552.188 296.544 548.144 306.156 542.651Z" stroke="#D8DEB4" stroke-width="0.3"/>
<path d="M489.251 527.395C480.401 512.061 475.137 484.978 451.106 489.25C446.224 512.061 471.628 523.199 489.251 527.395Z" stroke="#D4DABF" stroke-width="0.3"/>
<path d="M885.953 924.098C893.581 924.098 901.21 924.098 908.839 924.098C914.79 877.485 870.695 851.013 908.839 809.664C878.018 804.782 846.587 767.324 878.324 741.004C840.484 731.239 867.872 682.948 847.808 672.344C847.121 646.329 872.373 668.529 885.953 657.086C877.103 629.393 844.68 620.238 824.921 603.684C812.181 600.327 807.07 584.916 794.406 580.797C833.466 562.182 791.125 572.558 779.148 550.281C763.356 627.486 822.404 636.335 840.179 702.859C770.298 696.527 778.843 837.891 840.179 794.406C804.781 832.703 881.757 852.462 855.437 885.953C880.46 893.048 885.876 897.854 885.953 924.098Z" stroke="#778251" stroke-width="0.3"/>
<path d="M473.992 588.426C504.126 583.162 513.281 676.845 481.621 679.973C449.961 683.101 398.008 690.806 412.961 741.005C434.322 749.32 443.019 757.483 458.734 763.891C486.809 775.335 509.009 783.879 527.395 802.036C530.446 750.388 463.541 765.417 435.848 733.376C435.848 685.542 531.285 656.781 535.024 710.489C601.548 675.777 472.314 630.309 519.766 588.426C486.427 573.931 485.817 576.602 473.992 588.426Z" stroke="#DDE5C4" stroke-width="0.3"/>
<path d="M672.344 626.57C666.164 613.753 657.696 594.376 649.457 580.796C627.409 574.998 623.061 593.994 626.57 611.312C668.834 608.337 643.354 684.626 687.602 679.972C690.272 659.908 680.202 642.743 672.344 626.57Z" stroke="#CED5A9" stroke-width="0.3"/>
<path d="M580.796 634.2C588.273 578.662 536.472 621.765 580.796 634.2Z" stroke="#D6DFC3" stroke-width="0.3"/>
<path d="M527.395 802.035C509.009 783.878 486.809 775.334 458.734 763.891C481.774 809.283 508.093 899.227 458.734 924.098C477.273 942.254 486.122 942.331 481.621 985.129C477.12 1027.93 489.555 1019.08 496.879 985.129C485.741 1021.98 516.638 1037.54 542.652 1038.53C534.184 1087.05 554.325 1075.53 557.91 1099.56C581.026 1072.1 571.871 1113.22 550.281 1114.82C594.224 1116.8 536.854 1120.69 557.91 1145.34C592.088 1132.9 594.376 1179.44 626.57 1168.22C604.981 1123.67 635.572 1163.72 657.086 1175.85C644.956 1136.56 666.927 1090.1 618.941 1084.3C626.341 1111.39 595.75 1104.75 588.426 1122.45C574.312 1095.37 597.962 1104.14 611.313 1091.93C583.543 1075.53 625.197 1052.11 588.426 1046.16C608.948 1060.88 629.164 1032.58 634.199 1030.9C656.17 1023.5 706.521 1012.36 695.23 1053.79C729.332 1065.84 706.216 1011.6 741.004 1023.27C753.21 1027.32 746.497 1044.25 748.633 1053.79C767.324 1035.33 775.715 1059.36 771.52 1076.68C774.266 1052.57 783.344 980.933 824.922 985.129C846.13 961.708 811.342 959.648 794.406 962.242C813.021 930.506 806.46 882.902 756.262 893.582C758.703 906.475 746.192 918.681 733.375 916.469C719.643 945.459 720.864 985.434 672.344 977.5C672.344 952.096 672.344 926.615 672.344 901.211C688.364 900.677 700.571 878.248 702.859 863.066C679.668 864.44 669.368 896.328 641.828 885.953C643.125 865.202 637.175 842.697 649.457 824.922C680.736 846.359 673.412 805.087 702.859 809.664C727.348 792.194 741.691 777.394 733.375 741.004C723.229 741.004 713.006 741.004 702.859 741.004C667.461 798.755 595.826 857.345 535.023 885.953C532.277 866.805 545.933 824.159 512.137 832.551C500.617 817.217 527.7 809.359 527.395 802.035Z" stroke="#D6E9DE" stroke-width="0.3"/>
<path d="M573.168 748.633C554.63 754.889 549.824 771.138 557.91 786.777C576.525 788.608 585.908 760.763 573.168 748.633Z" stroke="#D9E8BF" stroke-width="0.3"/>
<path d="M702.859 809.664C673.412 805.087 680.735 846.359 649.457 824.922C637.174 842.697 643.125 865.202 641.828 885.953C669.368 896.328 679.667 864.44 702.859 863.066C700.57 878.248 688.364 900.677 672.344 901.211C672.344 926.615 672.344 952.096 672.344 977.5C720.863 985.434 719.643 945.459 733.375 916.469C743.445 895.26 772.893 891.064 779.148 870.695C786.243 837.662 766.408 814.699 756.262 786.777C738.562 793.796 720.177 800.509 702.859 809.664Z" stroke="#CFCD7A" stroke-width="0.3"/>
<path d="M733.375 916.469C746.192 918.681 758.703 906.475 756.262 893.582C806.46 882.902 813.021 930.506 794.406 962.242C811.342 959.648 846.13 961.708 824.922 985.129C783.344 980.933 774.266 1052.57 771.52 1076.68C768.926 1099.26 773.503 1122.68 771.52 1145.34C779.148 1145.34 786.777 1145.34 794.406 1145.34C848.419 1128.09 753.058 1072.25 809.664 1061.42C814.928 1038.07 790.592 1036.01 786.777 1015.64C825.38 1022.51 864.745 995.046 855.438 954.613C833.085 932.795 794.101 902.966 779.148 870.695C772.893 891.064 743.445 895.26 733.375 916.469Z" stroke="#C0C7A7" stroke-width="0.3"/>
<path d="M893.582 1023.27C894.726 1038.45 892.743 1053.87 893.582 1069.05C913.036 1054.55 919.215 1061.19 939.355 1076.68C942.026 1078.43 946.984 1076.68 946.984 1076.68V992.758C924.403 980.399 892.895 974.296 885.953 946.984C889.462 979.941 891.217 990.774 893.582 1023.27Z" stroke="#7C8653" stroke-width="0.3"/>
<path d="M634.199 1030.9C654.797 1062.79 693.4 1087.43 679.973 1137.71C766.256 1172.8 637.937 1204.08 641.828 1252.14C664.562 1249.62 690.806 1258.4 710.488 1244.51C709.268 1258.02 736.35 1295.47 741.004 1297.91C745.81 1293.34 745.047 1286.24 748.633 1282.66C745.429 1264.73 735.664 1267.02 718.117 1267.4C731.62 1222.85 686.534 1248.02 672.344 1236.88C718.499 1218.8 730.323 1157.47 702.859 1099.56C712.624 1095.52 717.049 1106.96 725.746 1107.19C723.763 1079.04 718.422 1039.68 741.004 1023.27C706.216 1011.6 729.332 1065.84 695.23 1053.79C706.521 1012.36 656.17 1023.5 634.199 1030.9Z" stroke="#B9C4A8" stroke-width="0.3"/>
<path d="M725.746 1107.19C726.204 1113.98 713.006 1121.38 718.117 1130.08C764.654 1112.84 768.315 1197.29 756.262 1214C787.922 1219.72 785.252 1259.69 809.664 1275.03C787.845 1272.36 768.544 1277.09 748.633 1282.66C745.047 1286.24 745.81 1293.34 741.004 1297.91C731.239 1307.22 710.717 1318.05 710.488 1336.06C722.847 1334.3 736.35 1338.42 748.633 1336.06C781.513 1329.73 826.982 1300.97 794.406 1366.57C850.631 1363.52 931.955 1391.22 931.727 1336.06C891.293 1344.3 836.289 1333.77 824.922 1290.29C885.648 1337.13 988.562 1179.97 885.953 1206.37C894.574 1161.2 940.576 1126.87 939.355 1076.68C919.215 1061.19 913.036 1054.55 893.582 1069.05C892.743 1053.87 894.726 1038.45 893.582 1023.27C866.652 1030.75 863.829 1069.66 832.551 1069.05C835.679 1124.89 888.471 1178.29 847.809 1229.25C834.763 1194.16 793.414 1180.2 794.406 1145.34C786.777 1145.34 779.148 1145.34 771.52 1145.34C773.503 1122.68 768.926 1099.26 771.52 1076.68C775.715 1059.36 767.324 1035.33 748.633 1053.79C746.497 1044.25 753.21 1027.32 741.004 1023.27C718.422 1039.68 723.763 1079.04 725.746 1107.19Z" stroke="#C9CB75" stroke-width="0.3"/>
<path d="M748.633 1336.06C744.437 1347.12 751.608 1362.68 748.633 1374.2C760.534 1362.38 762.594 1346.59 779.148 1343.69C769.231 1374.51 772.359 1413.19 771.52 1450.49C828.813 1435.16 801.272 1521.9 863.066 1519.15C801.501 1544.56 852.996 1637.86 817.293 1686.99C796.619 1681.11 803.103 1657.31 802.035 1641.21C797.382 1651.13 776.707 1661.43 771.52 1671.73C767.629 1679.51 769.078 1680.12 763.891 1686.99C749.167 1706.37 717.354 1728.79 695.23 1748.02C683.635 1792.65 793.109 1701.86 794.406 1748.02C795.017 1769.84 769.231 1809.28 763.891 1824.31C752.981 1835.07 744.742 1849.26 756.262 1862.45C777.47 1845.36 812.105 1854.98 809.664 1885.34C815.309 1899.99 821.107 1919.21 817.293 1938.74C724.983 1967.5 689.89 2071.49 649.457 2159.98C660.824 2157.84 675.243 2160.13 672.344 2175.24C698.511 2184.62 722.847 2162.88 748.633 2167.61C759.161 2199.19 750.082 2239.4 710.488 2221.01C712.396 2223.07 709.039 2233.14 710.488 2236.27C713.54 2238.63 743.521 2251.68 748.633 2251.53C789.447 2250.54 803.332 2156.85 863.066 2175.24C869.78 2206.59 842.239 2225.59 832.551 2251.53C852.615 2226.58 928.446 2172.72 863.066 2144.72C892.361 2113.14 871.916 2102.23 878.324 2060.8C851.776 2067.14 870.39 2145.26 847.809 2159.98C804.095 2124.43 700.037 2154.95 741.004 2060.8C781.666 2063.7 802.569 2097.8 847.809 2098.95C849.487 2073.7 823.091 2058.29 832.551 2030.29C804.248 2032.5 784.26 2008.93 779.148 1984.52C829.881 2026.25 817.903 1948.13 870.695 1954C864.363 1995.27 897.396 2016.48 885.953 2060.8C934.931 2013.43 832.474 1923.79 878.324 1885.34C844.452 1878.47 864.668 1826.52 870.695 1801.42C841.095 1804.78 839.798 1760 840.18 1732.76C861.998 1770.68 885.495 1685.31 855.438 1686.99C869.932 1636.33 918.376 1662.88 946.984 1671.73V1610.7C930.124 1605.28 920.588 1617.57 924.098 1633.59C903.347 1632.29 880.842 1638.24 863.066 1625.96C859.099 1602.46 895.337 1605.82 885.953 1580.18C870.924 1576.75 848.266 1567.21 847.809 1549.67C871.077 1544.48 874.815 1574.69 901.211 1564.93C866.271 1529.38 904.186 1508.55 946.984 1519.15V1076.68C946.984 1076.68 942.026 1078.43 939.355 1076.68C940.576 1126.87 894.574 1161.2 885.953 1206.37C988.562 1179.97 885.648 1337.13 824.922 1290.29C836.289 1333.77 891.293 1344.3 931.727 1336.06C931.955 1391.22 850.631 1363.52 794.406 1366.57C826.982 1300.97 781.513 1329.73 748.633 1336.06ZM924.098 1397.09C924.937 1439.89 896.405 1444.08 885.953 1473.38C777.623 1488.56 863.143 1361.23 924.098 1397.09Z" stroke="#929C6B" stroke-width="0.3"/>
<path d="M748.633 1282.66C768.544 1277.09 787.845 1272.36 809.664 1275.03C785.252 1259.69 787.922 1219.72 756.262 1214C768.315 1197.29 764.654 1112.84 718.117 1130.08C713.006 1121.38 726.204 1113.98 725.746 1107.19C717.049 1106.96 712.624 1095.52 702.859 1099.56C730.323 1157.47 718.499 1218.8 672.344 1236.88C686.534 1248.02 731.62 1222.85 718.117 1267.4C735.664 1267.02 745.429 1264.73 748.633 1282.66Z" stroke="#A4A673" stroke-width="0.3"/>
<path d="M733.375 1412.35C733.375 1412.35 741.004 1412.5 741.004 1412.35C717.049 1388.85 738.105 1384.58 748.633 1374.2C751.608 1362.68 744.437 1347.12 748.633 1336.06C736.35 1338.42 722.847 1334.3 710.488 1336.06C710.412 1344.22 739.936 1363.6 724.068 1380.15C708.2 1396.63 719.719 1408.91 733.375 1412.35Z" stroke="#B8C3B4" stroke-width="0.3"/>
<path d="M748.633 1374.2C738.105 1384.58 717.049 1388.85 741.004 1412.35C740.088 1437.29 740.393 1454.23 756.262 1473.38C760.915 1479.1 779.835 1487.49 786.777 1496.27C810.961 1527.09 773.503 1562.87 771.519 1603.07C799.594 1590.56 825.379 1620.54 802.035 1641.21C803.103 1657.31 796.618 1681.11 817.293 1686.99C852.996 1637.86 801.501 1544.56 863.066 1519.15C801.272 1521.9 828.812 1435.16 771.519 1450.49C772.359 1413.19 769.231 1374.51 779.148 1343.69C762.594 1346.59 760.534 1362.38 748.633 1374.2Z" stroke="#898159" stroke-width="0.3"/>
<path d="M924.097 1397.09C863.143 1361.23 777.622 1488.56 885.953 1473.38C896.405 1444.08 924.937 1439.89 924.097 1397.09Z" stroke="#B3BD6A" stroke-width="0.3"/>
<path d="M641.828 1633.59C664.944 1651.06 751.303 1636.79 710.488 1679.36C724.754 1670.05 756.033 1688.51 763.891 1686.99C769.078 1680.12 767.629 1679.51 771.519 1671.73C768.849 1668.07 752.295 1674.63 748.633 1671.73C739.631 1642.82 766.637 1662.65 771.519 1641.21C746.039 1601.01 764.272 1542.27 786.777 1496.27C779.835 1487.49 760.915 1479.1 756.262 1473.38C741.004 1473.38 725.746 1473.38 710.488 1473.38C712.167 1497.26 743.903 1523.73 710.488 1542.04C729.637 1543.56 754.812 1556.38 748.633 1580.18C728.111 1583.08 700.418 1594.14 702.859 1618.33C695.154 1586.74 669.826 1607.95 641.828 1603.07C637.937 1609.25 646.939 1628.63 641.828 1633.59Z" stroke="#D4DC9C" stroke-width="0.3"/>
<path d="M687.601 1511.52C655.56 1512.51 640.073 1485.74 603.684 1496.27C601.776 1547.61 728.111 1588.96 687.601 1511.52Z" stroke="#E3E6A8" stroke-width="0.3"/>
<path d="M771.519 1671.73C776.707 1661.43 797.381 1651.13 802.035 1641.21C825.38 1620.54 799.594 1590.56 771.519 1603.07C773.503 1562.87 810.961 1527.09 786.777 1496.27C764.272 1542.27 746.039 1601.01 771.519 1641.21C766.637 1662.65 739.631 1642.82 748.633 1671.73C752.295 1674.63 768.849 1668.07 771.519 1671.73Z" stroke="#B4B96F" stroke-width="0.3"/>
<path d="M946.984 1610.7V1519.15C904.186 1508.55 866.271 1529.37 901.211 1564.93C874.815 1574.69 871.077 1544.48 847.809 1549.67C848.266 1567.21 870.924 1576.75 885.953 1580.18C895.337 1605.82 859.099 1602.46 863.066 1625.96C880.842 1638.24 903.347 1632.29 924.098 1633.59C920.588 1617.57 930.124 1605.28 946.984 1610.7Z" stroke="#AAB767" stroke-width="0.3"/>
<path d="M885.953 2060.81C883.97 2062.71 878.324 2060.81 878.324 2060.81C871.916 2102.23 892.361 2113.14 863.066 2144.72C928.446 2172.72 852.615 2226.58 832.551 2251.53C825.99 2264.95 823.625 2275.71 817.293 2289.67C809.664 2306.61 796.619 2307.98 786.777 2327.82C814.699 2348.26 852.691 2378.85 847.809 2419.36C833.237 2416.92 821.413 2430.58 832.551 2442.25C863.829 2425.16 883.817 2398.16 908.84 2381.22C904.568 2423.86 935.465 2448.96 924.098 2495.65C931.727 2495.65 939.355 2495.65 946.984 2495.65V1671.73C918.376 1662.88 869.932 1636.33 855.438 1686.99C885.495 1685.31 861.998 1770.68 840.18 1732.76C839.798 1760 841.095 1804.78 870.695 1801.42C864.668 1826.52 844.452 1878.47 878.324 1885.34C832.474 1923.79 934.931 2013.43 885.953 2060.81Z" stroke="#6B7D65" stroke-width="0.3"/>
<path d="M573.167 1900.6C576.677 1893.81 594.91 1868.1 596.054 1862.45C585.297 1813.7 590.027 1766.1 573.167 1732.76C537.159 1764.65 488.105 1775.87 443.476 1786.16C422.344 1825.07 439.204 1846.13 443.476 1885.34C463.387 1891.82 567.598 1871.23 573.167 1900.6Z" stroke="#9FD3DF" stroke-width="0.3"/>
<path d="M695.23 1748.02C679.973 1749.77 667.08 1764.73 664.715 1778.54C691.263 1777.39 721.321 1785.02 741.004 1763.28C757.253 1771.52 746.649 1776.17 748.633 1786.16C753.592 1774.49 792.499 1753.67 794.406 1748.02C793.109 1701.87 683.635 1792.65 695.23 1748.02Z" stroke="#ABC7B4" stroke-width="0.3"/>
<path d="M748.633 1786.16C751.532 1800.58 737.037 1809.81 756.262 1824.31C758.474 1822.4 763.891 1824.31 763.891 1824.31C769.231 1809.28 795.017 1769.84 794.406 1748.02C792.499 1753.66 753.592 1774.49 748.633 1786.16Z" stroke="#C1C885" stroke-width="0.3"/>
<path d="M626.57 1892.97C625.426 1902.05 617.186 1906.32 626.57 1915.86C606.353 1909.9 590.485 1930.66 573.168 1915.86C580.339 1941.56 550.968 1936.83 542.652 1954C510.763 1973.53 482.155 1992.07 496.879 2045.55C550.052 1996.65 611.083 1904.11 702.859 1915.86C717.888 1926.31 700.876 1963.46 733.375 1954C739.02 1909.45 718.651 1877.56 672.343 1892.97C699.35 1865.58 777.088 1856.27 809.664 1885.34C812.105 1854.98 777.47 1845.36 756.261 1862.45C744.742 1849.26 752.981 1835.07 763.89 1824.31C763.89 1824.31 758.474 1822.4 756.261 1824.31C739.02 1845.44 713.311 1849.48 679.972 1847.2C677.76 1875.96 649.838 1889.46 626.57 1892.97Z" stroke="#9AA890" stroke-width="0.3"/>
<path d="M573.168 1900.6C567.37 1911.97 565.31 1913.8 557.91 1923.49C552.188 1930.96 547.23 1949.35 542.652 1954C550.968 1936.84 580.339 1941.57 573.168 1915.86C590.486 1930.66 606.354 1909.91 626.57 1915.86C617.187 1906.32 625.426 1902.05 626.57 1892.97C593.766 1904.41 635.344 1878.55 626.57 1862.45C616.805 1864.13 605.743 1860.24 596.055 1862.45C594.91 1868.1 576.677 1893.81 573.168 1900.6Z" stroke="#AAC1BB" stroke-width="0.3"/>
<path d="M542.652 1954C547.229 1949.35 552.188 1930.96 557.91 1923.48C523.961 1931.8 498.405 1921.12 466.973 1931.72C435.619 1942.4 463.159 1985.89 428.219 1969.26C450.953 2080.56 398.924 2193.39 435.847 2297.3C437.068 2300.66 435.847 2304.93 435.847 2304.93C458.124 2312.86 497.413 2307.07 527.394 2312.56C544.788 2315.76 556.079 2337.2 580.797 2327.82C566.225 2307.52 550.434 2255.49 580.797 2236.27C584.611 2256.64 608.947 2258.7 603.683 2282.04C612.914 2288.45 622.756 2290.89 634.199 2289.67C626.799 2252.29 663.647 2286.01 672.344 2259.16C672.344 2266.78 672.344 2274.41 672.344 2282.04C672.038 2285.86 672.344 2289.67 672.344 2289.67C698.358 2273.35 706.826 2298.9 733.375 2297.3C740.622 2271.44 724.602 2254.2 710.488 2236.27C709.039 2233.14 712.395 2223.07 710.488 2221.01C696.527 2206.14 678.904 2185.23 672.344 2175.24C675.243 2160.13 660.824 2157.84 649.457 2159.98C689.89 2071.48 724.983 1967.5 817.293 1938.74C821.107 1919.21 815.309 1899.99 809.664 1885.34C777.088 1856.27 699.35 1865.58 672.344 1892.97C718.651 1877.56 739.02 1909.45 733.375 1954C700.876 1963.46 717.888 1926.31 702.859 1915.86C611.083 1904.11 550.052 1996.65 496.879 2045.55C482.155 1992.07 510.763 1973.53 542.652 1954ZM687.601 1923.48C681.193 1974.45 695.993 2008.09 649.457 2022.66C655.713 2049.51 643.43 2064.39 634.199 2083.69C615.89 2071.1 593.003 2064.08 565.539 2068.43C569.582 2104.14 566.759 2119.7 535.023 2129.46C532.201 2089.41 547.992 2055.24 550.739 2022.05C553.561 1988.86 621.611 1985.74 611.312 1946.37C645.414 1934.32 622.298 1988.56 657.086 1976.89C656.628 1952.24 649.075 1912.57 687.601 1923.48Z" stroke="#99CBD2" stroke-width="0.3"/>
<path d="M687.602 1923.48C649.076 1912.57 656.629 1952.25 657.086 1976.89C622.299 1988.56 645.414 1934.32 611.313 1946.37C621.612 1985.74 553.562 1988.86 550.739 2022.05C547.993 2055.24 532.201 2089.41 535.024 2129.46C566.76 2119.7 569.583 2104.14 565.539 2068.43C593.004 2064.08 615.89 2071.1 634.2 2083.69C643.431 2064.39 655.713 2049.51 649.457 2022.66C695.994 2008.09 681.194 1974.45 687.602 1923.48Z" stroke="#90A089" stroke-width="0.3"/>
<path d="M878.325 2060.8C878.325 2060.8 883.97 2062.71 885.954 2060.8C897.397 2016.48 864.364 1995.27 870.696 1954C817.904 1948.12 829.881 2026.24 779.149 1984.51C784.26 2008.93 804.248 2032.5 832.551 2030.29C823.091 2058.29 849.487 2073.7 847.809 2098.95C802.57 2097.8 781.667 2063.7 741.004 2060.8C700.037 2154.94 804.095 2124.43 847.809 2159.98C870.391 2145.26 851.776 2067.14 878.325 2060.8Z" stroke="#A8B966" stroke-width="0.3"/>
<path d="M672.344 2175.24C678.905 2185.23 696.527 2206.14 710.488 2221.01C750.082 2239.4 759.161 2199.19 748.633 2167.61C722.847 2162.88 698.511 2184.62 672.344 2175.24Z" stroke="#A6BB72" stroke-width="0.3"/>
<path d="M748.633 2251.53C737.647 2277.31 756.872 2316.07 748.633 2343.07C766.027 2349.56 768.392 2334.3 779.148 2327.82C783.802 2302.49 804.476 2304.09 817.293 2289.67C823.625 2275.71 825.99 2264.95 832.551 2251.53C842.239 2225.59 869.78 2206.59 863.066 2175.24C803.332 2156.85 789.447 2250.54 748.633 2251.53Z" stroke="#AABE6C" stroke-width="0.3"/>
<path d="M527.395 2312.56C516.409 2312.33 429.058 2331.78 428.219 2343.07C436.763 2368.94 494.895 2354.37 489.25 2396.48C444.926 2406.85 484.291 2476.05 443.477 2495.65C440.196 2499.62 436.916 2505.88 435.848 2510.91C446.299 2533.19 498.1 2539.06 512.137 2556.68C506.644 2524.03 454.767 2474.67 519.766 2465.14C497.871 2499.01 526.403 2500.61 557.91 2510.91C590.104 2453.54 531.209 2441.41 527.395 2404.11C571.032 2402.5 586.671 2457.74 634.199 2449.88C645.414 2398.92 596.589 2393.2 588.426 2358.33C611.084 2357.72 614.822 2350.09 634.199 2343.07C636.106 2325.68 612.838 2313.25 626.57 2297.3C606.049 2291.27 614.517 2298.6 603.684 2282.04C608.948 2258.7 584.611 2256.64 580.797 2236.27C550.434 2255.49 566.226 2307.52 580.797 2327.82C556.079 2337.2 544.788 2315.76 527.395 2312.56Z" stroke="#D3DA86" stroke-width="0.3"/>
<path d="M672.344 2289.67C685.008 2294.25 709.649 2291.88 702.859 2320.19C687.525 2329.65 663.113 2328.96 672.344 2358.33C693.323 2360.39 700.418 2333.23 718.117 2327.82C697.672 2393.65 759.008 2404.56 779.149 2358.33C789.142 2390.3 777.546 2432.1 809.664 2449.88C812.182 2450.87 827.821 2444.84 832.551 2442.25C821.413 2430.58 833.237 2416.92 847.809 2419.36C852.691 2378.85 814.699 2348.26 786.777 2327.82C784.26 2325.99 779.149 2327.82 779.149 2327.82C768.392 2334.3 766.027 2349.56 748.633 2343.07C756.872 2316.07 737.647 2277.31 748.633 2251.53C743.522 2251.68 713.54 2238.63 710.488 2236.27C724.602 2254.2 740.623 2271.44 733.375 2297.3C706.827 2298.9 698.358 2273.35 672.344 2289.67Z" stroke="#99C0AE" stroke-width="0.3"/>
<path d="M603.684 2282.04C614.517 2298.6 606.049 2291.27 626.57 2297.3C636.564 2300.2 645.032 2308.9 657.086 2304.93C642.667 2291.35 654.568 2277.08 672.344 2282.04C672.344 2274.41 672.344 2266.79 672.344 2259.16C663.647 2286.01 626.799 2252.29 634.199 2289.67C622.756 2290.89 612.915 2288.45 603.684 2282.04Z" stroke="#ADCDB2" stroke-width="0.3"/>
<path d="M626.571 2297.3C612.839 2313.24 636.107 2325.68 634.2 2343.07C614.822 2350.09 611.084 2357.72 588.426 2358.33C596.589 2393.2 645.414 2398.92 634.2 2449.88C586.672 2457.74 571.033 2402.5 527.395 2404.1C531.21 2441.41 590.105 2453.54 557.911 2510.91C526.403 2500.61 497.871 2499.01 519.766 2465.14C454.768 2474.67 506.645 2524.03 512.137 2556.68C498.1 2539.06 446.3 2533.19 435.848 2510.91C431.195 2532.8 439.358 2557.45 435.848 2579.57C443.477 2580.41 456.675 2575.98 458.735 2587.2C474.985 2603.98 506.034 2639.69 535.024 2640.6C543.874 2620.31 542.882 2600.24 535.024 2579.57C579.501 2534.71 655.561 2594.22 649.458 2663.49C675.93 2671.8 681.041 2646.55 702.86 2640.6C693.019 2618.1 675.625 2585.37 641.829 2587.2C624.587 2527.69 627.029 2470.7 679.973 2434.62C734.444 2439.66 792.576 2450.87 832.551 2495.65C838.502 2470.4 828.432 2458.65 809.665 2449.88C777.547 2432.1 789.143 2390.3 779.149 2358.33C759.009 2404.56 697.672 2393.65 718.118 2327.82C700.419 2333.23 693.324 2360.39 672.344 2358.33C663.113 2328.96 687.526 2329.65 702.86 2320.19C709.65 2291.88 685.008 2294.25 672.344 2289.67C672.344 2289.67 672.039 2285.86 672.344 2282.04C654.569 2277.08 642.668 2291.35 657.087 2304.93C645.033 2308.9 636.565 2300.2 626.571 2297.3Z" stroke="#BBBE68" stroke-width="0.3"/>
<path d="M779.148 2327.82C779.148 2327.82 784.26 2325.99 786.777 2327.82C796.619 2307.98 809.664 2306.61 817.293 2289.67C804.476 2304.09 783.802 2302.49 779.148 2327.82Z" stroke="#869C68" stroke-width="0.3"/>
<path d="M23.8867 2404.11C13.0537 2402.5 4.35672 2409.52 1 2419.36C34.3383 2427.6 9.84953 2476.89 23.8867 2510.91C82.4767 2502.75 147.475 2545.55 206.98 2549.05C266.486 2552.56 350.938 2544.33 359.559 2587.2C380.157 2565.38 392.21 2584.61 412.961 2587.2C395.948 2578.96 412.503 2555.16 428.219 2564.31C434.627 2543.26 413.266 2498.93 443.477 2495.65C484.291 2476.05 444.926 2406.85 489.25 2396.48C494.895 2354.37 436.763 2368.94 428.219 2343.07C423.87 2329.95 427.837 2313.25 435.848 2304.93C435.848 2304.93 437.068 2300.66 435.848 2297.3C410.901 2295.01 387.328 2298.29 367.188 2312.56C377.868 2352.99 363.297 2376.79 359.559 2419.36C397.703 2420.13 396.33 2460.18 420.59 2488.02C394.423 2489.7 370.621 2509.16 336.672 2488.02C323.245 2515.87 315.387 2500.08 283.27 2510.91C276.175 2487.64 251.915 2480.93 229.867 2472.77C231.393 2422.03 249.855 2426.99 222.238 2381.22C202.098 2397.01 184.704 2408.38 176.465 2373.59C119.248 2374.43 68.4395 2365.05 23.8867 2404.11Z" stroke="#9EE0DD" stroke-width="0.3"/>
<path d="M428.219 2343.07C429.058 2331.78 516.409 2312.33 527.394 2312.56C497.413 2307.07 458.124 2312.86 435.847 2304.93C427.837 2313.25 423.87 2329.95 428.219 2343.07Z" stroke="#BACFA2" stroke-width="0.3"/>
<path d="M832.551 2442.25C827.821 2444.84 812.182 2450.87 809.664 2449.88C828.431 2458.65 838.501 2470.4 832.551 2495.65C792.575 2450.87 734.443 2439.66 679.973 2434.62C627.028 2470.71 624.587 2527.69 641.828 2587.2C675.624 2585.37 693.018 2618.1 702.859 2640.6C681.041 2646.55 675.929 2671.8 649.457 2663.49C655.56 2594.22 579.5 2534.71 535.023 2579.57C542.881 2600.24 543.873 2620.31 535.023 2640.6C535.023 2640.6 534.489 2644.49 535.023 2648.23C559.894 2645.1 572.939 2648.15 588.426 2663.49C586.747 2652.2 617.797 2634.57 603.684 2617.71C638.166 2618.17 649.762 2666.01 657.086 2694C693.171 2692.86 686.228 2656.85 718.117 2655.86C724.297 2681.11 744.208 2687.75 756.262 2709.26C764.12 2679.43 721.092 2679.74 733.375 2648.23C750.693 2643.73 763.128 2654.72 779.148 2655.86C772.816 2638.92 764.348 2621.45 763.891 2602.46C788.456 2591.7 783.344 2556.15 802.035 2533.8C753.058 2535.86 790.516 2506.64 786.777 2480.39C815.386 2482.07 828.965 2502.59 824.922 2541.43C853.835 2528.84 839.417 2546.61 847.809 2564.31C828.126 2548.98 809.588 2546.16 794.406 2571.94C809.893 2584.99 832.246 2574.31 847.809 2587.2C839.035 2628.62 907.314 2652.88 946.984 2655.86V2495.65C939.356 2495.65 931.727 2495.65 924.098 2495.65C935.465 2448.96 904.568 2423.86 908.84 2381.22C883.817 2398.15 863.829 2425.16 832.551 2442.25Z" stroke="#858F57" stroke-width="0.3"/>
<path d="M779.148 2655.86C784.717 2670.74 795.932 2689.81 794.406 2709.26C781.666 2709.26 769.002 2709.26 756.261 2709.26C744.208 2687.75 724.296 2681.11 718.117 2655.86C686.228 2656.85 693.17 2692.86 657.085 2694C649.762 2666.01 638.166 2618.17 603.683 2617.71C617.797 2634.57 586.747 2652.2 588.425 2663.49C593.46 2668.45 598.724 2673.48 603.683 2678.75C617.873 2693.62 629.087 2720.78 611.312 2747.41C628.401 2757.25 659.603 2765.79 664.714 2793.18C692.56 2768.69 735.129 2788.98 763.89 2808.44C750.311 2817.44 736.121 2824.61 725.746 2838.95C756.719 2836.59 709.649 2855.97 741.003 2854.21C748.48 2855.43 764.272 2856.27 771.519 2854.21C778.995 2852.07 788.608 2840.02 809.664 2838.95C822.328 2838.34 835.144 2838.95 847.808 2838.95C806.536 2800.66 768.086 2711.93 687.601 2724.52C690.424 2708.8 688.898 2678.52 710.488 2678.75C734.29 2720.25 778.538 2753.05 832.55 2739.78C808.901 2770.67 860.777 2761.75 878.324 2762.66C852.767 2735.05 808.672 2711.78 817.292 2663.49C869.169 2678.52 903.041 2702.78 946.984 2732.15V2655.86C907.314 2652.88 839.035 2628.62 847.808 2587.2C832.245 2574.31 809.892 2584.99 794.406 2571.94C809.587 2546.16 828.126 2548.98 847.808 2564.31C839.416 2546.61 853.835 2528.84 824.921 2541.43C828.965 2502.59 815.385 2482.07 786.777 2480.39C790.515 2506.64 753.057 2535.86 802.035 2533.8C783.344 2556.15 788.455 2591.7 763.89 2602.46C764.348 2621.45 772.816 2638.92 779.148 2655.86Z" stroke="#627453" stroke-width="0.3"/>
<path d="M412.96 2587.2C426.997 2588.95 445.307 2582.93 458.734 2587.2C456.674 2575.98 443.476 2580.41 435.847 2579.57C439.356 2557.45 431.193 2532.81 435.847 2510.91C436.915 2505.88 440.195 2499.62 443.476 2495.65C413.265 2498.93 434.626 2543.26 428.218 2564.31C412.503 2555.16 395.948 2578.96 412.96 2587.2Z" stroke="#B4D3A6" stroke-width="0.3"/>
<path d="M306.156 2907.61C313.251 2913.56 311.268 2913.49 313.785 2922.87C342.699 2940.04 372.375 2868.55 399.458 2890.75C426.54 2912.88 439.052 2923.86 473.992 2930.5C498.252 2896.25 492.759 2864.2 466.363 2831.32C507.102 2823.7 518.24 2865.96 512.137 2899.98C591.935 2934.09 543.644 2824.23 596.055 2800.81C571.642 2757.93 609.482 2722.31 603.684 2678.75C598.725 2673.48 593.461 2668.45 588.426 2663.49C572.939 2648.15 559.894 2645.1 535.023 2648.23C548.527 2681.8 504.508 2672.95 512.137 2701.63C551.426 2715.52 553.562 2682.48 573.168 2671.12C564.471 2751.68 462.244 2689.66 412.961 2724.52C411.588 2741.68 412.274 2775.4 428.219 2747.41C420.742 2792.95 437.068 2774.03 458.734 2800.81C433.33 2800.81 407.85 2800.81 382.445 2800.81C368.942 2837.2 319.049 2867.64 275.641 2861.84C277.777 2885.72 296.773 2899.76 306.156 2907.61Z" stroke="#D7DC87" stroke-width="0.3"/>
<path d="M756.262 2709.26C769.002 2709.26 781.666 2709.26 794.407 2709.26C795.932 2689.81 784.718 2670.73 779.149 2655.86C763.128 2654.71 750.693 2643.73 733.375 2648.23C721.093 2679.74 764.12 2679.43 756.262 2709.26Z" stroke="#BEC876" stroke-width="0.3"/>
<path d="M847.809 2838.95C855.438 2838.95 863.066 2838.95 870.695 2838.95C896.1 2838.95 921.58 2838.95 946.984 2838.95V2732.15C903.042 2702.78 869.17 2678.52 817.293 2663.49C808.672 2711.78 852.767 2735.05 878.324 2762.66C860.778 2761.75 808.901 2770.67 832.551 2739.78C778.538 2753.05 734.29 2720.25 710.488 2678.75C688.898 2678.52 690.424 2708.8 687.602 2724.52C768.087 2711.93 806.536 2800.66 847.809 2838.95Z" stroke="#535043" stroke-width="0.3"/>
<path d="M397.704 2716.89C416.852 2656.77 360.322 2698.43 329.044 2686.37C317.6 2714.98 368.714 2706.06 344.301 2732.15C368.79 2737.41 371.384 2706.74 397.704 2716.89Z" stroke="#D7DEA4" stroke-width="0.3"/>
<path d="M313.785 2922.87C318.438 2940.19 307.071 2959.49 313.785 2976.27C320.193 2992.22 345.597 2987.64 344.3 3006.79C331.026 3006.56 317.904 3010.15 306.156 3014.42C295.247 3023.73 283.956 3029.29 290.898 3052.56C319.201 3060.73 331.484 3020.98 359.558 3044.93C351.09 3054.09 334.459 3057.6 321.414 3060.19C331.865 3066.14 325.915 3070.49 344.3 3075.45C343.156 3075.14 374.282 3075.07 374.816 3075.45C362.762 3057.98 360.703 3041.88 390.074 3014.42C406.552 3025.63 406.247 3048.82 405.332 3067.82C453.623 3087.05 498.709 3081.32 481.621 3014.42C489.25 3014.42 496.879 3014.42 504.507 3014.42C509.466 2968.87 501.456 2910.66 565.539 2915.24C568.972 2930.96 583.772 2948.73 603.683 2945.76C608.108 2937.82 614.059 2936.15 618.941 2930.5C643.048 2902.27 635.801 2910.51 672.343 2899.98C704.461 2890.75 720.329 2863.9 741.004 2854.21C709.649 2855.97 756.719 2836.59 725.746 2838.95C736.121 2824.61 750.311 2817.44 763.89 2808.44C735.129 2788.98 692.56 2768.69 664.714 2793.18C659.603 2765.79 628.401 2757.25 611.312 2747.41C629.087 2720.78 617.873 2693.62 603.683 2678.75C609.481 2722.31 571.642 2757.93 596.054 2800.81C543.644 2824.23 591.935 2934.09 512.136 2899.98C518.239 2865.96 507.101 2823.7 466.363 2831.32C492.759 2864.2 498.252 2896.25 473.992 2930.5C439.051 2923.86 426.54 2912.88 399.457 2890.75C372.375 2868.55 342.698 2940.04 313.785 2922.87ZM649.457 2793.18C673.411 2822.17 623.595 2814.24 649.457 2793.18Z" stroke="#B2B867" stroke-width="0.3"/>
<path d="M153.578 100.176C174.099 114.213 214.533 116.425 206.98 153.578C247.108 159.529 248.558 113.069 245.125 84.918C213.312 90.6396 214.99 46.2394 214.609 23.8867C195.079 28.7692 188.442 10.5361 176.464 1H84.9175C77.67 43.6456 126.571 81.6375 153.578 100.176Z" fill="#D7E3D7"/>
<path d="M153.578 100.176C137.176 100.939 141.296 109.864 130.691 115.434C153.883 128.479 161.207 155.028 153.578 184.094C150.527 195.766 125.961 208.811 138.32 229.867C178.525 220.941 218.653 205.073 237.496 168.836C254.509 179.288 270.606 213.236 275.641 237.496C300.511 240.853 312.107 205.607 313.785 184.094C314.395 176.541 313.327 168.836 313.785 161.207C296.849 158.766 271.063 168.76 260.383 153.578C302.952 148.314 341.631 125.504 351.93 84.918C335.756 76.755 281.286 94.3015 298.527 69.6602C295.934 59.2086 298.985 48.1466 290.898 39.1445C281.82 42.1961 282.659 59.4374 268.012 54.4023C261.069 26.7857 298.146 25.3362 298.527 1H176.465C188.442 10.5361 195.079 28.7692 214.609 23.8867C214.991 46.2394 213.312 90.6396 245.125 84.918C248.558 113.069 247.109 159.529 206.98 153.578C214.533 116.425 174.1 114.213 153.578 100.176Z" fill="#A9A06B"/>
<path d="M290.899 39.1445C308.979 33.1177 335.604 14.3506 359.559 23.8867C358.033 16.563 360.78 8.40004 359.559 1H298.528C298.146 25.3362 261.07 26.7857 268.012 54.4023C282.66 59.4374 281.821 42.1961 290.899 39.1445Z" fill="#CED1BC"/>
<path d="M359.559 23.8867C368.409 66.5323 403.807 67.5241 382.446 107.805C381.988 115.357 382.446 123.139 382.446 130.691C394.194 153.731 397.704 177.228 397.704 214.609C397.704 221.781 396.559 230.401 397.704 237.496C402.739 247.261 441.417 277.319 458.735 283.27C420.133 242.913 455.378 178.525 443.477 130.691C431.576 82.8582 365.662 64.5488 382.446 1H359.559C360.78 8.40004 358.033 16.563 359.559 23.8867Z" fill="#A5A258"/>
<path d="M458.735 283.27C460.642 285.253 465.754 288.991 466.364 290.898C472.009 284.032 470.789 268.241 489.251 275.641C489.251 283.27 489.251 290.898 489.251 298.527C499.092 301.731 511.222 297.612 519.766 306.156C531.744 263.434 551.121 245.659 535.634 198.741C520.071 151.823 509.696 128.326 504.508 77.2891C491.081 110.78 477.502 57.6828 504.508 62.0312C511.069 110.246 565.234 115.51 580.797 153.578C585.375 112.687 606.278 101.32 618.942 69.6602C668.454 69.5076 723.153 121.918 725.747 184.094C742.607 186.306 742.988 160.673 763.891 168.836C764.273 153.578 763.586 138.32 763.891 123.062C702.478 161.512 666.928 38.6868 641.829 1H382.446C365.662 64.5488 431.576 82.8582 443.477 130.691C455.378 178.525 420.133 242.913 458.735 283.27Z" fill="#788055"/>
<path d="M763.891 168.836C763.738 176.465 763.891 184.094 763.891 191.723C763.891 201.717 762.899 212.321 763.891 222.238C766.866 230.096 791.507 239.098 794.406 222.238C817.827 250.542 825.074 300.282 863.066 298.527C850.784 325 874.815 357.575 893.582 321.414C906.78 360.321 887.86 400.984 888.165 430.507C888.547 459.955 889.081 532.124 939.355 512.137C887.631 538.838 944.772 581.483 936.838 624.053C928.828 666.698 931.04 703.851 946.984 748.633V1H641.828C666.927 38.6868 702.478 161.512 763.891 123.062C763.585 138.32 764.272 153.578 763.891 168.836ZM924.098 54.4023C920.894 76.8313 908.535 106.737 878.324 100.176C889.31 72.8643 861.388 52.4951 870.695 31.5156C889.386 37.6188 892.819 65.7694 924.098 54.4023Z" fill="#455B48"/>
<path d="M290.898 39.1446C298.985 48.1467 295.934 59.2087 298.527 69.6603C306.004 60.4293 344.987 51.122 359.559 46.7735C355.973 74.8479 396.94 71.7201 382.445 107.805C403.806 67.5242 368.408 66.5324 359.559 23.8868C335.604 14.3507 308.979 33.1178 290.898 39.1446Z" fill="#C9C270"/>
<path d="M924.097 54.4023C892.818 65.7694 889.385 37.6188 870.695 31.5156C861.387 52.4951 889.309 72.8643 878.324 100.176C908.534 106.737 920.893 76.8313 924.097 54.4023Z" fill="#5A7249"/>
<path d="M489.25 298.527C491.31 308.139 492.683 335.222 489.25 344.3C535.634 318.82 562.717 262.9 565.539 222.238C584.688 228.341 605.133 232.003 626.57 229.867C636.107 260.916 612.915 272.741 611.313 298.527C635.878 298.603 668.758 339.494 718.117 329.042C719.948 354.218 731.01 369.857 756.262 374.816C746.726 394.575 750.922 422.573 718.117 412.96C700.037 443.095 710.946 472.618 710.488 512.136C739.326 476.814 760.61 510.076 763.891 542.652C738.792 562.105 696.299 535.175 679.973 565.538C669.674 532.2 691.874 524.266 702.86 504.507C667.309 493.369 675.472 481.163 626.57 481.621C634.047 517.171 598.954 538.761 603.684 573.167C626.647 576.906 642.133 545.093 649.457 580.796C657.696 594.376 666.164 613.753 672.344 626.57C680.507 632.673 701.181 621.992 710.488 626.57C707.742 645.489 724.22 661.358 741.004 664.714C741.614 691.721 734.443 707.055 733.375 733.374C723.61 735.51 706.674 727.576 702.86 741.003C713.006 741.003 723.229 741.003 733.375 741.003C741.691 777.393 727.348 792.193 702.86 809.664C720.177 800.509 738.563 793.795 756.262 786.777C766.408 814.699 786.243 837.662 779.149 870.695C794.101 902.965 833.085 932.794 855.438 954.613C864.745 995.046 825.38 1022.51 786.778 1015.64C790.592 1036.01 814.928 1038.07 809.664 1061.42C753.058 1072.25 848.419 1128.09 794.406 1145.34C793.415 1180.2 834.763 1194.16 847.809 1229.25C888.471 1178.29 835.679 1124.89 832.551 1069.05C863.829 1069.66 866.652 1030.75 893.582 1023.27C891.217 990.774 889.463 979.941 885.953 946.984C885.19 939.584 885.953 931.573 885.953 924.097C885.877 897.854 880.46 893.047 855.438 885.953C881.757 852.462 804.782 832.703 840.18 794.406C778.843 837.89 770.299 696.527 840.18 702.859C822.405 636.335 763.357 627.485 779.149 550.281C791.126 572.557 833.466 562.182 794.406 580.796C807.07 584.916 812.182 600.326 824.922 603.683C827.592 581.864 822.862 562.563 817.293 542.652C833.695 549.67 872.45 513.357 840.18 512.136C835.145 501.532 814.47 493.064 824.922 473.992C787.846 493.064 804.324 434.932 779.149 451.105C803.714 391.599 769.765 345.826 712.396 304.248C655.103 262.595 697.29 199.656 763.891 191.722C763.891 184.093 763.738 176.464 763.891 168.835C742.988 160.672 742.606 186.306 725.746 184.093C723.152 121.918 668.453 69.507 618.942 69.6596C606.278 101.32 585.374 112.687 580.797 153.578C565.234 115.509 511.069 110.245 504.508 62.0307C477.502 57.6822 491.081 110.779 504.508 77.2885C509.696 128.326 520.071 151.823 535.634 198.741C551.121 245.658 531.743 263.434 519.766 306.156C511.221 297.611 499.091 301.731 489.25 298.527ZM657.086 206.98C624.282 225.594 565.921 202.479 594.376 159.528C622.832 116.577 670.513 172.497 657.086 206.98Z" fill="#9B9C5C"/>
<path d="M100.176 176.465C112.916 176.465 125.58 176.465 138.32 176.465C154.036 146.102 107.347 150.222 123.062 130.692C105.516 122.758 70.1942 141.296 54.4023 130.692C60.7343 151.671 77.8231 173.643 100.176 176.465Z" fill="#E0E097"/>
<path d="M397.703 214.609C397.703 177.228 394.194 153.731 382.445 130.691C382.445 168.073 385.955 191.57 397.703 214.609Z" fill="#CED285"/>
<path d="M657.086 206.981C670.513 172.498 622.832 116.578 594.376 159.529C565.92 202.48 624.281 225.596 657.086 206.981Z" fill="#C1BB57"/>
<path d="M313.786 184.093C330.798 184.704 360.475 188.06 351.93 161.207C339.419 159.833 326.221 163.037 313.786 161.207C313.328 168.835 314.396 176.541 313.786 184.093Z" fill="#D9D47E"/>
<path d="M153.578 184.094C114.518 194.393 85.7571 225.29 77.2891 268.012C137.176 224.222 187.222 274.801 199.352 329.043C218.271 327.212 234.139 315.769 252.754 313.785C251.61 273.047 233.224 242.836 229.867 206.98C255.729 190.883 265.952 236.199 275.641 237.496C270.606 213.236 254.509 179.288 237.496 168.836C218.653 205.073 178.525 220.941 138.32 229.867C125.961 208.811 150.527 195.766 153.578 184.094Z" fill="#E0E29D"/>
<path d="M840.18 512.137C836.136 483.681 841.705 455.607 809.664 443.477C880.002 432.033 831.406 367.035 786.777 367.188C778.996 316.76 796.466 258.628 763.89 222.238C762.899 212.321 763.89 201.717 763.89 191.723C697.29 199.657 655.102 262.595 712.395 304.249C769.765 345.827 803.713 391.6 779.148 451.105C804.324 434.932 787.845 493.064 824.922 473.992C814.47 493.064 835.144 501.533 840.18 512.137Z" fill="#6D7F4E"/>
<path d="M489.25 344.301C477.425 350.785 468.423 370.239 451.105 351.93C455.225 382.293 453.776 417.615 412.961 405.332C407.773 382.064 437.984 378.326 428.219 351.93C412.885 355.973 403.196 340.486 390.074 351.93C367.569 344.224 355.82 365.433 336.672 367.188C343.69 318.363 274.878 331.179 237.496 329.043C244.744 361.313 202.022 359.253 199.352 382.445C224.374 399.534 252.754 397.398 283.27 382.445C286.626 414.182 282.354 454.615 328.814 450.877C375.35 447.215 369.705 402.128 412.961 405.332C405.027 442.637 418.072 462.701 451.105 466.363C417.691 453.318 404.417 492.225 374.816 489.25C381.072 465.524 365.28 471.017 351.93 466.363C306.995 460.108 271.14 491.539 283.27 542.652C300.129 544.865 300.511 519.232 321.414 527.395C352.387 507.331 363.831 488.64 405.332 496.879C415.097 558.063 392.134 601.624 390.074 657.086C444.85 670.208 438.67 592.622 473.992 588.426C485.817 576.601 486.427 573.931 519.766 588.426C472.314 630.308 601.548 675.777 535.023 710.488C531.285 656.781 435.848 685.542 435.848 733.375C463.541 765.416 530.446 750.387 527.395 802.035C527.7 809.359 500.617 817.217 512.137 832.551C545.933 824.159 532.277 866.805 535.023 885.953C595.826 857.345 667.461 798.755 702.859 741.004C706.674 727.577 723.61 735.511 733.375 733.375C734.443 707.055 741.614 691.721 741.004 664.715C724.22 661.358 707.742 645.49 710.488 626.57C701.181 621.993 680.507 632.673 672.344 626.57C680.202 642.744 690.272 659.909 687.602 679.973C643.354 684.626 668.834 608.337 626.57 611.312C623.061 593.995 627.409 574.999 649.457 580.797C642.133 545.094 626.647 576.906 603.684 573.168C598.954 538.762 634.047 517.172 626.57 481.621C675.472 481.163 667.309 493.37 702.859 504.508C691.874 524.267 669.674 532.201 679.973 565.539C696.299 535.176 738.792 562.106 763.891 542.652C760.61 510.077 739.326 476.815 710.488 512.137C710.946 472.619 700.037 443.095 718.117 412.961C750.922 422.573 746.726 394.575 756.262 374.816C731.01 369.858 719.948 354.218 718.117 329.043C668.758 339.495 635.878 298.604 611.312 298.527C612.915 272.742 636.106 260.917 626.57 229.867C605.133 232.003 584.688 228.341 565.539 222.238C562.716 262.9 535.634 318.82 489.25 344.301ZM527.395 405.332C504.126 400.144 500.388 430.355 473.992 420.59C487.648 407.01 526.174 346.284 527.395 405.332ZM573.168 435.848C536.626 393.126 604.828 394.346 573.168 435.848V435.848ZM489.25 527.395C471.627 523.199 446.223 512.06 451.105 489.25C475.137 484.978 480.4 512.06 489.25 527.395ZM580.797 634.199C536.473 621.764 588.273 578.661 580.797 634.199V634.199ZM573.168 748.633C585.908 760.763 576.525 788.608 557.91 786.777C549.824 771.138 554.63 754.888 573.168 748.633Z" fill="#D1CD78"/>
<path d="M840.18 512.137C872.45 513.357 833.695 549.671 817.293 542.652C822.862 562.564 827.592 581.865 824.922 603.684C844.681 620.238 877.104 629.393 885.953 657.086C872.374 668.529 847.122 646.329 847.809 672.344C867.873 682.948 840.485 731.239 878.324 741.004C846.588 767.324 878.019 804.782 908.84 809.664C870.695 851.013 914.79 877.485 908.84 924.098C901.211 924.098 893.582 924.098 885.953 924.098C885.953 931.574 885.19 939.584 885.953 946.984C892.895 974.296 924.403 980.399 946.984 992.758V748.633C931.04 703.851 928.828 666.698 936.838 624.053C944.772 581.483 887.631 538.838 939.355 512.137C889.081 532.124 888.547 459.955 888.165 430.507C887.86 400.984 906.78 360.321 893.582 321.414C874.815 357.575 850.784 325 863.066 298.527C825.074 300.282 817.827 250.542 794.406 222.238C791.507 239.098 766.866 230.096 763.891 222.238C796.466 258.628 778.996 316.76 786.777 367.188C831.406 367.035 880.003 432.033 809.664 443.477C841.705 455.607 836.136 483.681 840.18 512.137Z" fill="#556B4C"/>
<path d="M390.074 329.043C417.767 332.4 481.316 337.74 466.363 290.898C465.753 288.991 460.642 285.253 458.734 283.27C441.417 277.319 402.738 247.261 397.703 237.496C411.893 256.721 387.709 275.488 367.188 268.012C369.095 293.187 341.631 300.129 351.93 329.043C364.517 330.187 377.563 327.517 390.074 329.043Z" fill="#CDC46F"/>
<path d="M466.363 290.898C481.316 337.74 417.767 332.399 390.074 329.043C390.685 329.5 390.761 351.243 390.074 351.929C403.196 340.486 412.885 355.973 428.219 351.929C437.984 378.325 407.773 382.064 412.961 405.332C453.776 417.614 455.225 382.292 451.105 351.929C468.423 370.239 477.425 350.785 489.25 344.301C492.683 335.222 491.31 308.14 489.25 298.527C489.25 290.898 489.25 283.269 489.25 275.64C470.788 268.24 472.009 284.032 466.363 290.898Z" fill="#D4D9AD"/>
<path d="M527.395 405.333C526.174 346.285 487.648 407.011 473.992 420.591C500.388 430.356 504.126 400.145 527.395 405.333Z" fill="#D9DDC1"/>
<path d="M573.167 435.847C536.625 393.125 604.827 394.346 573.167 435.847V435.847Z" fill="#D9E3C4"/>
<path d="M306.156 542.651C307.301 536.853 317.6 529.911 321.414 527.394C300.511 519.231 300.13 544.864 283.27 542.651C271.14 491.538 306.996 460.107 351.93 466.362C301.121 436.457 256.645 498.404 275.641 550.28C287.466 552.188 296.544 548.144 306.156 542.651Z" fill="#D8DEB4"/>
<path d="M489.251 527.395C480.401 512.061 475.137 484.978 451.106 489.25C446.224 512.061 471.628 523.199 489.251 527.395Z" fill="#D4DABF"/>
<path d="M885.953 924.098C893.581 924.098 901.21 924.098 908.839 924.098C914.79 877.485 870.695 851.013 908.839 809.664C878.018 804.782 846.587 767.324 878.324 741.004C840.484 731.239 867.872 682.948 847.808 672.344C847.121 646.329 872.373 668.529 885.953 657.086C877.103 629.393 844.68 620.238 824.921 603.684C812.181 600.327 807.07 584.916 794.406 580.797C833.466 562.182 791.125 572.558 779.148 550.281C763.356 627.486 822.404 636.335 840.179 702.859C770.298 696.527 778.843 837.891 840.179 794.406C804.781 832.703 881.757 852.462 855.437 885.953C880.46 893.048 885.876 897.854 885.953 924.098Z" fill="#778251"/>
<path d="M473.992 588.426C504.126 583.162 513.281 676.845 481.621 679.973C449.961 683.101 398.008 690.806 412.961 741.005C434.322 749.32 443.019 757.483 458.734 763.891C486.809 775.335 509.009 783.879 527.395 802.036C530.446 750.388 463.541 765.417 435.848 733.376C435.848 685.542 531.285 656.781 535.024 710.489C601.548 675.777 472.314 630.309 519.766 588.426C486.427 573.931 485.817 576.602 473.992 588.426Z" fill="#DDE5C4"/>
<path d="M672.344 626.57C666.164 613.753 657.696 594.376 649.457 580.796C627.409 574.998 623.061 593.994 626.57 611.312C668.834 608.337 643.354 684.626 687.602 679.972C690.272 659.908 680.202 642.743 672.344 626.57Z" fill="#CED5A9"/>
<path d="M580.796 634.2C536.472 621.765 588.273 578.662 580.796 634.2V634.2Z" fill="#D6DFC3"/>
<path d="M573.168 748.633C554.63 754.889 549.824 771.138 557.91 786.777C576.525 788.608 585.908 760.763 573.168 748.633Z" fill="#D9E8BF"/>
<path d="M702.859 809.664C673.412 805.087 680.735 846.359 649.457 824.922C637.174 842.697 643.125 865.202 641.828 885.953C669.368 896.328 679.667 864.44 702.859 863.066C700.57 878.248 688.364 900.677 672.344 901.211C672.344 926.615 672.344 952.096 672.344 977.5C720.863 985.434 719.643 945.459 733.375 916.469C743.445 895.26 772.893 891.064 779.148 870.695C786.243 837.662 766.408 814.699 756.262 786.777C738.562 793.796 720.177 800.509 702.859 809.664Z" fill="#CFCD7A"/>
<path d="M733.375 916.469C746.192 918.681 758.703 906.475 756.262 893.582C806.46 882.902 813.021 930.506 794.406 962.242C811.342 959.648 846.13 961.708 824.922 985.129C783.344 980.933 774.266 1052.57 771.52 1076.68C768.926 1099.26 773.503 1122.68 771.52 1145.34C779.148 1145.34 786.777 1145.34 794.406 1145.34C848.419 1128.09 753.058 1072.25 809.664 1061.42C814.928 1038.07 790.592 1036.01 786.777 1015.64C825.38 1022.51 864.745 995.046 855.438 954.613C833.085 932.795 794.101 902.966 779.148 870.695C772.893 891.064 743.445 895.26 733.375 916.469Z" fill="#C0C7A7"/>
<path d="M893.582 1023.27C894.726 1038.45 892.743 1053.87 893.582 1069.05C913.036 1054.55 919.215 1061.19 939.355 1076.68C942.026 1078.43 946.984 1076.68 946.984 1076.68V992.758C924.403 980.399 892.895 974.296 885.953 946.984C889.462 979.941 891.217 990.774 893.582 1023.27Z" fill="#7C8653"/>
<path d="M634.199 1030.9C654.797 1062.79 693.4 1087.43 679.973 1137.71C766.256 1172.8 637.937 1204.08 641.828 1252.14C664.562 1249.62 690.806 1258.4 710.488 1244.51C709.268 1258.02 736.35 1295.47 741.004 1297.91C745.81 1293.34 745.047 1286.24 748.633 1282.66C745.429 1264.73 735.664 1267.02 718.117 1267.4C731.62 1222.85 686.534 1248.02 672.344 1236.88C718.499 1218.8 730.323 1157.47 702.859 1099.56C712.624 1095.52 717.049 1106.96 725.746 1107.19C723.763 1079.04 718.422 1039.68 741.004 1023.27C706.216 1011.6 729.332 1065.84 695.23 1053.79C706.521 1012.36 656.17 1023.5 634.199 1030.9Z" fill="#B9C4A8"/>
<path d="M725.746 1107.19C726.204 1113.98 713.006 1121.38 718.117 1130.08C764.654 1112.84 768.315 1197.29 756.262 1214C787.922 1219.72 785.252 1259.69 809.664 1275.03C787.845 1272.36 768.544 1277.09 748.633 1282.66C745.047 1286.24 745.81 1293.34 741.004 1297.91C731.239 1307.22 710.717 1318.05 710.488 1336.06C722.847 1334.3 736.35 1338.42 748.633 1336.06C781.513 1329.73 826.982 1300.97 794.406 1366.57C850.631 1363.52 931.955 1391.22 931.727 1336.06C891.293 1344.3 836.289 1333.77 824.922 1290.29C885.648 1337.13 988.562 1179.97 885.953 1206.37C894.574 1161.2 940.576 1126.87 939.355 1076.68C919.215 1061.19 913.036 1054.55 893.582 1069.05C892.743 1053.87 894.726 1038.45 893.582 1023.27C866.652 1030.75 863.829 1069.66 832.551 1069.05C835.679 1124.89 888.471 1178.29 847.809 1229.25C834.763 1194.16 793.414 1180.2 794.406 1145.34C786.777 1145.34 779.148 1145.34 771.52 1145.34C773.503 1122.68 768.926 1099.26 771.52 1076.68C775.715 1059.36 767.324 1035.33 748.633 1053.79C746.497 1044.25 753.21 1027.32 741.004 1023.27C718.422 1039.68 723.763 1079.04 725.746 1107.19Z" fill="#C9CB75"/>
<path d="M748.633 1336.06C744.437 1347.12 751.608 1362.68 748.633 1374.2C760.534 1362.38 762.594 1346.59 779.148 1343.69C769.231 1374.51 772.359 1413.19 771.52 1450.49C828.813 1435.16 801.272 1521.9 863.066 1519.15C801.501 1544.56 852.996 1637.86 817.293 1686.99C796.619 1681.11 803.103 1657.31 802.035 1641.21C797.382 1651.13 776.707 1661.43 771.52 1671.73C767.629 1679.51 769.078 1680.12 763.891 1686.99C749.167 1706.37 717.354 1728.79 695.23 1748.02C683.635 1792.65 793.109 1701.86 794.406 1748.02C795.017 1769.84 769.231 1809.28 763.891 1824.31C752.981 1835.07 744.742 1849.26 756.262 1862.45C777.47 1845.36 812.105 1854.98 809.664 1885.34C815.309 1899.99 821.107 1919.21 817.293 1938.74C724.983 1967.5 689.89 2071.49 649.457 2159.98C660.824 2157.84 675.243 2160.13 672.344 2175.24C698.511 2184.62 722.847 2162.88 748.633 2167.61C759.161 2199.19 750.082 2239.4 710.488 2221.01C712.396 2223.07 709.039 2233.14 710.488 2236.27C713.54 2238.63 743.521 2251.68 748.633 2251.53C789.447 2250.54 803.332 2156.85 863.066 2175.24C869.78 2206.59 842.239 2225.59 832.551 2251.53C852.615 2226.58 928.446 2172.72 863.066 2144.72C892.361 2113.14 871.916 2102.23 878.324 2060.8C851.776 2067.14 870.39 2145.26 847.809 2159.98C804.095 2124.43 700.037 2154.95 741.004 2060.8C781.666 2063.7 802.569 2097.8 847.809 2098.95C849.487 2073.7 823.091 2058.29 832.551 2030.29C804.248 2032.5 784.26 2008.93 779.148 1984.52C829.881 2026.25 817.903 1948.13 870.695 1954C864.363 1995.27 897.396 2016.48 885.953 2060.8C934.931 2013.43 832.474 1923.79 878.324 1885.34C844.452 1878.47 864.668 1826.52 870.695 1801.42C841.095 1804.78 839.798 1760 840.18 1732.76C861.998 1770.68 885.495 1685.31 855.438 1686.99C869.932 1636.33 918.376 1662.88 946.984 1671.73V1610.7C930.124 1605.28 920.588 1617.57 924.098 1633.59C903.347 1632.29 880.842 1638.24 863.066 1625.96C859.099 1602.46 895.337 1605.82 885.953 1580.18C870.924 1576.75 848.266 1567.21 847.809 1549.67C871.077 1544.48 874.815 1574.69 901.211 1564.93C866.271 1529.38 904.186 1508.55 946.984 1519.15V1076.68C946.984 1076.68 942.026 1078.43 939.355 1076.68C940.576 1126.87 894.574 1161.2 885.953 1206.37C988.562 1179.97 885.648 1337.13 824.922 1290.29C836.289 1333.77 891.293 1344.3 931.727 1336.06C931.955 1391.22 850.631 1363.52 794.406 1366.57C826.982 1300.97 781.513 1329.73 748.633 1336.06ZM924.098 1397.09C924.937 1439.89 896.405 1444.08 885.953 1473.38C777.623 1488.56 863.143 1361.23 924.098 1397.09Z" fill="#929C6B"/>
<path d="M748.633 1282.66C768.544 1277.09 787.845 1272.36 809.664 1275.03C785.252 1259.69 787.922 1219.72 756.262 1214C768.315 1197.29 764.654 1112.84 718.117 1130.08C713.006 1121.38 726.204 1113.98 725.746 1107.19C717.049 1106.96 712.624 1095.52 702.859 1099.56C730.323 1157.47 718.499 1218.8 672.344 1236.88C686.534 1248.02 731.62 1222.85 718.117 1267.4C735.664 1267.02 745.429 1264.73 748.633 1282.66Z" fill="#A4A673"/>
<path d="M733.375 1412.35C733.375 1412.35 741.004 1412.5 741.004 1412.35C717.049 1388.85 738.105 1384.58 748.633 1374.2C751.608 1362.68 744.437 1347.12 748.633 1336.06C736.35 1338.42 722.847 1334.3 710.488 1336.06C710.412 1344.22 739.936 1363.6 724.068 1380.15C708.2 1396.63 719.719 1408.91 733.375 1412.35Z" fill="#B8C3B4"/>
<path d="M748.633 1374.2C738.105 1384.58 717.049 1388.85 741.004 1412.35C740.088 1437.29 740.393 1454.23 756.262 1473.38C760.915 1479.1 779.835 1487.49 786.777 1496.27C810.961 1527.09 773.503 1562.87 771.519 1603.07C799.594 1590.56 825.379 1620.54 802.035 1641.21C803.103 1657.31 796.618 1681.11 817.293 1686.99C852.996 1637.86 801.501 1544.56 863.066 1519.15C801.272 1521.9 828.812 1435.16 771.519 1450.49C772.359 1413.19 769.231 1374.51 779.148 1343.69C762.594 1346.59 760.534 1362.38 748.633 1374.2Z" fill="#898159"/>
<path d="M924.097 1397.09C863.143 1361.23 777.622 1488.56 885.953 1473.38C896.405 1444.08 924.937 1439.89 924.097 1397.09Z" fill="#B3BD6A"/>
<path d="M641.828 1633.59C664.944 1651.06 751.303 1636.79 710.488 1679.36C724.754 1670.05 756.033 1688.51 763.891 1686.99C769.078 1680.12 767.629 1679.51 771.519 1671.73C768.849 1668.07 752.295 1674.63 748.633 1671.73C739.631 1642.82 766.637 1662.65 771.519 1641.21C746.039 1601.01 764.272 1542.27 786.777 1496.27C779.835 1487.49 760.915 1479.1 756.262 1473.38C741.004 1473.38 725.746 1473.38 710.488 1473.38C712.167 1497.26 743.903 1523.73 710.488 1542.04C729.637 1543.56 754.812 1556.38 748.633 1580.18C728.111 1583.08 700.418 1594.14 702.859 1618.33C695.154 1586.74 669.826 1607.95 641.828 1603.07C637.937 1609.25 646.939 1628.63 641.828 1633.59Z" fill="#D4DC9C"/>
<path d="M687.601 1511.52C655.56 1512.51 640.073 1485.74 603.684 1496.27C601.776 1547.61 728.111 1588.96 687.601 1511.52Z" fill="#E3E6A8"/>
<path d="M771.519 1671.73C776.707 1661.43 797.381 1651.13 802.035 1641.21C825.38 1620.54 799.594 1590.56 771.519 1603.07C773.503 1562.87 810.961 1527.09 786.777 1496.27C764.272 1542.27 746.039 1601.01 771.519 1641.21C766.637 1662.65 739.631 1642.82 748.633 1671.73C752.295 1674.63 768.849 1668.07 771.519 1671.73Z" fill="#B4B96F"/>
<path d="M946.984 1610.7V1519.15C904.186 1508.55 866.271 1529.37 901.211 1564.93C874.815 1574.69 871.077 1544.48 847.809 1549.67C848.266 1567.21 870.924 1576.75 885.953 1580.18C895.337 1605.82 859.099 1602.46 863.066 1625.96C880.842 1638.24 903.347 1632.29 924.098 1633.59C920.588 1617.57 930.124 1605.28 946.984 1610.7Z" fill="#AAB767"/>
<path d="M885.953 2060.81C883.97 2062.71 878.324 2060.81 878.324 2060.81C871.916 2102.23 892.361 2113.14 863.066 2144.72C928.446 2172.72 852.615 2226.58 832.551 2251.53C825.99 2264.95 823.625 2275.71 817.293 2289.67C809.664 2306.61 796.619 2307.98 786.777 2327.82C814.699 2348.26 852.691 2378.85 847.809 2419.36C833.237 2416.92 821.413 2430.58 832.551 2442.25C863.829 2425.16 883.817 2398.16 908.84 2381.22C904.568 2423.86 935.465 2448.96 924.098 2495.65C931.727 2495.65 939.355 2495.65 946.984 2495.65V1671.73C918.376 1662.88 869.932 1636.33 855.438 1686.99C885.495 1685.31 861.998 1770.68 840.18 1732.76C839.798 1760 841.095 1804.78 870.695 1801.42C864.668 1826.52 844.452 1878.47 878.324 1885.34C832.474 1923.79 934.931 2013.43 885.953 2060.81Z" fill="#6B7D65"/>
<path d="M695.23 1748.02C679.973 1749.77 667.08 1764.73 664.715 1778.54C691.263 1777.39 721.321 1785.02 741.004 1763.28C757.253 1771.52 746.649 1776.17 748.633 1786.16C753.592 1774.49 792.499 1753.67 794.406 1748.02C793.109 1701.87 683.635 1792.65 695.23 1748.02Z" fill="#ABC7B4"/>
<path d="M748.633 1786.16C751.532 1800.58 737.037 1809.81 756.262 1824.31C758.474 1822.4 763.891 1824.31 763.891 1824.31C769.231 1809.28 795.017 1769.84 794.406 1748.02C792.499 1753.66 753.592 1774.49 748.633 1786.16Z" fill="#C1C885"/>
<path d="M626.57 1892.97C625.426 1902.05 617.186 1906.32 626.57 1915.86C606.353 1909.9 590.485 1930.66 573.168 1915.86C580.339 1941.56 550.968 1936.83 542.652 1954C510.763 1973.53 482.155 1992.07 496.879 2045.55C550.052 1996.65 611.083 1904.11 702.859 1915.86C717.888 1926.31 700.876 1963.46 733.375 1954C739.02 1909.45 718.651 1877.56 672.343 1892.97C699.35 1865.58 777.088 1856.27 809.664 1885.34C812.105 1854.98 777.47 1845.36 756.261 1862.45C744.742 1849.26 752.981 1835.07 763.89 1824.31C763.89 1824.31 758.474 1822.4 756.261 1824.31C739.02 1845.44 713.311 1849.48 679.972 1847.2C677.76 1875.96 649.838 1889.46 626.57 1892.97Z" fill="#9AA890"/>
<path d="M573.168 1900.6C567.37 1911.97 565.31 1913.8 557.91 1923.49C552.188 1930.96 547.23 1949.35 542.652 1954C550.968 1936.84 580.339 1941.57 573.168 1915.86C590.486 1930.66 606.354 1909.91 626.57 1915.86C617.187 1906.32 625.426 1902.05 626.57 1892.97C593.766 1904.41 635.344 1878.55 626.57 1862.45C616.805 1864.13 605.743 1860.24 596.055 1862.45C594.91 1868.1 576.677 1893.81 573.168 1900.6Z" fill="#AAC1BB"/>
<path d="M687.602 1923.48C649.076 1912.57 656.629 1952.25 657.086 1976.89C622.299 1988.56 645.414 1934.32 611.313 1946.37C621.612 1985.74 553.562 1988.86 550.739 2022.05C547.993 2055.24 532.201 2089.41 535.024 2129.46C566.76 2119.7 569.583 2104.14 565.539 2068.43C593.004 2064.08 615.89 2071.1 634.2 2083.69C643.431 2064.39 655.713 2049.51 649.457 2022.66C695.994 2008.09 681.194 1974.45 687.602 1923.48Z" fill="#90A089"/>
<path d="M878.325 2060.8C878.325 2060.8 883.97 2062.71 885.954 2060.8C897.397 2016.48 864.364 1995.27 870.696 1954C817.904 1948.12 829.881 2026.24 779.149 1984.51C784.26 2008.93 804.248 2032.5 832.551 2030.29C823.091 2058.29 849.487 2073.7 847.809 2098.95C802.57 2097.8 781.667 2063.7 741.004 2060.8C700.037 2154.94 804.095 2124.43 847.809 2159.98C870.391 2145.26 851.776 2067.14 878.325 2060.8Z" fill="#A8B966"/>
<path d="M672.344 2175.24C678.905 2185.23 696.527 2206.14 710.488 2221.01C750.082 2239.4 759.161 2199.19 748.633 2167.61C722.847 2162.88 698.511 2184.62 672.344 2175.24Z" fill="#A6BB72"/>
<path d="M748.633 2251.53C737.647 2277.31 756.872 2316.07 748.633 2343.07C766.027 2349.56 768.392 2334.3 779.148 2327.82C783.802 2302.49 804.476 2304.09 817.293 2289.67C823.625 2275.71 825.99 2264.95 832.551 2251.53C842.239 2225.59 869.78 2206.59 863.066 2175.24C803.332 2156.85 789.447 2250.54 748.633 2251.53Z" fill="#AABE6C"/>
<path d="M527.395 2312.56C516.409 2312.33 429.058 2331.78 428.219 2343.07C436.763 2368.94 494.895 2354.36 489.25 2396.48C444.926 2406.85 484.291 2476.05 443.477 2495.65C440.196 2499.62 436.916 2505.88 435.848 2510.91C446.299 2533.19 498.1 2539.06 512.137 2556.68C506.644 2524.03 454.767 2474.67 519.766 2465.14C497.871 2499.01 526.403 2500.61 557.91 2510.91C590.104 2453.54 531.209 2441.41 527.395 2404.11C571.032 2402.5 586.671 2457.74 634.199 2449.88C645.414 2398.92 596.589 2393.2 588.426 2358.33C611.084 2357.72 614.822 2350.09 634.199 2343.07C636.106 2325.68 612.838 2313.25 626.57 2297.3C606.049 2291.27 614.517 2298.6 603.684 2282.04C608.948 2258.7 584.611 2256.64 580.797 2236.27C550.434 2255.49 566.226 2307.52 580.797 2327.82C556.079 2337.2 544.788 2315.76 527.395 2312.56Z" fill="#D3DA86"/>
<path d="M672.344 2289.67C685.008 2294.25 709.649 2291.88 702.859 2320.19C687.525 2329.65 663.113 2328.96 672.344 2358.33C693.323 2360.39 700.418 2333.23 718.117 2327.82C697.672 2393.65 759.008 2404.56 779.149 2358.33C789.142 2390.3 777.546 2432.1 809.664 2449.88C812.182 2450.87 827.821 2444.84 832.551 2442.25C821.413 2430.58 833.237 2416.92 847.809 2419.36C852.691 2378.85 814.699 2348.26 786.777 2327.82C784.26 2325.99 779.149 2327.82 779.149 2327.82C768.392 2334.3 766.027 2349.56 748.633 2343.07C756.872 2316.07 737.647 2277.31 748.633 2251.53C743.522 2251.68 713.54 2238.63 710.488 2236.27C724.602 2254.2 740.623 2271.44 733.375 2297.3C706.827 2298.9 698.358 2273.35 672.344 2289.67Z" fill="#99C0AE"/>
<path d="M603.684 2282.04C614.517 2298.6 606.049 2291.27 626.57 2297.3C636.564 2300.2 645.032 2308.9 657.086 2304.93C642.667 2291.35 654.568 2277.08 672.344 2282.04C672.344 2274.41 672.344 2266.79 672.344 2259.16C663.647 2286.01 626.799 2252.29 634.199 2289.67C622.756 2290.89 612.915 2288.45 603.684 2282.04Z" fill="#ADCDB2"/>
<path d="M626.571 2297.3C612.839 2313.24 636.107 2325.68 634.2 2343.07C614.822 2350.09 611.084 2357.72 588.426 2358.33C596.589 2393.2 645.414 2398.92 634.2 2449.88C586.672 2457.74 571.033 2402.5 527.395 2404.1C531.21 2441.41 590.105 2453.54 557.911 2510.91C526.403 2500.61 497.871 2499.01 519.766 2465.14C454.768 2474.67 506.645 2524.03 512.137 2556.68C498.1 2539.06 446.3 2533.19 435.848 2510.91C431.195 2532.8 439.358 2557.45 435.848 2579.57C443.477 2580.41 456.675 2575.98 458.735 2587.2C474.985 2603.98 506.034 2639.69 535.024 2640.6C543.874 2620.31 542.882 2600.24 535.024 2579.57C579.501 2534.71 655.561 2594.22 649.458 2663.49C675.93 2671.8 681.041 2646.55 702.86 2640.6C693.019 2618.1 675.625 2585.37 641.829 2587.2C624.587 2527.69 627.029 2470.7 679.973 2434.62C734.444 2439.66 792.576 2450.87 832.551 2495.65C838.502 2470.4 828.432 2458.65 809.665 2449.88C777.547 2432.1 789.143 2390.3 779.149 2358.33C759.009 2404.56 697.672 2393.65 718.118 2327.82C700.419 2333.23 693.324 2360.39 672.344 2358.33C663.113 2328.96 687.526 2329.65 702.86 2320.19C709.65 2291.88 685.008 2294.25 672.344 2289.67C672.344 2289.67 672.039 2285.86 672.344 2282.04C654.569 2277.08 642.668 2291.35 657.087 2304.93C645.033 2308.9 636.565 2300.2 626.571 2297.3Z" fill="#BBBE68"/>
<path d="M779.148 2327.82C779.148 2327.82 784.26 2325.99 786.777 2327.82C796.619 2307.98 809.664 2306.61 817.293 2289.67C804.476 2304.09 783.802 2302.49 779.148 2327.82Z" fill="#869C68"/>
<path d="M428.219 2343.07C429.058 2331.78 516.409 2312.33 527.394 2312.56C497.413 2307.07 458.124 2312.86 435.847 2304.93C427.837 2313.25 423.87 2329.95 428.219 2343.07Z" fill="#BACFA2"/>
<path d="M832.551 2442.25C827.821 2444.84 812.182 2450.87 809.664 2449.88C828.431 2458.65 838.501 2470.4 832.551 2495.65C792.575 2450.87 734.443 2439.66 679.973 2434.62C627.028 2470.71 624.587 2527.69 641.828 2587.2C675.624 2585.37 693.018 2618.1 702.859 2640.6C681.041 2646.55 675.929 2671.8 649.457 2663.49C655.56 2594.22 579.5 2534.71 535.023 2579.57C542.881 2600.24 543.873 2620.31 535.023 2640.6C535.023 2640.6 534.489 2644.49 535.023 2648.23C559.894 2645.1 572.939 2648.15 588.426 2663.49C586.747 2652.2 617.797 2634.57 603.684 2617.71C638.166 2618.17 649.762 2666.01 657.086 2694C693.171 2692.86 686.228 2656.85 718.117 2655.86C724.297 2681.11 744.208 2687.75 756.262 2709.26C764.12 2679.43 721.092 2679.74 733.375 2648.23C750.693 2643.73 763.128 2654.72 779.148 2655.86C772.816 2638.92 764.348 2621.45 763.891 2602.46C788.456 2591.7 783.344 2556.15 802.035 2533.8C753.058 2535.86 790.516 2506.64 786.777 2480.39C815.386 2482.07 828.965 2502.59 824.922 2541.43C853.835 2528.84 839.417 2546.61 847.809 2564.31C828.126 2548.98 809.588 2546.16 794.406 2571.94C809.893 2584.99 832.246 2574.31 847.809 2587.2C839.035 2628.62 907.314 2652.88 946.984 2655.86V2495.65C939.356 2495.65 931.727 2495.65 924.098 2495.65C935.465 2448.96 904.568 2423.86 908.84 2381.22C883.817 2398.15 863.829 2425.16 832.551 2442.25Z" fill="#858F57"/>
<path d="M779.148 2655.86C784.717 2670.74 795.932 2689.81 794.406 2709.26C781.665 2709.26 769.002 2709.26 756.261 2709.26C744.208 2687.75 724.296 2681.11 718.117 2655.86C686.228 2656.85 693.17 2692.86 657.085 2694C649.762 2666.01 638.166 2618.17 603.683 2617.71C617.797 2634.57 586.747 2652.2 588.425 2663.49C593.46 2668.45 598.724 2673.48 603.683 2678.75C617.873 2693.62 629.087 2720.78 611.312 2747.41C628.401 2757.25 659.603 2765.79 664.714 2793.18C692.56 2768.69 735.129 2788.98 763.89 2808.44C750.311 2817.44 736.121 2824.61 725.746 2838.95C756.719 2836.59 709.649 2855.97 741.003 2854.21C748.48 2855.43 764.272 2856.27 771.519 2854.21C778.995 2852.07 788.608 2840.02 809.664 2838.95C822.328 2838.34 835.144 2838.95 847.808 2838.95C806.536 2800.66 768.086 2711.93 687.601 2724.52C690.424 2708.8 688.898 2678.52 710.488 2678.75C734.29 2720.25 778.538 2753.05 832.55 2739.78C808.901 2770.67 860.777 2761.75 878.324 2762.66C852.767 2735.05 808.672 2711.78 817.292 2663.49C869.169 2678.52 903.041 2702.78 946.984 2732.15V2655.86C907.314 2652.88 839.035 2628.62 847.808 2587.2C832.245 2574.31 809.892 2584.99 794.406 2571.94C809.587 2546.16 828.126 2548.98 847.808 2564.31C839.416 2546.61 853.835 2528.84 824.921 2541.43C828.965 2502.59 815.385 2482.07 786.777 2480.39C790.515 2506.64 753.057 2535.86 802.035 2533.8C783.344 2556.15 788.455 2591.7 763.89 2602.46C764.348 2621.45 772.816 2638.92 779.148 2655.86Z" fill="#627453"/>
<path d="M412.96 2587.2C426.997 2588.95 445.307 2582.93 458.734 2587.2C456.674 2575.98 443.476 2580.41 435.847 2579.57C439.356 2557.45 431.193 2532.81 435.847 2510.91C436.915 2505.88 440.195 2499.62 443.476 2495.65C413.265 2498.93 434.626 2543.26 428.218 2564.31C412.503 2555.16 395.948 2578.96 412.96 2587.2Z" fill="#B4D3A6"/>
<path d="M306.156 2907.61C313.251 2913.56 311.268 2913.49 313.785 2922.87C342.699 2940.04 372.375 2868.55 399.458 2890.75C426.54 2912.88 439.052 2923.86 473.992 2930.5C498.252 2896.25 492.759 2864.2 466.363 2831.32C507.102 2823.7 518.24 2865.96 512.137 2899.98C591.935 2934.09 543.644 2824.23 596.055 2800.81C571.642 2757.93 609.482 2722.31 603.684 2678.75C598.725 2673.48 593.461 2668.45 588.426 2663.49C572.939 2648.15 559.894 2645.1 535.023 2648.23C548.527 2681.8 504.508 2672.95 512.137 2701.63C551.426 2715.52 553.562 2682.48 573.168 2671.12C564.471 2751.68 462.244 2689.66 412.961 2724.52C411.588 2741.68 412.274 2775.4 428.219 2747.41C420.742 2792.95 437.068 2774.03 458.734 2800.81C433.33 2800.81 407.85 2800.81 382.445 2800.81C368.942 2837.2 319.049 2867.64 275.641 2861.84C277.777 2885.72 296.773 2899.76 306.156 2907.61Z" fill="#D7DC87"/>
<path d="M756.262 2709.26C769.002 2709.26 781.666 2709.26 794.407 2709.26C795.932 2689.81 784.718 2670.73 779.149 2655.86C763.128 2654.71 750.693 2643.73 733.375 2648.23C721.093 2679.74 764.12 2679.43 756.262 2709.26Z" fill="#BEC876"/>
<path d="M847.809 2838.95C855.438 2838.95 863.066 2838.95 870.695 2838.95C896.1 2838.95 921.58 2838.95 946.984 2838.95V2732.15C903.042 2702.78 869.17 2678.52 817.293 2663.49C808.672 2711.78 852.767 2735.05 878.324 2762.66C860.778 2761.75 808.901 2770.67 832.551 2739.78C778.538 2753.05 734.29 2720.25 710.488 2678.75C688.898 2678.52 690.424 2708.8 687.602 2724.52C768.087 2711.93 806.536 2800.66 847.809 2838.95Z" fill="#535043"/>
<path d="M397.704 2716.89C416.852 2656.77 360.322 2698.43 329.044 2686.37C317.6 2714.98 368.714 2706.06 344.301 2732.15C368.79 2737.41 371.384 2706.74 397.704 2716.89Z" fill="#D7DEA4"/>
<path d="M313.785 2922.87C318.438 2940.19 307.071 2959.49 313.785 2976.27C320.193 2992.22 345.597 2987.64 344.3 3006.79C331.026 3006.56 317.904 3010.15 306.156 3014.42C295.247 3023.73 283.956 3029.29 290.898 3052.56C319.201 3060.73 331.484 3020.98 359.558 3044.93C351.09 3054.09 334.459 3057.6 321.414 3060.19C331.865 3066.14 325.915 3070.49 344.3 3075.45C343.156 3075.14 374.282 3075.07 374.816 3075.45C362.762 3057.98 360.703 3041.88 390.074 3014.42C406.552 3025.63 406.247 3048.82 405.332 3067.82C453.623 3087.05 498.709 3081.32 481.621 3014.42C489.25 3014.42 496.879 3014.42 504.507 3014.42C509.466 2968.87 501.456 2910.66 565.539 2915.24C568.972 2930.96 583.772 2948.73 603.683 2945.76C608.108 2937.82 614.059 2936.15 618.941 2930.5C643.048 2902.27 635.801 2910.51 672.343 2899.98C704.461 2890.75 720.329 2863.9 741.004 2854.21C709.649 2855.97 756.719 2836.59 725.746 2838.95C736.121 2824.61 750.311 2817.44 763.89 2808.44C735.129 2788.98 692.56 2768.69 664.714 2793.18C659.603 2765.79 628.401 2757.25 611.312 2747.41C629.087 2720.78 617.873 2693.62 603.683 2678.75C609.481 2722.31 571.642 2757.93 596.054 2800.81C543.644 2824.23 591.935 2934.09 512.136 2899.98C518.239 2865.96 507.101 2823.7 466.363 2831.32C492.759 2864.2 498.252 2896.25 473.992 2930.5C439.051 2923.86 426.54 2912.88 399.457 2890.75C372.375 2868.55 342.698 2940.04 313.785 2922.87ZM649.457 2793.18C623.595 2814.24 673.411 2822.17 649.457 2793.18V2793.18Z" fill="#B2B867"/>
</svg>
