<svg width="1203" height="2490" viewBox="0 0 1203 2490" fill="none" xmlns="http://www.w3.org/2000/svg">
<path d="M42 917.582C69.9218 906.825 100.971 869.062 95.4023 917.582C120.578 906.52 149.186 897.899 148.805 932.84C175.201 910.945 150.102 866.468 141.176 841.293C209.454 815.889 152.619 757.222 164.062 703.973C139.04 707.177 160.553 745.55 133.547 742.117C117.068 712.517 117.908 636.228 156.434 681.086C164.215 631.727 145.753 570.467 171.691 543.766C154.755 538.578 152.238 530.949 133.547 528.508C147.05 507.376 130.266 495.246 125.918 475.105C164.368 498.831 195.646 431.544 247.98 444.59C250.879 489.066 262.628 482.048 273.232 533.772C283.76 585.572 331.746 556.353 303.29 518.972C274.758 481.666 359.973 472.435 324.27 436.961C349.14 435.054 368.288 419.186 392.93 414.074C384.004 395.002 398.423 368.987 392.93 345.414C379.884 347.855 335.865 343.965 347.156 330.156C324.117 303.15 356.387 286.977 370.043 269.125C353.412 229.531 329.762 206.873 301.383 177.578C416.198 214.502 296.119 24.8474 423.445 70.7734C422.682 31.4083 463.039 50.7857 476.848 25H42V917.582ZM347.156 261.496C331.517 302.997 284.447 248.451 347.156 261.496ZM301.383 322.527C296.348 339.235 275.216 351.975 255.609 353.043C260.492 328.096 273.842 316.424 301.383 322.527Z" stroke="#425945" stroke-width="0.3"/>
<path d="M42 917.582V1855.94C56.8001 1862.88 70.0744 1873.71 87.7734 1871.2C80.9074 1846.55 105.625 1835.95 125.918 1840.68C116.992 1807.19 74.2703 1785.22 87.7734 1741.5C90.825 1719.69 107.761 1682.38 125.918 1657.59C171.768 1714.35 214.642 1614.86 278.496 1634.7C268.96 1584.73 311.529 1557.27 301.383 1505.01C251.108 1506.99 204.267 1458.47 209.836 1405.83C172.912 1404.69 176.498 1360.13 141.176 1352.43C154.679 1326.03 127.139 1322.14 141.176 1299.03C119.51 1292.7 105.778 1285.07 87.7734 1276.14C121.646 1252.95 142.091 1205.73 148.805 1154.08C124.468 1142.56 118.365 1107.69 125.918 1085.42C42.3814 1083.82 110.965 980.368 171.691 1016.76C189.085 974.265 171.615 980.902 164.062 940.469C192.137 935.052 198.545 913.081 202.207 887.066C225.857 892.025 248.514 885.312 240.352 856.551C264.917 864.561 268.121 847.015 278.496 833.664C289.329 820.237 298.331 806.124 293.754 787.891C316.335 816.423 345.936 804.903 324.27 848.922C337.696 835.8 362.338 826.417 377.672 818.406C374.163 805.056 370.882 772.404 347.156 787.891C350.513 743.796 316.869 722.969 309.012 681.086C339.375 703.591 344.868 629.286 354.785 665.828C349.597 661.632 377.138 673.838 370.043 673.457C394.684 674.907 378.816 657.665 370.043 650.57C436.033 678.874 433.515 514.089 385.301 543.766C394.989 522.557 362.49 523.32 377.672 505.621C384.538 487.998 414.443 458.78 431.074 452.219C405.212 443.522 423.369 420.33 446.332 429.332C445.722 380.431 424.361 340.226 423.445 292.012C396.21 299.869 373.171 282.704 377.672 253.867C410.247 287.129 373.857 212.29 438.703 238.609C424.742 221.673 394.455 239.449 377.672 223.352C373.018 202.677 406.891 220.758 400.559 192.836C372.713 193.446 386.445 154.615 408.188 154.691C407.272 180.401 435.728 182.232 438.703 208.094C432.447 168.652 475.856 87.9385 514.992 147.062C541.693 139.891 544.745 108.994 553.137 86.0312C584.72 137.221 592.273 51.1671 637.055 78.4023C644.607 104.493 659.331 106.4 659.941 139.434C685.575 136.611 678.098 147.444 690.457 154.691C701.824 157.896 716.777 153.547 728.602 154.691C709.072 134.475 734.018 128.677 759.117 124.176C741.647 90.0746 772.239 64.1363 774.375 25H476.848C463.039 50.7857 422.682 31.4083 423.445 70.7734C296.119 24.8474 416.198 214.502 301.383 177.578C329.762 206.873 353.412 229.531 370.043 269.125C356.387 286.977 324.117 303.15 347.156 330.156C335.865 343.965 379.884 347.855 392.93 345.414C398.423 368.987 384.004 395.002 392.93 414.074C368.288 419.186 349.14 435.054 324.27 436.961C359.973 472.435 274.758 481.666 303.29 518.972C331.746 556.353 283.76 585.572 273.232 533.772C262.628 482.048 250.879 489.066 247.98 444.59C195.646 431.544 164.368 498.831 125.918 475.105C130.266 495.246 147.05 507.376 133.547 528.508C152.238 530.949 154.755 538.578 171.691 543.766C145.753 570.467 164.215 631.727 156.434 681.086C117.908 636.228 117.068 712.517 133.547 742.117C160.553 745.55 139.04 707.177 164.062 703.973C152.619 757.222 209.454 815.889 141.176 841.293C150.102 866.468 175.201 910.945 148.805 932.84C149.186 897.899 120.578 906.52 95.4023 917.582C100.971 869.062 69.9218 906.825 42 917.582ZM385.301 452.219C378.358 504.248 327.092 441.996 385.301 452.219ZM225.094 467.477C268.35 542.926 160.629 569.17 171.691 482.734C197.782 483.726 204.801 475.716 225.094 467.477ZM103.031 932.84C101.429 951.454 90.6724 973.578 72.5156 978.613C76.3301 959.083 80.2208 937.799 103.031 932.84ZM194.578 1436.35C190.001 1483.8 163.223 1448.94 141.176 1443.98C152.238 1429.02 177.795 1439.7 194.578 1436.35Z" stroke="#576B4E" stroke-width="0.3"/>
<path d="M728.601 154.691C743.63 156.141 771.323 171.399 774.375 192.836C816.792 202.296 855.47 165.677 888.808 200.465C889.724 203.135 893.767 207.636 896.437 208.094C905.058 201.304 903.456 187.114 904.066 177.578C873.169 184.292 881.942 136.077 850.664 131.805C886.215 97.7035 874.542 54.3713 843.035 25H774.375C772.239 64.1363 741.647 90.0746 759.117 124.176C734.018 128.677 709.071 134.475 728.601 154.691Z" stroke="#7A8252" stroke-width="0.3"/>
<path d="M896.437 208.094C903.838 209.391 911.848 207.026 919.324 208.094C892.165 218.469 926.343 236.244 942.211 238.609C946.941 265.311 932.522 302.082 949.84 322.527C993.706 298.878 955.027 261.038 972.727 230.98C976.846 222.207 995.232 200.846 1003.24 192.836C1004.77 177.426 997.749 156.141 980.355 169.949C973.184 143.172 1007.67 141.493 1026.13 139.434C1027.88 115.25 1025.75 92.7447 1018.5 70.7734C992.943 105.638 958.689 153.852 904.066 147.062C897.2 94.9571 972.116 94.8808 965.098 40.2578C981.042 45.9795 991.799 47.5053 987.984 25H926.953C907.423 30.4928 896.056 47.7341 873.551 47.8867C873.551 40.2578 873.551 32.6289 873.551 25H843.035C874.543 54.3713 886.215 97.7035 850.664 131.805C881.943 136.077 873.169 184.292 904.066 177.578C903.456 187.114 905.058 201.304 896.437 208.094ZM926.953 70.7734C920.697 129.821 867.371 61.4662 926.953 70.7734Z" stroke="#9D965A" stroke-width="0.3"/>
<path d="M926.953 25H873.551C873.551 32.6289 873.551 40.2578 873.551 47.8867C896.056 47.7341 907.423 30.4928 926.953 25Z" stroke="#B6B9A5" stroke-width="0.3"/>
<path d="M1003.24 192.836C1017.2 178.875 1035.74 168.271 1056.64 169.949C1045.28 205.118 1074.88 216.638 1079.53 246.238C1116.84 254.783 1139.19 228.692 1148.19 200.465C1125.84 197.642 1108.75 175.671 1102.42 154.691C1099.52 145.232 1089.22 130.889 1094.79 116.547C1130.11 104.722 1153.07 159.345 1178.71 139.434C1189.31 133.864 1185.19 124.939 1201.59 124.176C1174.59 105.638 1125.69 67.6456 1132.93 25H987.984C991.799 47.5053 981.042 45.9795 965.098 40.2578C972.116 94.8808 897.2 94.9571 904.066 147.062C958.689 153.852 992.943 105.638 1018.5 70.7734C1025.75 92.7447 1027.88 115.25 1026.13 139.434C1007.67 141.493 973.184 143.172 980.355 169.949C997.749 156.141 1004.77 177.426 1003.24 192.836Z" stroke="#BAB269" stroke-width="0.3"/>
<path d="M431.075 452.219C444.273 447.031 463.116 456.109 476.848 452.219C477.688 444.59 473.263 431.392 484.477 429.332C524.682 394.62 599.903 332.521 652.313 353.043C659.484 331.453 657.959 288.96 621.798 299.64C632.859 283.086 639.115 238.38 606.54 246.238C612.49 229.378 628.969 217.172 621.798 192.836C601.962 208.628 599.597 175.06 606.54 162.32C634.919 173.916 639.344 141.798 659.942 139.433C659.332 106.4 644.608 104.493 637.055 78.4021C592.274 51.1669 584.721 137.221 553.137 86.031C544.746 108.994 541.694 139.891 514.993 147.062C475.857 87.9383 432.448 168.652 438.704 208.094C435.729 182.232 407.273 180.401 408.188 154.691C386.446 154.615 372.714 193.446 400.559 192.836C406.891 220.758 373.019 202.677 377.673 223.351C394.456 239.448 424.743 221.673 438.704 238.609C373.858 212.289 410.248 287.129 377.673 253.867C373.172 282.704 396.211 299.869 423.446 292.011C424.361 340.226 445.722 380.431 446.333 429.332C423.37 420.33 405.213 443.522 431.075 452.219Z" stroke="#748450" stroke-width="0.3"/>
<path d="M926.953 70.7737C920.697 129.821 867.371 61.4664 926.953 70.7737Z" stroke="#B8BC97" stroke-width="0.3"/>
<path d="M484.477 429.332C479.137 448.099 490.58 461.297 499.735 475.105C478.145 494.635 464.489 518.437 469.219 551.394C469.219 560.625 471.355 572.984 469.219 581.91C471.584 588.089 487.071 589.157 492.106 589.539C496.302 607.619 480.434 628.751 461.59 627.683C450.3 660.259 492.64 676.127 514.993 658.199C528.115 675.517 520.562 698.937 522.622 719.23C505.228 686.884 504.236 743.414 484.477 749.746C482.341 752.416 512.857 731.131 522.622 734.488C522.622 754.857 522.622 775.15 522.622 795.519C528.267 809.022 516.671 834.732 545.508 826.035C543.906 896.907 588.688 940.469 560.766 1009.13C621.111 987.92 614.703 904.079 591.282 856.551C589.832 853.346 562.521 843.658 576.024 826.035C585.637 826.645 580.296 841.75 591.282 841.293C623.705 840.225 637.818 866.163 675.2 841.293C675.047 841.293 639.344 801.851 621.798 818.406C608.828 785.449 593.723 752.187 606.54 711.601C615.084 683.832 613.558 674.22 652.313 681.086C654.754 649.426 639.115 622.191 644.684 589.539C677.717 563.219 725.856 519.963 728.602 467.476C759.118 467.476 789.633 467.476 820.149 467.476C823.964 467.476 831.898 466.408 835.407 467.476C842.502 455.575 844.638 419.338 827.778 406.445C776.664 379.439 735.316 454.736 682.829 436.961C682.829 426.814 682.829 416.592 682.829 406.445C671.767 369.063 673.674 346.711 675.2 307.269C711.513 309.329 699.765 370.589 743.86 368.301C724.711 329.393 776.054 301.853 759.118 261.496C734.476 253.943 723.109 238.609 698.087 230.98C716.701 209.162 738.062 196.65 728.602 162.32C716.625 159.345 696.408 169.491 690.458 154.691C678.099 147.444 685.575 136.611 659.942 139.433C639.344 141.798 634.919 173.916 606.54 162.32C599.597 175.06 601.962 208.628 621.798 192.836C628.969 217.172 612.49 229.378 606.54 246.238C639.115 238.38 632.859 283.086 621.798 299.64C657.959 288.96 659.484 331.453 652.313 353.043C599.903 332.521 524.682 394.62 484.477 429.332ZM591.282 520.879C615.542 520.879 608.828 484.031 606.54 459.847C634.462 450.769 639.039 484.031 667.571 475.105C669.707 508.367 621.645 564.592 591.282 536.137C583.729 553.836 587.239 581.3 576.024 597.168C557.867 541.324 521.249 481.819 576.024 436.961C587.086 460.076 590.061 492.499 591.282 520.879ZM522.622 505.621C509.347 528.965 522.24 562.914 492.106 574.281C476.543 550.555 475.399 488.38 522.622 505.621ZM499.735 635.312C508.966 644.543 491.648 667.888 479.29 655.605C466.931 643.323 491.191 626.768 499.735 635.312Z" stroke="#B2AE64" stroke-width="0.3"/>
<path d="M743.859 368.301C747.598 368.682 757.897 366.546 759.117 368.301C785.208 346.177 801.534 324.129 827.777 299.641C841.738 271.337 831.897 231.896 835.406 200.465C853.182 200.465 871.033 200.465 888.809 200.465C855.47 165.677 816.792 202.296 774.375 192.836C771.323 171.399 743.631 156.141 728.602 154.691C716.777 153.547 701.824 157.896 690.457 154.691C696.408 169.491 716.624 159.345 728.602 162.32C738.061 196.65 716.7 209.162 698.086 230.98C723.109 238.609 734.476 253.943 759.117 261.496C776.053 301.853 724.711 329.393 743.859 368.301Z" stroke="#969259" stroke-width="0.3"/>
<path d="M827.777 299.641C838.992 297.581 834.567 284.383 835.406 276.754C874.924 283.849 897.277 257.071 926.953 246.238C922.299 284.001 929.776 316.806 942.211 345.414C971.659 342.515 962.351 296.208 987.984 292.012C982.644 270.727 966.318 256.232 972.727 230.98C955.028 261.038 993.706 298.878 949.84 322.527C932.522 302.082 946.941 265.311 942.211 238.609C926.343 236.244 892.165 218.469 919.324 208.094C911.848 207.026 903.838 209.391 896.438 208.094C893.767 207.636 889.724 203.135 888.809 200.465C871.033 200.465 853.182 200.465 835.406 200.465C831.897 231.896 841.738 271.337 827.777 299.641Z" stroke="#C6C68A" stroke-width="0.3"/>
<path d="M347.157 261.495C331.518 302.997 284.447 248.45 347.157 261.495Z" stroke="#798F4A" stroke-width="0.3"/>
<path d="M682.828 406.445C720.515 417.431 736.078 395.231 759.117 375.93C759.117 375.93 757.21 369.903 759.117 368.301C757.897 366.546 747.598 368.682 743.86 368.301C699.765 370.589 711.513 309.329 675.199 307.27C673.674 346.711 671.766 369.064 682.828 406.445Z" stroke="#CCD28A" stroke-width="0.3"/>
<path d="M301.383 322.527C273.842 316.424 260.492 328.096 255.609 353.042C275.216 351.974 296.348 339.234 301.383 322.527Z" stroke="#5C744B" stroke-width="0.3"/>
<path d="M682.828 406.445C682.828 416.592 682.828 426.814 682.828 436.961C735.315 454.736 776.664 379.439 827.777 406.445C814.808 389.738 785.971 403.089 766.746 398.816C773.078 390.119 759.804 379.668 759.117 375.93C736.078 395.231 720.515 417.431 682.828 406.445Z" stroke="#D6DEBE" stroke-width="0.3"/>
<path d="M431.074 452.219C414.443 458.78 384.538 487.998 377.672 505.621C398.804 516.073 416.198 521.337 438.703 505.621C453.579 521.031 434.965 559.481 469.219 551.395C464.489 518.438 478.145 494.635 499.734 475.105C490.58 461.297 479.136 448.099 484.477 429.332C473.262 431.392 477.687 444.59 476.848 452.219C463.116 456.109 444.272 447.031 431.074 452.219Z" stroke="#959152" stroke-width="0.3"/>
<path d="M591.281 536.137C592.654 532.933 591.129 524.693 591.281 520.879C590.061 492.499 587.085 460.077 576.023 436.961C521.248 481.819 557.867 541.324 576.023 597.168C587.238 581.3 583.729 553.836 591.281 536.137Z" stroke="#979259" stroke-width="0.3"/>
<path d="M385.301 452.219C378.359 504.248 327.092 441.996 385.301 452.219Z" stroke="#76844D" stroke-width="0.3"/>
<path d="M591.281 520.879C591.129 524.693 592.655 532.932 591.281 536.136C621.644 564.592 669.707 508.367 667.57 475.105C639.038 484.031 634.461 450.769 606.539 459.847C608.828 484.031 615.541 520.879 591.281 520.879Z" stroke="#CEDBC1" stroke-width="0.3"/>
<path d="M225.094 467.477C204.801 475.716 197.782 483.726 171.691 482.734C160.63 569.17 268.35 542.926 225.094 467.477Z" stroke="#728863" stroke-width="0.3"/>
<path d="M606.539 711.602C639.038 744.101 678.556 637.525 713.344 650.57C723.49 625.624 685.727 628.675 690.457 604.797C709.072 599.457 716.243 576.265 728.602 559.023C763.695 571.459 772.239 636.991 720.973 627.684C707.622 670.787 771.857 657.97 766.746 696.344C817.173 639.127 783.682 549.258 782.004 475.105C795.583 481.743 811.68 469.079 820.148 467.477C789.633 467.477 759.117 467.477 728.602 467.477C725.855 519.963 677.717 563.219 644.684 589.539C639.114 622.191 654.754 649.426 652.312 681.086C613.558 674.22 615.083 683.832 606.539 711.602Z" stroke="#D5E7D8" stroke-width="0.3"/>
<path d="M370.043 673.457C370.348 683.222 354.938 690.393 347.156 688.715C347.995 681.086 343.571 667.888 354.785 665.828C344.868 629.286 339.375 703.591 309.012 681.086C316.869 722.969 350.513 743.796 347.156 787.891C370.882 772.404 374.163 805.056 377.672 818.406C362.338 826.417 337.696 835.8 324.27 848.922C345.936 804.903 316.335 816.423 293.754 787.891C298.331 806.124 289.329 820.237 278.496 833.664C286.125 833.664 293.754 833.664 301.383 833.664C305.808 863.875 293.449 890.881 301.383 917.582C261.941 907.817 256.983 958.168 255.609 986.242C260.492 968.162 294.898 972.968 293.754 993.871C330.678 979.834 336.171 991.048 377.672 970.984C377.672 978.613 377.672 986.242 377.672 993.871C378.053 995.015 389.192 994.329 392.93 993.871C407.959 982.123 412.002 951.836 431.074 940.469C390.488 926.966 445.264 899.196 408.187 879.438C429.548 876.31 444.806 878.446 438.703 848.922C470.21 869.444 435.88 840.378 443.357 812.685C450.757 784.915 437.788 772.022 431.074 757.375C416.579 774.235 394.989 783.618 385.301 749.746C440.305 717.705 439.39 627.378 469.219 581.91C471.355 572.984 469.219 560.626 469.219 551.395C434.965 559.481 453.579 521.031 438.703 505.621C416.198 521.337 398.804 516.073 377.672 505.621C362.49 523.32 394.989 522.557 385.301 543.766C433.515 514.089 436.033 678.874 370.043 650.57C378.816 657.665 394.684 674.907 370.043 673.457Z" stroke="#747D52" stroke-width="0.3"/>
<path d="M522.622 505.621C475.399 488.379 476.543 550.555 492.106 574.281C522.24 562.914 509.347 528.965 522.622 505.621Z" stroke="#C9CFA9" stroke-width="0.3"/>
<path d="M606.539 711.602C593.722 752.187 608.827 785.449 621.796 818.406C639.343 801.852 675.046 841.293 675.199 841.293C682.828 841.293 690.457 841.293 698.085 841.293C700.45 809.633 696.56 779.117 690.457 749.746C726.999 755.086 747.139 718.01 766.746 696.344C771.857 657.97 707.622 670.787 720.972 627.684C772.238 636.991 763.694 571.459 728.601 559.023C716.242 576.265 709.071 599.457 690.457 604.797C685.727 628.675 723.49 625.624 713.343 650.57C678.555 637.525 639.038 744.101 606.539 711.602Z" stroke="#D3D386" stroke-width="0.3"/>
<path d="M392.93 993.871C407.959 991.964 423.598 995.244 438.703 993.871C431.379 1024.46 415.206 1050.25 377.672 1039.64C373.857 1063.75 351.2 1061.31 347.156 1085.42C314.581 1061.54 343.876 999.364 377.672 993.871C377.672 986.242 377.672 978.613 377.672 970.984C336.171 991.048 330.678 979.834 293.754 993.871C294.898 972.968 260.492 968.162 255.609 986.242C256.983 958.168 261.941 907.817 301.383 917.582C293.449 890.881 305.808 863.875 301.383 833.664C293.754 833.664 286.125 833.664 278.496 833.664C268.121 847.015 264.917 864.561 240.352 856.551C248.515 885.312 225.857 892.025 202.207 887.066C198.545 913.081 192.137 935.052 164.063 940.469C171.615 980.902 189.085 974.265 171.691 1016.76C110.965 980.368 42.3815 1083.82 125.918 1085.42C118.365 1107.69 124.469 1142.56 148.805 1154.08C142.091 1205.73 121.646 1252.95 87.7735 1276.14C105.778 1285.07 119.51 1292.7 141.176 1299.03C127.139 1322.14 154.679 1326.03 141.176 1352.43C176.498 1360.13 172.912 1404.69 209.836 1405.83C204.267 1458.47 251.108 1506.99 301.383 1505.01C311.529 1557.27 268.96 1584.73 278.496 1634.7C214.642 1614.86 171.768 1714.35 125.918 1657.59C107.761 1682.38 90.825 1719.69 87.7735 1741.5C90.0621 1737.61 130.572 1734.79 118.289 1710.99C143.541 1707.56 165.054 1707.33 186.949 1703.36C169.555 1725.33 193.358 1731.13 164.063 1749.13C205.03 1753.94 217.16 1803.91 202.207 1840.68C212.582 1815.58 234.325 1838.01 255.609 1833.05C249.354 1870.51 263.62 1906.44 255.609 1947.48C229.442 1944.81 234.325 1972.51 225.094 1993.26C254.999 2003.63 276.055 2010.8 278.496 2039.03C250.04 2038.34 235.545 2018.66 209.836 2016.14C203.962 2044.98 213.422 2066.5 240.352 2077.18C221.966 2132.18 296.043 2171.7 309.012 2107.69C342.503 2140.65 409.103 2170.48 400.559 2222.12C414.062 2260.42 422.988 2282.16 431.074 2321.3C476.924 2333.96 472.423 2289.49 514.992 2290.79C522.621 2319.47 478.602 2310.62 492.106 2344.19C476.466 2374.86 473.262 2411.47 446.332 2428.11C442.365 2451.07 483.027 2450.69 461.59 2473.88C501.947 2455.95 551.764 2476.63 576.023 2489.14C574.193 2465.41 601.275 2456.71 591.281 2428.11C576.634 2437.87 551.077 2408.5 553.137 2389.96C575.108 2400.34 597.613 2413.69 614.168 2435.73C627.9 2440.31 645.828 2432.3 659.941 2435.73C622.941 2413.69 680.921 2387.75 667.57 2351.82C664.061 2349.45 670.393 2332.36 667.57 2328.93C653.762 2327.86 636.444 2332.29 629.426 2344.19C622.102 2353.34 627.824 2381.11 614.168 2389.96C565.648 2379.89 564.504 2317.56 591.281 2283.16C563.436 2286.13 568.776 2231.51 545.508 2267.9C543.295 2237.54 497.675 2242.19 499.734 2206.87C499.429 2206.71 484.019 2198.78 484.477 2199.24C449.536 2193.06 451.215 2211.6 431.074 2229.75C447.324 2180.47 419.631 2192.22 392.93 2168.72C431.685 2158.12 428.862 2111.58 438.703 2077.18C420.012 2068.71 397.812 2063.29 385.301 2046.66C372.027 2059.25 382.86 2083.97 362.414 2092.43C385.987 2091.21 399.338 2086.03 423.445 2084.8C434.889 2128.29 384.233 2125.47 362.414 2145.84C354.709 2126.99 327.321 2114.48 354.785 2092.43C322.82 2085.49 302.832 2096.1 286.125 2122.95C265.374 2103.88 279.869 2046.66 301.383 2031.4C316.412 2041.85 299.399 2079.01 331.898 2069.55C336.476 2045.9 321.447 2003.02 354.785 2008.52C343.8 1980.36 347.69 1947.87 347.156 1916.97C311.682 1919.79 322.973 1974.8 309.012 2000.89C289.1 1974.03 267.892 1936.12 288.109 1903.69C308.249 1871.2 269.265 1792.31 339.527 1810.16C350.284 1772.93 304.511 1771.18 278.496 1772.02C267.587 1741.43 295.051 1745.7 309.012 1733.88C296.653 1637.37 349.521 1578.4 354.785 1489.75C360.583 1482.5 370.348 1480.44 377.672 1474.49C382.326 1470.75 382.86 1449.32 400.559 1459.23C406.051 1402.48 370.196 1385.46 377.672 1329.54C356.311 1345.03 342.35 1365.48 309.012 1367.69C309.851 1326.19 269.113 1320.08 270.867 1283.77C205.487 1295.44 282.845 1358.69 293.754 1390.57C275.445 1402.48 255.381 1408.81 232.723 1405.83C238.368 1372.49 204.267 1348.16 171.691 1352.43C220.288 1317.64 205.945 1248.45 225.094 1199.85C183.821 1208.55 181.99 1191.54 179.32 1161.71C219.982 1174.83 220.135 1133.56 232.723 1108.3C260.644 1117.61 268.731 1093.89 278.496 1077.79C317.404 1084.43 301.154 1136.84 270.867 1138.82C241.343 1216.71 321.523 1219.99 331.898 1276.14C348.911 1272.17 360.354 1287.89 377.672 1283.77C374.773 1272.25 374.086 1241.66 377.672 1230.37C351.505 1233.19 242.259 1160.49 331.898 1154.08C324.804 1180.93 407.196 1223.5 397.812 1186.88C388.505 1150.26 331.212 1142.25 339.527 1100.68C365.847 1104.72 392.625 1098.01 408.188 1077.79C413.223 1071.84 404.373 1054.22 408.188 1047.27C415.816 1048.11 429.014 1043.69 431.074 1054.9C443.281 1038.88 441.755 1022.48 469.219 1024.39C468.99 1024.39 469.219 1016.76 469.219 1016.76C462.887 984.03 513.161 992.956 514.992 963.355C516.747 933.832 499.429 913.234 469.219 917.582C463.802 865.858 533.302 862.578 514.992 803.148C492.258 823.06 498.972 795.52 492.106 787.891C488.672 784.076 473.491 790.942 469.219 787.891C473.491 775.684 473.033 757.146 484.477 749.746C504.235 743.414 505.227 686.884 522.621 719.23C520.561 698.938 528.114 675.517 514.992 658.199C492.64 676.127 450.299 660.259 461.59 627.684C480.433 628.752 496.301 607.62 492.106 589.539C487.07 589.158 471.584 588.09 469.219 581.91C439.39 627.378 440.305 717.705 385.301 749.746C394.99 783.618 416.579 774.235 431.074 757.375C437.788 772.022 450.757 784.915 443.357 812.685C435.88 840.378 470.211 869.444 438.703 848.922C444.806 878.446 429.548 876.31 408.188 879.438C445.264 899.196 390.488 926.966 431.074 940.469C412.002 951.836 407.959 982.123 392.93 993.871ZM438.703 696.344C452.206 752.798 399.491 721.595 438.703 696.344ZM553.137 2283.16C571.751 2339 521.248 2365.55 522.621 2412.85C498.285 2417.73 475.017 2399.5 476.848 2374.7C505.151 2356.62 513.39 2300.7 553.137 2283.16Z" stroke="#899056" stroke-width="0.3"/>
<path d="M499.734 635.313C491.19 626.768 466.93 643.323 479.288 655.606C491.647 667.888 508.965 644.544 499.734 635.313Z" stroke="#C7CEAD" stroke-width="0.3"/>
<path d="M370.043 673.457C377.138 673.839 349.598 661.632 354.786 665.828C343.571 667.888 347.996 681.086 347.157 688.715C354.938 690.393 370.349 683.222 370.043 673.457Z" stroke="#7C9983" stroke-width="0.3"/>
<path d="M438.703 696.344C452.206 752.798 399.49 721.595 438.703 696.344Z" stroke="#9BB398" stroke-width="0.3"/>
<path d="M850.664 711.601C812.901 704.506 762.321 727.469 774.375 772.633C814.351 783.16 862.718 758.443 850.664 711.601Z" stroke="#DAE3AB" stroke-width="0.3"/>
<path d="M484.477 749.747C473.033 757.147 473.491 775.685 469.219 787.891C473.491 790.943 488.672 784.077 492.105 787.891C489.741 771.489 492.792 749.899 514.992 757.376C510.491 772.252 518.349 785.374 522.621 795.52C522.621 775.151 522.621 754.858 522.621 734.489C512.856 731.132 482.34 752.417 484.477 749.747Z" stroke="#AFC0A7" stroke-width="0.3"/>
<path d="M591.281 856.551C590.747 852.813 592.731 844.497 591.281 841.293C580.296 841.751 585.636 826.645 576.023 826.035C562.52 843.658 589.832 853.347 591.281 856.551Z" stroke="#AFC3AB" stroke-width="0.3"/>
<path d="M103.031 932.84C80.2208 937.799 76.3301 959.083 72.5156 978.613C90.6724 973.578 101.429 951.454 103.031 932.84Z" stroke="#72884F" stroke-width="0.3"/>
<path d="M377.672 1039.64C379.122 1030.26 371.874 1000.74 377.672 993.871C343.876 999.364 314.581 1061.54 347.157 1085.42C351.2 1061.31 373.858 1063.75 377.672 1039.64Z" stroke="#BAC063" stroke-width="0.3"/>
<path d="M377.672 1039.64C415.206 1050.25 431.38 1024.46 438.703 993.871C423.598 995.244 407.959 991.963 392.93 993.871C389.192 994.328 378.054 995.015 377.672 993.871C371.874 1000.74 379.122 1030.26 377.672 1039.64Z" stroke="#9AAD91" stroke-width="0.3"/>
<path d="M469.219 1024.39C504.998 1027.59 532.615 1022.94 560.766 1039.64C540.015 1094.04 488.291 1066.27 461.59 1085.42C480.357 1081.37 500.726 1089.84 507.363 1108.3C522.697 1088.16 566.716 1082.44 568.166 1047.5C569.615 1012.56 494.547 1014.47 469.219 1016.76C469.219 1016.76 468.99 1024.39 469.219 1024.39Z" stroke="#C8DCB7" stroke-width="0.3"/>
<path d="M431.074 1054.9C423.522 1064.82 417.495 1070.39 408.187 1077.79C392.625 1098.01 365.847 1104.72 339.527 1100.68C331.212 1142.25 388.505 1150.26 397.812 1186.88C407.196 1223.5 324.804 1180.93 331.898 1154.08C242.259 1160.49 351.505 1233.19 377.672 1230.37C382.478 1215.11 413.909 1194.97 431.074 1199.85C426.421 1224.03 449.46 1246.46 431.074 1268.51C452.511 1287.35 453.732 1264.39 476.848 1276.14C479.899 1277.67 484.477 1276.14 484.477 1276.14C509.728 1259.2 520.104 1236.24 560.766 1238C557.79 1278.35 587.772 1315.96 621.797 1321.91C634.613 1261.42 591.358 1196.72 530.25 1207.48C534.064 1174.98 521.858 1132.87 484.477 1138.82C485.163 1123.49 498.514 1119.9 507.363 1108.3C500.726 1089.84 480.357 1081.37 461.59 1085.42C488.291 1066.27 540.015 1094.04 560.766 1039.64C532.615 1022.94 504.998 1027.59 469.219 1024.39C441.755 1022.48 443.28 1038.88 431.074 1054.9ZM492.105 1238C478.602 1226.63 499.811 1202.98 492.105 1184.59C503.32 1194.74 505.151 1228.38 492.105 1238Z" stroke="#D2D789" stroke-width="0.3"/>
<path d="M408.188 1077.79C417.495 1070.39 423.522 1064.82 431.075 1054.9C429.015 1043.69 415.817 1048.11 408.188 1047.27C404.374 1054.22 413.223 1071.84 408.188 1077.79Z" stroke="#A1B899" stroke-width="0.3"/>
<path d="M377.672 1474.49C402.313 1469.15 407.882 1479.68 423.445 1489.75C443.433 1502.64 453.198 1523.09 484.477 1512.64C459.072 1528.43 484.477 1580.99 453.961 1588.93C462.887 1569.85 448.468 1543.84 453.961 1520.27C441.221 1520.27 428.557 1520.27 415.816 1520.27C396.286 1513.32 375.994 1501.35 354.785 1489.75C349.521 1578.4 296.653 1637.37 309.012 1733.88C295.051 1745.7 267.587 1741.43 278.496 1772.02C304.511 1771.18 350.284 1772.93 339.527 1810.16C269.265 1792.31 308.249 1871.2 288.109 1903.69C267.892 1936.12 289.1 1974.03 309.012 2000.89C322.973 1974.8 311.682 1919.79 347.156 1916.97C347.69 1947.87 343.8 1980.36 354.785 2008.52C321.447 2003.02 336.476 2045.9 331.898 2069.55C299.399 2079.01 316.412 2041.85 301.383 2031.4C279.869 2046.66 265.374 2103.88 286.125 2122.95C302.832 2096.1 322.82 2085.49 354.785 2092.43C327.321 2114.48 354.709 2126.99 362.414 2145.84C384.233 2125.47 434.889 2128.29 423.445 2084.8C399.338 2086.03 385.987 2091.21 362.414 2092.43C382.86 2083.97 372.026 2059.25 385.301 2046.66C397.812 2063.29 420.012 2068.71 438.703 2077.18C428.862 2111.58 431.685 2158.12 392.93 2168.72C419.631 2192.22 447.324 2180.47 431.074 2229.75C451.215 2211.6 449.536 2193.06 484.477 2199.24C481.425 2195.96 482.417 2180.17 476.848 2176.35C459.53 2202.21 421.157 2168.57 431.074 2138.21C448.01 2133.55 484.782 2150.57 484.477 2122.95C458.309 2076.72 399.872 2017.59 438.703 1947.48C454.876 1991.2 459.759 1937.03 469.219 1916.97C460.446 1914.83 459.149 1894.01 453.961 1886.45C453.961 1886.45 447.4 1888.21 446.332 1886.45C434.965 1868.37 366.534 1907.36 377.672 1840.68C409.484 1851.59 449.765 1804.37 469.219 1833.05C495.538 1823.44 477.153 1825.19 492.105 1810.16C489.054 1809.86 477.305 1795.9 469.219 1802.54C471.507 1783.39 453.274 1766.6 469.219 1749.13C460.14 1750.28 450.07 1744.56 453.961 1733.88C466.701 1731.82 496.072 1740.89 492.105 1718.62C471.736 1718.62 451.443 1718.62 431.074 1718.62C431.074 1726.25 431.074 1733.88 431.074 1741.5C425.734 1751.27 435.118 1769.12 431.074 1779.65C393.845 1797.81 343.8 1726.63 400.559 1726.25C410.934 1717.78 429.625 1716.86 423.445 1695.73C400.635 1702.44 391.251 1675.82 392.93 1657.59C423.445 1670.33 416.656 1635.69 438.703 1634.7C433.515 1657.97 463.726 1661.71 453.961 1688.1C454.648 1686.27 460.598 1666.66 461.59 1665.21C467.464 1656.37 474.101 1658.43 484.477 1657.59C495.31 1652.78 504.388 1628.82 522.621 1634.7C522.621 1642.33 522.621 1649.96 522.621 1657.59C530.25 1677.04 515.755 1693.98 522.621 1710.99C542.38 1721.97 550.314 1744.17 583.652 1733.88C575.489 1707.78 567.708 1708.78 560.766 1680.47C555.807 1660.33 556.036 1648.28 568.395 1627.07C543.677 1607.39 523.079 1627.6 497.827 1613.34C472.652 1599.07 512.551 1553.53 484.477 1535.52C493.326 1526.29 510.644 1525.83 507.363 1543.15C509.805 1532.93 541.77 1507.45 545.508 1497.38C527.732 1500.43 524.757 1481.97 522.621 1474.49C513.619 1468.47 496.835 1474.64 492.105 1459.23C494.394 1489.52 468.456 1469.38 453.961 1482.12C449.231 1458.24 418.334 1447.79 423.445 1421.09C456.173 1423.84 460.522 1401.33 492.105 1398.2C485.773 1392.56 483.943 1368.53 469.219 1367.69C478.755 1355.33 498.437 1349.68 507.363 1337.17C480.128 1342.74 494.623 1311.77 461.59 1321.91C462.2 1306.05 456.326 1281.63 476.848 1276.14C453.732 1264.39 452.511 1287.36 431.074 1268.51C423.14 1286.13 400.559 1301.7 377.672 1306.66C377.672 1299.03 377.672 1291.4 377.672 1283.77C360.354 1287.89 348.911 1272.17 331.898 1276.14C321.523 1219.99 241.343 1216.71 270.867 1138.82C301.154 1136.84 317.404 1084.43 278.496 1077.79C268.731 1093.89 260.644 1117.61 232.723 1108.3C220.135 1133.56 219.982 1174.83 179.32 1161.71C181.99 1191.54 183.821 1208.55 225.094 1199.85C205.945 1248.45 220.288 1317.64 171.691 1352.43C204.267 1348.16 238.368 1372.49 232.723 1405.83C255.381 1408.81 275.445 1402.48 293.754 1390.57C282.845 1358.69 205.487 1295.44 270.867 1283.77C269.113 1320.08 309.851 1326.19 309.012 1367.69C342.35 1365.48 356.311 1345.03 377.672 1329.54C370.196 1385.46 406.051 1402.48 400.559 1459.23C382.86 1449.32 382.326 1470.75 377.672 1474.49ZM453.961 1314.29C454.571 1339.92 434.66 1366.39 408.188 1367.69C401.474 1333.05 439.313 1333.51 453.961 1314.29ZM392.93 1535.52C401.245 1598.31 328.389 1539.57 392.93 1535.52ZM400.559 1550.78C479.518 1557.95 392.472 1636.76 400.559 1550.78ZM354.785 1817.79C356.311 1848.77 381.944 1908.65 324.27 1894.08C335.255 1866.47 301.841 1856.55 301.383 1833.05C320.608 1833.51 337.468 1824.81 354.785 1817.79ZM408.188 1947.48C420.089 2000.66 367.983 1956.56 408.188 1947.48Z" stroke="#AFB162" stroke-width="0.3"/>
<path d="M591.281 1093.05C580.448 1100.14 566.106 1135.69 560.766 1154.08C610.582 1168.73 670.164 1140.96 690.457 1108.3C674.207 1092.44 615.541 1081.68 591.281 1093.05Z" stroke="#D8DF98" stroke-width="0.3"/>
<path d="M606.539 1176.96C650.177 1179.86 662.154 1140.88 705.715 1146.45C698.315 1178.87 711.284 1203.36 743.86 1207.48C720.973 1233.88 771.476 1224.87 751.489 1253.25C762.627 1248.45 775.977 1236.24 774.375 1222.74C742.563 1224.65 748.513 1219.99 759.118 1199.85C711.208 1191.54 717.082 1134.32 690.457 1108.3C670.164 1140.96 610.583 1168.73 560.766 1154.08C566.106 1135.69 580.449 1100.14 591.282 1093.05C537.803 1118.07 549.78 1173.15 606.539 1176.96Z" stroke="#C8E1C1" stroke-width="0.3"/>
<path d="M606.539 1176.97C606.539 1187.11 606.539 1197.33 606.539 1207.48C634.613 1202.14 663.222 1199.85 690.457 1192.22C668.333 1225.94 706.707 1225.64 705.715 1253.25C720.057 1250.2 737.451 1257.37 751.488 1253.25C771.476 1224.87 720.973 1233.88 743.859 1207.48C711.284 1203.36 698.315 1178.87 705.715 1146.45C662.154 1140.88 650.176 1179.86 606.539 1176.97Z" stroke="#D9E3A7" stroke-width="0.3"/>
<path d="M492.106 1238C505.151 1228.38 503.32 1194.74 492.106 1184.59C499.811 1202.98 478.603 1226.63 492.106 1238Z" stroke="#C6DFCC" stroke-width="0.3"/>
<path d="M377.672 1230.37C374.086 1241.66 374.773 1272.25 377.672 1283.77C377.672 1291.4 377.672 1299.03 377.672 1306.66C400.559 1301.7 423.14 1286.14 431.074 1268.51C449.46 1246.47 426.421 1224.04 431.074 1199.85C413.909 1194.97 382.478 1215.11 377.672 1230.37Z" stroke="#ABD5CE" stroke-width="0.3"/>
<path d="M469.219 1367.69C486.994 1367.69 504.846 1367.69 522.621 1367.69C533.53 1330.99 497.675 1317.79 469.219 1314.29C466.243 1297.04 471.355 1284.15 484.477 1276.14C484.477 1276.14 479.899 1277.67 476.848 1276.14C456.326 1281.63 462.2 1306.05 461.59 1321.91C494.623 1311.77 480.128 1342.74 507.363 1337.17C498.437 1349.68 478.755 1355.33 469.219 1367.69Z" stroke="#AEC7B1" stroke-width="0.3"/>
<path d="M453.96 1314.29C439.313 1333.51 401.474 1333.05 408.187 1367.69C434.659 1366.39 454.571 1339.92 453.96 1314.29Z" stroke="#A8C4B0" stroke-width="0.3"/>
<path d="M522.621 1474.49C515.374 1448.55 521.553 1427.57 507.364 1405.83C505.151 1404.23 492.716 1398.74 492.106 1398.2C460.522 1401.33 456.174 1423.84 423.446 1421.09C418.334 1447.79 449.231 1458.24 453.961 1482.12C468.456 1469.38 494.395 1489.52 492.106 1459.23C496.836 1474.64 513.619 1468.47 522.621 1474.49Z" stroke="#D5D882" stroke-width="0.3"/>
<path d="M522.621 1474.49C524.757 1481.97 527.732 1500.43 545.508 1497.38C547.491 1492.04 527.885 1421.01 507.363 1405.83C521.553 1427.57 515.374 1448.55 522.621 1474.49Z" stroke="#B6CAA4" stroke-width="0.3"/>
<path d="M194.578 1436.35C177.795 1439.7 152.238 1429.02 141.176 1443.98C163.223 1448.93 190.001 1483.8 194.578 1436.35Z" stroke="#77874F" stroke-width="0.3"/>
<path d="M354.785 1489.75C375.994 1501.35 396.286 1513.32 415.816 1520.27C413.528 1518.97 416.961 1489.14 400.253 1497.68C383.546 1506.23 378.74 1492.19 377.672 1482.12C393.845 1481.66 409.942 1480.44 423.445 1489.75C407.882 1479.68 402.313 1469.15 377.672 1474.49C370.348 1480.44 360.583 1482.5 354.785 1489.75Z" stroke="#A8B693" stroke-width="0.3"/>
<path d="M415.816 1520.27C428.557 1520.27 441.221 1520.27 453.961 1520.27C448.468 1543.84 462.887 1569.85 453.961 1588.93C484.477 1580.99 459.072 1528.43 484.477 1512.64C453.198 1523.09 443.433 1502.64 423.445 1489.75C409.942 1480.44 393.845 1481.66 377.672 1482.12C378.74 1492.19 383.546 1506.23 400.253 1497.68C416.961 1489.14 413.528 1518.97 415.816 1520.27Z" stroke="#ABCCBC" stroke-width="0.3"/>
<path d="M507.363 1543.15C510.644 1525.83 493.326 1526.29 484.477 1535.52C512.551 1553.53 472.652 1599.07 497.827 1613.34C523.079 1627.6 543.677 1607.39 568.395 1627.07C556.036 1648.28 555.807 1660.33 560.766 1680.47C574.65 1642.25 622.789 1617.46 667.57 1619.44C668.409 1551.93 605.013 1620.51 568.395 1604.18C577.702 1575.96 602.801 1561.69 591.281 1520.27C560.918 1545.14 552.679 1545.29 537.65 1588.7C522.697 1632.11 498.209 1581.37 507.363 1543.15Z" stroke="#9FAD83" stroke-width="0.3"/>
<path d="M392.93 1535.52C401.245 1598.31 328.389 1539.57 392.93 1535.52Z" stroke="#A8BA97" stroke-width="0.3"/>
<path d="M400.559 1550.78C479.518 1557.95 392.472 1636.76 400.559 1550.78Z" stroke="#AACAAD" stroke-width="0.3"/>
<path d="M400.559 1726.25C406.128 1727.01 417.038 1753.71 431.075 1741.5C431.075 1733.88 431.075 1726.25 431.075 1718.62C451.444 1718.62 471.737 1718.62 492.106 1718.62C483.943 1702.9 460.675 1714.57 446.333 1710.99C439.772 1706.33 453.58 1686.88 453.961 1688.1C463.726 1661.71 433.516 1657.97 438.704 1634.7C416.656 1635.69 423.446 1670.33 392.93 1657.59C391.252 1675.82 400.635 1702.44 423.446 1695.73C429.625 1716.86 410.934 1717.78 400.559 1726.25Z" stroke="#ABC5AE" stroke-width="0.3"/>
<path d="M484.477 1657.59C492.563 1656.9 515.679 1653.85 522.621 1657.59C522.621 1649.96 522.621 1642.33 522.621 1634.7C504.388 1628.82 495.31 1652.78 484.477 1657.59Z" stroke="#A5C1BA" stroke-width="0.3"/>
<path d="M461.591 1665.22C461.362 1665.83 517.205 1706.41 522.622 1710.99C515.756 1693.98 530.251 1677.04 522.622 1657.59C515.679 1653.85 492.564 1656.9 484.477 1657.59C474.102 1658.43 467.465 1656.37 461.591 1665.22Z" stroke="#A0B18C" stroke-width="0.3"/>
<path d="M87.7734 1741.5C74.2703 1785.22 116.992 1807.19 125.918 1840.68C105.625 1835.95 80.9074 1846.55 87.7734 1871.2C70.0744 1873.71 56.8001 1862.88 42 1855.94V1939.86C113.559 1921.85 121.569 1899.04 187.712 1879.51C253.855 1860.06 245.844 1966.79 164.062 1947.48C155.976 1971.21 154.374 1983.26 133.547 1993.26C186.263 1983.57 217.389 2009.58 202.207 2069.55C243.937 2067.56 222.118 2128.98 240.352 2153.46C227.611 2153.46 214.947 2153.46 202.207 2153.46C201.673 2155.75 196.18 2171.77 194.578 2176.35C205.106 2171.55 221.661 2179.94 232.723 2176.35C256.449 2213.28 252.71 2250.5 248.133 2290.94C243.632 2331.45 202.894 2357.84 240.352 2382.33C239.818 2358.3 278.496 2373.56 278.496 2344.19C302.375 2319.85 342.274 2294.14 362.414 2260.27C376.299 2256.07 381.257 2273.62 392.93 2275.53C377.214 2238.22 348.758 2203.82 362.414 2161.09C375.078 2190.69 396.058 2185.74 400.559 2222.12C409.103 2170.48 342.503 2140.65 309.012 2107.69C296.043 2171.7 221.966 2132.18 240.352 2077.18C213.422 2066.5 203.962 2044.98 209.836 2016.14C235.545 2018.66 250.04 2038.34 278.496 2039.03C276.055 2010.8 254.999 2003.63 225.094 1993.26C234.325 1972.51 229.442 1944.81 255.609 1947.48C263.62 1906.44 249.354 1870.51 255.609 1833.05C234.325 1838.01 212.582 1815.58 202.207 1840.68C217.16 1803.91 205.03 1753.94 164.062 1749.13C193.357 1731.13 169.555 1725.33 186.949 1703.36C165.054 1707.33 143.541 1707.56 118.289 1710.99C130.572 1734.79 90.0621 1737.61 87.7734 1741.5Z" stroke="#6B7954" stroke-width="0.3"/>
<path d="M431.074 1741.5C417.037 1753.71 406.128 1727.01 400.559 1726.25C343.8 1726.63 393.845 1797.81 431.074 1779.65C435.118 1769.12 425.734 1751.27 431.074 1741.5Z" stroke="#D5DE7F" stroke-width="0.3"/>
<path d="M492.105 1810.16C489.359 1812.91 512.017 1801.77 507.363 1802.53C511.559 1780.79 465.938 1783.31 476.848 1756.76C515.374 1747.07 512.932 1783.69 545.508 1779.65C545.508 1769.5 545.508 1759.28 545.508 1749.13C521.706 1743.79 492.487 1756.3 469.219 1749.13C453.274 1766.6 471.507 1783.39 469.219 1802.53C477.305 1795.9 489.054 1809.86 492.105 1810.16Z" stroke="#A7BFA2" stroke-width="0.3"/>
<path d="M507.363 1802.53C533.683 1798.03 541.77 1809.55 545.508 1779.65C512.932 1783.69 515.374 1747.07 476.848 1756.76C465.938 1783.31 511.559 1780.79 507.363 1802.53Z" stroke="#A9B273" stroke-width="0.3"/>
<path d="M354.785 1817.79C337.468 1824.81 320.608 1833.51 301.383 1833.05C301.841 1856.55 335.255 1866.47 324.27 1894.08C381.944 1908.65 356.311 1848.77 354.785 1817.79Z" stroke="#D5DB76" stroke-width="0.3"/>
<path d="M446.332 1886.45C452.13 1857.39 428.786 1864.63 415.817 1878.82C399.033 1832.59 450.605 1839.84 469.219 1833.05C449.765 1804.37 409.485 1851.59 377.672 1840.68C366.534 1907.36 434.965 1868.37 446.332 1886.45Z" stroke="#A5C6AC" stroke-width="0.3"/>
<path d="M42 1939.86V2351.82C54.8166 2337.55 67.1754 2355.78 80.1445 2344.19C68.93 2376.38 115.466 2378.67 103.031 2412.85C128.283 2404.99 137.59 2422.61 156.434 2428.11C153.763 2399.04 159.104 2411.78 164.062 2382.33C154.45 2359.83 145.829 2311.77 179.32 2306.04C179.244 2293.76 183.821 2272.25 164.062 2275.53C154.526 2255.46 142.473 2247.07 156.434 2222.13C124.621 2261.11 185.957 2360.29 80.1445 2336.56C100.285 2315.5 88.46 2294.52 72.5156 2275.53C102.65 2264.31 104.938 2209.69 148.805 2214.5C148.805 2176.35 148.805 2138.21 148.805 2100.06C171.997 2167.43 147.05 2059.48 202.207 2084.81C202.207 2107.69 202.207 2130.58 202.207 2153.47C214.947 2153.47 227.611 2153.47 240.352 2153.47C222.118 2128.98 243.937 2067.56 202.207 2069.55C217.389 2009.58 186.263 1983.57 133.547 1993.26C154.374 1983.26 155.976 1971.21 164.062 1947.49C245.844 1966.79 253.855 1860.06 187.712 1879.51C121.569 1899.04 113.559 1921.85 42 1939.86Z" stroke="#5A664F" stroke-width="0.3"/>
<path d="M476.847 1909.34C475.321 1909.49 470.363 1914.91 469.218 1916.97C459.758 1937.03 454.876 1991.2 438.703 1947.48C399.872 2017.59 458.309 2076.72 484.476 2122.95C484.781 2150.57 448.01 2133.55 431.074 2138.21C421.156 2168.57 459.53 2202.21 476.847 2176.35C482.416 2180.17 481.425 2195.96 484.476 2199.24C484.018 2198.78 499.429 2206.71 499.734 2206.87C525.062 2222.74 539.175 2248.6 568.394 2222.12C589.221 2265.3 626.297 2308.87 606.539 2351.82C613.71 2347.47 620.423 2343.04 629.425 2344.19C636.444 2332.29 653.762 2327.86 667.57 2328.93C670.393 2332.36 664.061 2349.45 667.57 2351.82C681.226 2360.97 692.974 2367.99 713.343 2367.07C713.343 2367.07 717.234 2367.61 720.972 2367.07C729.974 2365.85 735.772 2363.64 743.859 2359.45C714.64 2335.26 730.661 2292.84 766.746 2290.79C773.612 2240.21 721.125 2211.75 705.714 2183.98C697.17 2206.26 679.013 2220.83 675.199 2183.98C721.43 2163 684.43 2088.54 705.714 2046.66C681.149 2036.97 662.84 2041.4 675.199 2008.52C658.797 2037.81 659.56 1984.87 629.425 2008.52C660.17 2024.54 634.384 2048.72 606.539 2039.03C632.858 2010.27 596.316 1992.04 568.394 2000.89C549.169 1971.74 566.639 1965.72 591.281 1962.74C590.594 1939.02 546.194 1953.28 560.765 1916.97C573.277 1879.59 519.188 1907.81 522.621 1878.82C503.014 1898.66 507.134 1906.29 476.847 1909.34Z" stroke="#D0D379" stroke-width="0.3"/>
<path d="M469.219 1916.97C470.363 1914.91 475.322 1909.49 476.848 1909.34C477 1901.1 462.963 1887.44 453.961 1886.45C459.149 1894.01 460.446 1914.83 469.219 1916.97Z" stroke="#ACC9A8" stroke-width="0.3"/>
<path d="M705.715 2183.98C711.437 2163.38 686.033 2083.58 728.602 2084.8C731.349 2054.75 716.93 2017.75 682.829 2023.77C694.348 2005.24 671.309 1995.47 667.571 1985.63C645.6 1992.88 623.094 1995.01 598.911 1993.26C611.193 1975.48 605.243 1952.98 606.54 1932.23C591.206 1928.03 574.422 1925.82 560.766 1916.97C546.195 1953.28 590.595 1939.02 591.282 1962.74C566.641 1965.72 549.17 1971.74 568.395 2000.89C596.317 1992.04 632.859 2010.27 606.54 2039.03C634.385 2048.72 660.171 2024.54 629.426 2008.52C659.561 1984.87 658.798 2037.81 675.2 2008.52C662.841 2041.4 681.15 2036.97 705.715 2046.66C684.431 2088.54 721.431 2163 675.2 2183.98C679.014 2220.83 697.171 2206.26 705.715 2183.98Z" stroke="#CADBA8" stroke-width="0.3"/>
<path d="M408.188 1947.48C420.089 2000.66 367.983 1956.56 408.188 1947.48Z" stroke="#A4BB9B" stroke-width="0.3"/>
<path d="M156.434 2222.12C164.673 2211.98 170.929 2214.88 179.32 2206.87C182.753 2200.54 192.671 2181.69 194.578 2176.35C196.18 2171.77 201.673 2155.75 202.207 2153.46C202.207 2130.58 202.207 2107.69 202.207 2084.8C147.05 2059.48 171.997 2167.43 148.805 2100.06C148.805 2138.21 148.805 2176.35 148.805 2214.5C104.938 2209.69 102.65 2264.31 72.5156 2275.53C88.46 2294.52 100.285 2315.5 80.1445 2336.56C185.957 2360.28 124.621 2261.11 156.434 2222.12Z" stroke="#565342" stroke-width="0.3"/>
<path d="M392.93 2275.53C399.948 2292.16 403.534 2302.84 408.187 2321.3C412.383 2338.01 418.105 2364.79 415.816 2382.33C430.616 2367.61 475.703 2360.89 492.105 2344.19C478.602 2310.62 522.621 2319.47 514.992 2290.79C472.423 2289.49 476.924 2333.96 431.074 2321.3C422.988 2282.16 414.062 2260.42 400.559 2222.12C396.057 2185.74 375.078 2190.69 362.414 2161.09C348.758 2203.82 377.214 2238.22 392.93 2275.53Z" stroke="#676044" stroke-width="0.3"/>
<path d="M179.32 2206.87C164.291 2234.94 153.306 2238.15 164.062 2275.53C183.821 2272.25 179.244 2293.76 179.32 2306.04C145.829 2311.77 154.45 2359.83 164.062 2382.33C168.563 2392.86 180.77 2409.72 186.949 2420.48C193.891 2432.61 202.359 2434.97 209.836 2443.36C246.607 2454.27 255.991 2412.01 286.125 2405.22C305.045 2451.91 388.962 2460.61 392.93 2412.85C400.558 2397.67 417.647 2384.09 408.187 2359.45C370.501 2348.46 365.771 2389.35 347.156 2405.22C334.492 2390.73 313.436 2380.88 293.754 2374.7C303.214 2365.09 323.583 2366.16 316.64 2344.19C304.739 2346.63 290.016 2340.53 278.496 2344.19C278.496 2373.56 239.817 2358.3 240.351 2382.33C202.893 2357.84 243.632 2331.45 248.133 2290.94C252.71 2250.51 256.448 2213.28 232.722 2176.35C221.661 2179.94 205.106 2171.55 194.578 2176.35C192.671 2181.69 182.753 2200.54 179.32 2206.87Z" stroke="#A6BB62" stroke-width="0.3"/>
<path d="M156.434 2222.12C142.473 2247.07 154.526 2255.46 164.063 2275.53C153.306 2238.15 164.291 2234.94 179.32 2206.87C170.929 2214.88 164.673 2211.98 156.434 2222.12Z" stroke="#798851" stroke-width="0.3"/>
<path d="M629.425 2344.19C620.423 2343.04 613.71 2347.47 606.538 2351.82C626.297 2308.87 589.221 2265.3 568.394 2222.12C539.175 2248.6 525.062 2222.74 499.734 2206.87C497.674 2242.19 543.295 2237.54 545.507 2267.9C568.775 2231.51 563.435 2286.13 591.281 2283.16C564.503 2317.56 565.647 2379.89 614.167 2389.96C627.823 2381.11 622.101 2353.34 629.425 2344.19Z" stroke="#A0A758" stroke-width="0.3"/>
<path d="M278.496 2344.19C290.016 2340.53 304.74 2346.63 316.641 2344.19C345.096 2338.31 368.822 2303.83 408.188 2321.3C403.534 2302.84 399.948 2292.16 392.93 2275.53C381.257 2273.62 376.299 2256.07 362.414 2260.27C342.274 2294.14 302.375 2319.85 278.496 2344.19Z" stroke="#78A5A0" stroke-width="0.3"/>
<path d="M553.137 2283.16C513.39 2300.7 505.151 2356.62 476.847 2374.7C475.017 2399.5 498.285 2417.73 522.621 2412.85C521.248 2365.55 571.751 2339 553.137 2283.16Z" stroke="#B6C668" stroke-width="0.3"/>
<path d="M720.973 2367.07C717.692 2386.83 739.206 2382.26 751.488 2382.33C731.196 2346.78 763.39 2315.58 766.746 2290.79C730.662 2292.84 714.641 2335.26 743.86 2359.45C735.773 2363.64 729.975 2365.85 720.973 2367.07Z" stroke="#A4CAB4" stroke-width="0.3"/>
<path d="M42 917.582C69.9218 906.825 100.971 869.062 95.4023 917.582C120.578 906.52 149.186 897.899 148.805 932.84C175.201 910.945 150.102 866.468 141.176 841.293C209.454 815.889 152.619 757.222 164.062 703.973C139.04 707.177 160.553 745.55 133.547 742.117C117.068 712.517 117.908 636.228 156.434 681.086C164.215 631.727 145.753 570.467 171.691 543.766C154.755 538.578 152.238 530.949 133.547 528.508C147.05 507.376 130.266 495.246 125.918 475.105C164.368 498.831 195.646 431.544 247.98 444.59C250.879 489.066 262.628 482.048 273.232 533.772C283.76 585.572 331.746 556.353 303.29 518.972C274.758 481.666 359.973 472.435 324.27 436.961C349.14 435.054 368.288 419.186 392.93 414.074C384.004 395.002 398.422 368.987 392.93 345.414C379.884 347.855 335.865 343.965 347.156 330.156C324.117 303.15 356.387 286.977 370.043 269.125C353.412 229.531 329.762 206.873 301.383 177.578C416.198 214.502 296.119 24.8474 423.445 70.7734C422.682 31.4083 463.039 50.7857 476.848 25H42V917.582ZM347.156 261.496C284.447 248.451 331.517 302.997 347.156 261.496V261.496ZM301.383 322.527C296.348 339.235 275.216 351.975 255.609 353.043C260.492 328.096 273.842 316.424 301.383 322.527Z" fill="#425945"/>
<path d="M0 892.582V1830.94C14.8001 1837.88 28.0744 1848.71 45.7734 1846.2C38.9074 1821.55 63.6251 1810.95 83.918 1815.68C74.9921 1782.19 32.2703 1760.22 45.7734 1716.5C48.825 1694.69 65.7612 1657.38 83.918 1632.59C129.768 1689.34 172.642 1589.86 236.496 1609.7C226.96 1559.73 269.529 1532.27 259.383 1480.01C209.108 1481.99 162.267 1433.47 167.836 1380.83C130.912 1379.69 134.498 1335.13 99.1758 1327.43C112.679 1301.03 85.1386 1297.14 99.1758 1274.03C77.5097 1267.7 63.7777 1260.07 45.7734 1251.14C79.6458 1227.95 100.091 1180.73 106.805 1129.08C82.4685 1117.56 76.3653 1082.69 83.918 1060.42C0.381447 1058.82 68.9653 955.368 129.691 991.758C147.085 949.265 129.615 955.902 122.062 915.469C150.137 910.052 156.545 888.081 160.207 862.066C183.857 867.025 206.514 860.312 198.352 831.551C222.917 839.561 226.121 822.015 236.496 808.664C247.329 795.237 256.331 781.124 251.754 762.891C274.335 791.423 303.936 779.903 282.27 823.922C295.696 810.8 320.338 801.417 335.672 793.406C332.163 780.056 328.882 747.404 305.156 762.891C308.513 718.796 274.87 697.969 267.012 656.086C297.375 678.591 302.868 604.286 312.785 640.828C307.598 636.632 335.138 648.839 328.043 648.457C352.684 649.906 336.816 632.665 328.043 625.57C394.033 653.874 391.515 489.089 343.301 518.766C352.99 497.557 320.49 498.32 335.672 480.621C342.538 462.998 372.443 433.78 389.074 427.219C363.212 418.522 381.369 395.33 404.332 404.332C403.722 355.431 382.361 315.226 381.445 267.012C354.21 274.87 331.171 257.704 335.672 228.867C368.247 262.129 331.857 187.29 396.703 213.609C382.742 196.673 352.455 214.449 335.672 198.352C331.018 177.677 364.891 195.758 358.559 167.836C330.713 168.446 344.445 129.615 366.188 129.691C365.272 155.401 393.728 157.232 396.703 183.094C390.447 143.652 433.856 62.9385 472.992 122.062C499.693 114.891 502.745 83.9943 511.137 61.0312C542.72 112.221 550.273 26.1671 595.055 53.4023C602.607 79.4932 617.331 81.4004 617.941 114.434C643.575 111.611 636.098 122.444 648.457 129.691C659.824 132.896 674.777 128.547 686.602 129.691C667.072 109.475 692.018 103.677 717.117 99.1758C699.647 65.0746 730.239 39.1363 732.375 0H434.848C421.039 25.7857 380.682 6.40828 381.445 45.7734C254.119 -0.152578 374.198 189.502 259.383 152.578C287.762 181.873 311.412 204.531 328.043 244.125C314.387 261.977 282.117 278.15 305.156 305.156C293.865 318.965 337.884 322.855 350.93 320.414C356.422 343.987 342.004 370.002 350.93 389.074C326.288 394.186 307.14 410.054 282.27 411.961C317.973 447.435 232.758 456.666 261.29 493.972C289.746 531.353 241.76 560.572 231.232 508.772C220.628 457.048 208.879 464.066 205.98 419.59C153.646 406.544 122.368 473.831 83.918 450.105C88.2664 470.246 105.05 482.376 91.5469 503.508C110.238 505.949 112.755 513.578 129.691 518.766C103.753 545.467 122.215 606.727 114.434 656.086C75.9076 611.228 75.0684 687.517 91.5469 717.117C118.553 720.55 97.0397 682.177 122.062 678.973C110.619 732.222 167.454 790.889 99.1758 816.293C108.102 841.468 133.201 885.945 106.805 907.84C107.186 872.899 78.5777 881.52 53.4023 892.582C58.9714 844.062 27.9218 881.825 0 892.582ZM343.301 427.219C285.092 416.996 336.358 479.248 343.301 427.219V427.219ZM183.094 442.477C226.35 517.926 118.629 544.17 129.691 457.734C155.782 458.726 162.801 450.716 183.094 442.477ZM61.0312 907.84C59.4292 926.454 48.6724 948.578 30.5156 953.613C34.3301 934.083 38.2208 912.799 61.0312 907.84ZM152.578 1411.35C148.001 1458.8 121.223 1423.94 99.1758 1418.98C110.238 1404.02 135.795 1414.7 152.578 1411.35Z" fill="#576B4E"/>
<path d="M728.601 154.691C743.63 156.141 771.323 171.399 774.375 192.836C816.792 202.296 855.47 165.677 888.808 200.465C889.724 203.135 893.767 207.636 896.437 208.094C905.058 201.304 903.456 187.114 904.066 177.578C873.169 184.292 881.942 136.077 850.664 131.805C886.215 97.7035 874.542 54.3713 843.035 25H774.375C772.239 64.1363 741.647 90.0746 759.117 124.176C734.018 128.677 709.071 134.475 728.601 154.691Z" fill="#7A8252"/>
<path d="M896.437 208.094C903.838 209.391 911.848 207.026 919.324 208.094C892.165 218.469 926.343 236.244 942.211 238.609C946.941 265.311 932.522 302.082 949.84 322.527C993.706 298.878 955.027 261.038 972.727 230.98C976.846 222.207 995.232 200.846 1003.24 192.836C1004.77 177.426 997.749 156.141 980.355 169.949C973.184 143.172 1007.67 141.493 1026.13 139.434C1027.88 115.25 1025.75 92.7447 1018.5 70.7734C992.943 105.638 958.689 153.852 904.066 147.062C897.2 94.9571 972.116 94.8808 965.098 40.2578C981.042 45.9795 991.799 47.5053 987.984 25H926.953C907.423 30.4928 896.056 47.7341 873.551 47.8867C873.551 40.2578 873.551 32.6289 873.551 25H843.035C874.543 54.3713 886.215 97.7035 850.664 131.805C881.943 136.077 873.169 184.292 904.066 177.578C903.456 187.114 905.058 201.304 896.437 208.094ZM926.953 70.7734C867.371 61.4662 920.697 129.821 926.953 70.7734V70.7734Z" fill="#9D965A"/>
<path d="M926.953 25H873.551C873.551 32.6289 873.551 40.2578 873.551 47.8867C896.056 47.7341 907.423 30.4928 926.953 25Z" fill="#B6B9A5"/>
<path d="M1003.24 192.836C1017.2 178.875 1035.74 168.271 1056.64 169.949C1045.28 205.118 1074.88 216.638 1079.53 246.238C1116.84 254.783 1139.19 228.692 1148.19 200.465C1125.84 197.642 1108.75 175.671 1102.42 154.691C1099.52 145.232 1089.22 130.889 1094.79 116.547C1130.11 104.722 1153.07 159.345 1178.71 139.434C1189.31 133.864 1185.19 124.939 1201.59 124.176C1174.59 105.638 1125.69 67.6456 1132.93 25H987.984C991.799 47.5053 981.042 45.9795 965.098 40.2578C972.116 94.8808 897.2 94.9571 904.066 147.062C958.689 153.852 992.943 105.638 1018.5 70.7734C1025.75 92.7447 1027.88 115.25 1026.13 139.434C1007.67 141.493 973.184 143.172 980.355 169.949C997.749 156.141 1004.77 177.426 1003.24 192.836Z" fill="#BAB269"/>
<path d="M431.075 452.219C444.273 447.031 463.116 456.109 476.848 452.219C477.688 444.59 473.263 431.392 484.477 429.332C524.682 394.62 599.903 332.521 652.313 353.043C659.484 331.453 657.959 288.96 621.798 299.64C632.859 283.086 639.115 238.38 606.54 246.238C612.49 229.378 628.969 217.172 621.798 192.836C601.962 208.628 599.597 175.06 606.54 162.32C634.919 173.916 639.344 141.798 659.942 139.433C659.332 106.4 644.608 104.493 637.055 78.4021C592.274 51.1669 584.721 137.221 553.137 86.031C544.746 108.994 541.694 139.891 514.993 147.062C475.857 87.9383 432.448 168.652 438.704 208.094C435.729 182.232 407.273 180.401 408.188 154.691C386.446 154.615 372.714 193.446 400.559 192.836C406.891 220.758 373.019 202.677 377.673 223.351C394.456 239.448 424.743 221.673 438.704 238.609C373.858 212.289 410.248 287.129 377.673 253.867C373.172 282.704 396.211 299.869 423.446 292.011C424.361 340.226 445.722 380.431 446.333 429.332C423.37 420.33 405.213 443.522 431.075 452.219Z" fill="#748450"/>
<path d="M926.953 70.7737C867.371 61.4664 920.697 129.821 926.953 70.7737V70.7737Z" fill="#B8BC97"/>
<path d="M484.477 429.332C479.137 448.099 490.58 461.297 499.735 475.105C478.145 494.635 464.489 518.437 469.219 551.394C469.219 560.625 471.355 572.984 469.219 581.91C471.584 588.089 487.071 589.157 492.106 589.539C496.302 607.619 480.434 628.751 461.59 627.683C450.3 660.259 492.64 676.127 514.993 658.199C528.115 675.517 520.562 698.937 522.622 719.23C505.228 686.884 504.236 743.414 484.477 749.746C482.341 752.416 512.857 731.131 522.622 734.488C522.622 754.857 522.622 775.15 522.622 795.519C528.267 809.022 516.671 834.732 545.508 826.035C543.906 896.907 588.688 940.469 560.766 1009.13C621.111 987.92 614.703 904.079 591.282 856.551C589.832 853.346 562.521 843.658 576.024 826.035C585.637 826.645 580.296 841.75 591.282 841.293C623.705 840.225 637.818 866.163 675.2 841.293C675.047 841.293 639.344 801.851 621.798 818.406C608.828 785.449 593.723 752.187 606.54 711.601C615.084 683.832 613.558 674.22 652.313 681.086C654.754 649.426 639.115 622.191 644.684 589.539C677.717 563.219 725.856 519.963 728.602 467.476C759.118 467.476 789.633 467.476 820.149 467.476C823.964 467.476 831.898 466.408 835.407 467.476C842.502 455.575 844.638 419.338 827.778 406.445C776.664 379.439 735.316 454.736 682.829 436.961C682.829 426.814 682.829 416.592 682.829 406.445C671.767 369.063 673.674 346.711 675.2 307.269C711.513 309.329 699.765 370.589 743.86 368.301C724.711 329.393 776.054 301.853 759.118 261.496C734.476 253.943 723.109 238.609 698.087 230.98C716.701 209.162 738.062 196.65 728.602 162.32C716.625 159.345 696.408 169.491 690.458 154.691C678.099 147.444 685.575 136.611 659.942 139.433C639.344 141.798 634.919 173.916 606.54 162.32C599.597 175.06 601.962 208.628 621.798 192.836C628.969 217.172 612.49 229.378 606.54 246.238C639.115 238.38 632.859 283.086 621.798 299.64C657.959 288.96 659.484 331.453 652.313 353.043C599.903 332.521 524.682 394.62 484.477 429.332ZM591.282 520.879C615.542 520.879 608.828 484.031 606.54 459.847C634.462 450.769 639.039 484.031 667.571 475.105C669.707 508.367 621.645 564.592 591.282 536.137C583.729 553.836 587.239 581.3 576.024 597.168C557.867 541.324 521.249 481.819 576.024 436.961C587.086 460.076 590.061 492.499 591.282 520.879ZM522.622 505.621C509.347 528.965 522.24 562.914 492.106 574.281C476.543 550.555 475.399 488.38 522.622 505.621ZM499.735 635.312C508.966 644.543 491.648 667.888 479.29 655.605C466.931 643.323 491.191 626.768 499.735 635.312Z" fill="#B2AE64"/>
<path d="M743.859 368.301C747.598 368.682 757.897 366.546 759.117 368.301C785.208 346.177 801.534 324.129 827.777 299.641C841.738 271.337 831.897 231.896 835.406 200.465C853.182 200.465 871.033 200.465 888.809 200.465C855.47 165.677 816.792 202.296 774.375 192.836C771.323 171.399 743.631 156.141 728.602 154.691C716.777 153.547 701.824 157.896 690.457 154.691C696.408 169.491 716.624 159.345 728.602 162.32C738.061 196.65 716.7 209.162 698.086 230.98C723.109 238.609 734.476 253.943 759.117 261.496C776.053 301.853 724.711 329.393 743.859 368.301Z" fill="#969259"/>
<path d="M827.777 299.641C838.992 297.581 834.567 284.383 835.406 276.754C874.924 283.849 897.277 257.071 926.953 246.238C922.299 284.001 929.776 316.806 942.211 345.414C971.659 342.515 962.351 296.208 987.984 292.012C982.644 270.727 966.318 256.232 972.727 230.98C955.028 261.038 993.706 298.878 949.84 322.527C932.522 302.082 946.941 265.311 942.211 238.609C926.343 236.244 892.165 218.469 919.324 208.094C911.848 207.026 903.838 209.391 896.438 208.094C893.767 207.636 889.724 203.135 888.809 200.465C871.033 200.465 853.182 200.465 835.406 200.465C831.897 231.896 841.738 271.337 827.777 299.641Z" fill="#C6C68A"/>
<path d="M347.157 261.495C284.447 248.45 331.518 302.997 347.157 261.495V261.495Z" fill="#798F4A"/>
<path d="M682.828 406.445C720.515 417.431 736.078 395.231 759.117 375.93C759.117 375.93 757.21 369.903 759.117 368.301C757.897 366.546 747.598 368.682 743.86 368.301C699.765 370.589 711.513 309.329 675.199 307.27C673.674 346.711 671.766 369.064 682.828 406.445Z" fill="#CCD28A"/>
<path d="M301.383 322.527C273.842 316.424 260.492 328.096 255.609 353.042C275.216 351.974 296.348 339.234 301.383 322.527Z" fill="#5C744B"/>
<path d="M682.828 406.445C682.828 416.592 682.828 426.814 682.828 436.961C735.315 454.736 776.664 379.439 827.777 406.445C814.808 389.738 785.971 403.089 766.746 398.816C773.078 390.119 759.804 379.668 759.117 375.93C736.078 395.231 720.515 417.431 682.828 406.445Z" fill="#D6DEBE"/>
<path d="M431.074 452.219C414.443 458.78 384.538 487.998 377.672 505.621C398.804 516.073 416.198 521.337 438.703 505.621C453.579 521.031 434.965 559.481 469.219 551.395C464.489 518.438 478.145 494.635 499.734 475.105C490.58 461.297 479.136 448.099 484.477 429.332C473.262 431.392 477.687 444.59 476.848 452.219C463.116 456.109 444.272 447.031 431.074 452.219Z" fill="#959152"/>
<path d="M591.281 536.137C592.654 532.933 591.129 524.693 591.281 520.879C590.061 492.499 587.085 460.077 576.023 436.961C521.248 481.819 557.867 541.324 576.023 597.168C587.238 581.3 583.729 553.836 591.281 536.137Z" fill="#979259"/>
<path d="M385.301 452.219C327.092 441.996 378.359 504.248 385.301 452.219V452.219Z" fill="#76844D"/>
<path d="M591.281 520.879C591.129 524.693 592.655 532.932 591.281 536.136C621.644 564.592 669.707 508.367 667.57 475.105C639.038 484.031 634.461 450.769 606.539 459.847C608.828 484.031 615.541 520.879 591.281 520.879Z" fill="#CEDBC1"/>
<path d="M225.094 467.477C204.801 475.716 197.782 483.726 171.691 482.734C160.63 569.17 268.35 542.926 225.094 467.477Z" fill="#728863"/>
<path d="M606.539 711.602C639.038 744.101 678.556 637.525 713.344 650.57C723.49 625.624 685.727 628.675 690.457 604.797C709.072 599.457 716.243 576.265 728.602 559.023C763.695 571.459 772.239 636.991 720.973 627.684C707.622 670.787 771.857 657.97 766.746 696.344C817.173 639.127 783.682 549.258 782.004 475.105C795.583 481.743 811.68 469.079 820.148 467.477C789.633 467.477 759.117 467.477 728.602 467.477C725.855 519.963 677.717 563.219 644.684 589.539C639.114 622.191 654.754 649.426 652.312 681.086C613.558 674.22 615.083 683.832 606.539 711.602Z" fill="#D5E7D8"/>
<path d="M370.043 673.457C370.348 683.222 354.938 690.393 347.156 688.715C347.995 681.086 343.571 667.888 354.785 665.828C344.868 629.286 339.375 703.591 309.012 681.086C316.869 722.969 350.513 743.796 347.156 787.891C370.882 772.404 374.163 805.056 377.672 818.406C362.338 826.417 337.696 835.8 324.27 848.922C345.936 804.903 316.335 816.423 293.754 787.891C298.331 806.124 289.329 820.237 278.496 833.664C286.125 833.664 293.754 833.664 301.383 833.664C305.808 863.875 293.449 890.881 301.383 917.582C261.941 907.817 256.983 958.168 255.609 986.242C260.492 968.162 294.898 972.968 293.754 993.871C330.678 979.834 336.171 991.048 377.672 970.984C377.672 978.613 377.672 986.242 377.672 993.871C378.053 995.015 389.192 994.329 392.93 993.871C407.959 982.123 412.002 951.836 431.074 940.469C390.488 926.966 445.264 899.196 408.187 879.438C429.548 876.31 444.806 878.446 438.703 848.922C470.21 869.444 435.88 840.378 443.357 812.685C450.757 784.915 437.788 772.022 431.074 757.375C416.579 774.235 394.989 783.618 385.301 749.746C440.305 717.705 439.39 627.378 469.219 581.91C471.355 572.984 469.219 560.626 469.219 551.395C434.965 559.481 453.579 521.031 438.703 505.621C416.198 521.337 398.804 516.073 377.672 505.621C362.49 523.32 394.989 522.557 385.301 543.766C433.515 514.089 436.033 678.874 370.043 650.57C378.816 657.665 394.684 674.907 370.043 673.457Z" fill="#747D52"/>
<path d="M522.622 505.621C475.399 488.379 476.543 550.555 492.106 574.281C522.24 562.914 509.347 528.965 522.622 505.621Z" fill="#C9CFA9"/>
<path d="M606.539 711.602C593.722 752.187 608.827 785.449 621.796 818.406C639.343 801.852 675.046 841.293 675.199 841.293C682.828 841.293 690.457 841.293 698.085 841.293C700.45 809.633 696.56 779.117 690.457 749.746C726.999 755.086 747.139 718.01 766.746 696.344C771.857 657.97 707.622 670.787 720.972 627.684C772.238 636.991 763.694 571.459 728.601 559.023C716.242 576.265 709.071 599.457 690.457 604.797C685.727 628.675 723.49 625.624 713.343 650.57C678.555 637.525 639.038 744.101 606.539 711.602Z" fill="#D3D386"/>
<path d="M392.93 993.871C407.959 991.964 423.598 995.244 438.703 993.871C431.379 1024.46 415.206 1050.25 377.672 1039.64C373.857 1063.75 351.2 1061.31 347.156 1085.42C314.581 1061.54 343.876 999.364 377.672 993.871C377.672 986.242 377.672 978.613 377.672 970.984C336.171 991.048 330.678 979.834 293.754 993.871C294.898 972.968 260.492 968.162 255.609 986.242C256.983 958.168 261.941 907.817 301.383 917.582C293.449 890.881 305.808 863.875 301.383 833.664C293.754 833.664 286.125 833.664 278.496 833.664C268.121 847.015 264.917 864.561 240.352 856.551C248.515 885.312 225.857 892.025 202.207 887.066C198.545 913.081 192.137 935.052 164.063 940.469C171.615 980.902 189.085 974.265 171.691 1016.76C110.965 980.368 42.3815 1083.82 125.918 1085.42C118.365 1107.69 124.469 1142.56 148.805 1154.08C142.091 1205.73 121.646 1252.95 87.7735 1276.14C105.778 1285.07 119.51 1292.7 141.176 1299.03C127.139 1322.14 154.679 1326.03 141.176 1352.43C176.498 1360.13 172.912 1404.69 209.836 1405.83C204.267 1458.47 251.108 1506.99 301.383 1505.01C311.529 1557.27 268.96 1584.73 278.496 1634.7C214.642 1614.86 171.768 1714.34 125.918 1657.59C107.761 1682.38 90.825 1719.69 87.7735 1741.5C90.0621 1737.61 130.572 1734.79 118.289 1710.99C143.541 1707.56 165.054 1707.33 186.949 1703.36C169.555 1725.33 193.358 1731.13 164.063 1749.13C205.03 1753.94 217.16 1803.91 202.207 1840.68C212.582 1815.58 234.325 1838.01 255.609 1833.05C249.354 1870.51 263.62 1906.44 255.609 1947.48C229.442 1944.81 234.325 1972.51 225.094 1993.26C254.999 2003.63 276.055 2010.8 278.496 2039.03C250.04 2038.34 235.545 2018.66 209.836 2016.14C203.962 2044.98 213.422 2066.5 240.352 2077.18C221.966 2132.18 296.043 2171.7 309.012 2107.69C342.503 2140.65 409.103 2170.48 400.559 2222.12C414.062 2260.42 422.988 2282.16 431.074 2321.3C476.924 2333.96 472.423 2289.49 514.992 2290.79C522.621 2319.47 478.602 2310.62 492.105 2344.19C476.466 2374.86 473.262 2411.47 446.332 2428.11C442.365 2451.07 483.027 2450.69 461.59 2473.88C501.947 2455.95 551.764 2476.63 576.023 2489.14C574.193 2465.41 601.275 2456.71 591.281 2428.11C576.634 2437.87 551.077 2408.5 553.137 2389.96C575.108 2400.34 597.613 2413.69 614.168 2435.73C627.9 2440.31 645.828 2432.3 659.941 2435.73C622.941 2413.69 680.921 2387.75 667.57 2351.82C664.061 2349.45 670.393 2332.36 667.57 2328.93C653.762 2327.86 636.444 2332.29 629.426 2344.19C622.102 2353.34 627.824 2381.11 614.168 2389.96C565.648 2379.89 564.504 2317.56 591.281 2283.16C563.436 2286.13 568.776 2231.51 545.508 2267.9C543.295 2237.54 497.675 2242.19 499.734 2206.87C499.429 2206.71 484.019 2198.78 484.477 2199.24C449.536 2193.06 451.215 2211.6 431.074 2229.75C447.324 2180.47 419.631 2192.22 392.93 2168.72C431.685 2158.12 428.862 2111.58 438.703 2077.18C420.012 2068.71 397.812 2063.29 385.301 2046.66C372.027 2059.25 382.86 2083.97 362.414 2092.43C385.987 2091.21 399.338 2086.03 423.445 2084.8C434.889 2128.29 384.233 2125.47 362.414 2145.84C354.709 2126.99 327.321 2114.48 354.785 2092.43C322.82 2085.49 302.832 2096.1 286.125 2122.95C265.374 2103.88 279.869 2046.66 301.383 2031.4C316.412 2041.85 299.399 2079.01 331.898 2069.55C336.476 2045.9 321.447 2003.02 354.785 2008.52C343.8 1980.36 347.69 1947.87 347.156 1916.97C311.682 1919.79 322.973 1974.8 309.012 2000.89C289.1 1974.03 267.892 1936.12 288.109 1903.69C308.249 1871.2 269.265 1792.31 339.527 1810.16C350.284 1772.94 304.511 1771.18 278.496 1772.02C267.587 1741.43 295.051 1745.7 309.012 1733.88C296.653 1637.37 349.521 1578.4 354.785 1489.75C360.583 1482.5 370.348 1480.44 377.672 1474.49C382.326 1470.75 382.86 1449.32 400.559 1459.23C406.051 1402.48 370.196 1385.46 377.672 1329.54C356.311 1345.03 342.35 1365.48 309.012 1367.69C309.851 1326.19 269.113 1320.08 270.867 1283.77C205.487 1295.44 282.845 1358.69 293.754 1390.57C275.445 1402.48 255.381 1408.81 232.723 1405.83C238.368 1372.49 204.267 1348.16 171.691 1352.43C220.288 1317.64 205.945 1248.45 225.094 1199.85C183.821 1208.55 181.99 1191.54 179.32 1161.71C219.982 1174.83 220.135 1133.56 232.723 1108.3C260.644 1117.61 268.731 1093.89 278.496 1077.79C317.404 1084.43 301.154 1136.84 270.867 1138.82C241.343 1216.71 321.523 1219.99 331.898 1276.14C348.911 1272.17 360.354 1287.89 377.672 1283.77C374.773 1272.25 374.086 1241.66 377.672 1230.37C351.505 1233.19 242.259 1160.49 331.898 1154.08C324.804 1180.93 407.196 1223.5 397.812 1186.88C388.505 1150.26 331.212 1142.25 339.527 1100.68C365.847 1104.72 392.625 1098.01 408.188 1077.79C413.223 1071.84 404.373 1054.22 408.188 1047.27C415.816 1048.11 429.014 1043.69 431.074 1054.9C443.28 1038.88 441.755 1022.48 469.219 1024.39C468.99 1024.39 469.219 1016.76 469.219 1016.76C462.887 984.03 513.161 992.956 514.992 963.355C516.747 933.832 499.429 913.234 469.219 917.582C463.802 865.858 533.302 862.578 514.992 803.148C492.258 823.06 498.972 795.52 492.105 787.891C488.672 784.076 473.491 790.942 469.219 787.891C473.491 775.684 473.033 757.146 484.477 749.746C504.235 743.414 505.227 686.884 522.621 719.23C520.561 698.938 528.114 675.517 514.992 658.199C492.64 676.127 450.299 660.259 461.59 627.684C480.433 628.752 496.301 607.62 492.105 589.539C487.07 589.158 471.584 588.09 469.219 581.91C439.39 627.378 440.305 717.705 385.301 749.746C394.99 783.618 416.579 774.235 431.074 757.375C437.788 772.023 450.757 784.915 443.357 812.685C435.88 840.378 470.211 869.444 438.703 848.922C444.806 878.446 429.548 876.31 408.188 879.438C445.264 899.196 390.488 926.966 431.074 940.469C412.002 951.836 407.959 982.123 392.93 993.871ZM438.703 696.344C399.491 721.595 452.206 752.798 438.703 696.344V696.344ZM553.137 2283.16C571.751 2339 521.248 2365.55 522.621 2412.85C498.285 2417.73 475.017 2399.5 476.848 2374.7C505.151 2356.62 513.39 2300.7 553.137 2283.16Z" fill="#899056"/>
<path d="M499.734 635.313C491.19 626.768 466.93 643.323 479.288 655.606C491.647 667.888 508.965 644.544 499.734 635.313Z" fill="#C7CEAD"/>
<path d="M370.043 673.457C377.138 673.839 349.598 661.632 354.786 665.828C343.571 667.888 347.996 681.086 347.157 688.715C354.938 690.393 370.349 683.222 370.043 673.457Z" fill="#7C9983"/>
<path d="M438.703 696.344C399.49 721.595 452.206 752.798 438.703 696.344V696.344Z" fill="#9BB398"/>
<path d="M850.664 711.601C812.901 704.506 762.321 727.469 774.375 772.633C814.351 783.16 862.718 758.443 850.664 711.601Z" fill="#DAE3AB"/>
<path d="M484.477 749.747C473.033 757.147 473.491 775.685 469.219 787.891C473.491 790.943 488.672 784.077 492.105 787.891C489.741 771.489 492.792 749.899 514.992 757.376C510.491 772.252 518.349 785.374 522.621 795.52C522.621 775.151 522.621 754.858 522.621 734.489C512.856 731.132 482.34 752.417 484.477 749.747Z" fill="#AFC0A7"/>
<path d="M591.281 856.551C590.747 852.813 592.731 844.497 591.281 841.293C580.296 841.751 585.636 826.645 576.023 826.035C562.52 843.658 589.832 853.347 591.281 856.551Z" fill="#AFC3AB"/>
<path d="M103.031 932.84C80.2208 937.799 76.3301 959.083 72.5156 978.613C90.6724 973.578 101.429 951.454 103.031 932.84Z" fill="#72884F"/>
<path d="M377.672 1039.64C379.122 1030.26 371.874 1000.74 377.672 993.871C343.876 999.364 314.581 1061.54 347.157 1085.42C351.2 1061.31 373.858 1063.75 377.672 1039.64Z" fill="#BAC063"/>
<path d="M377.672 1039.64C415.206 1050.25 431.38 1024.46 438.703 993.871C423.598 995.244 407.959 991.963 392.93 993.871C389.192 994.328 378.054 995.015 377.672 993.871C371.874 1000.74 379.122 1030.26 377.672 1039.64Z" fill="#9AAD91"/>
<path d="M469.219 1024.39C504.998 1027.59 532.615 1022.94 560.766 1039.64C540.015 1094.04 488.291 1066.27 461.59 1085.42C480.357 1081.37 500.726 1089.84 507.363 1108.3C522.697 1088.16 566.716 1082.44 568.166 1047.5C569.615 1012.56 494.547 1014.47 469.219 1016.76C469.219 1016.76 468.99 1024.39 469.219 1024.39Z" fill="#C8DCB7"/>
<path d="M431.074 1054.9C423.522 1064.82 417.495 1070.39 408.187 1077.79C392.625 1098.01 365.847 1104.72 339.527 1100.68C331.212 1142.25 388.505 1150.26 397.812 1186.88C407.196 1223.5 324.804 1180.93 331.898 1154.08C242.259 1160.49 351.505 1233.19 377.672 1230.37C382.478 1215.11 413.909 1194.97 431.074 1199.85C426.421 1224.03 449.46 1246.46 431.074 1268.51C452.511 1287.35 453.732 1264.39 476.848 1276.14C479.899 1277.67 484.477 1276.14 484.477 1276.14C509.728 1259.2 520.104 1236.24 560.766 1238C557.79 1278.35 587.772 1315.96 621.797 1321.91C634.613 1261.42 591.358 1196.72 530.25 1207.48C534.064 1174.98 521.858 1132.87 484.477 1138.82C485.163 1123.49 498.514 1119.9 507.363 1108.3C500.726 1089.84 480.357 1081.37 461.59 1085.42C488.291 1066.27 540.015 1094.04 560.766 1039.64C532.615 1022.94 504.998 1027.59 469.219 1024.39C441.755 1022.48 443.28 1038.88 431.074 1054.9ZM492.105 1238C478.602 1226.63 499.811 1202.98 492.105 1184.59C503.32 1194.74 505.151 1228.38 492.105 1238Z" fill="#D2D789"/>
<path d="M408.188 1077.79C417.495 1070.39 423.522 1064.82 431.075 1054.9C429.015 1043.69 415.817 1048.11 408.188 1047.27C404.374 1054.22 413.223 1071.84 408.188 1077.79Z" fill="#A1B899"/>
<path d="M377.672 1474.49C402.313 1469.15 407.882 1479.68 423.445 1489.75C443.433 1502.64 453.198 1523.09 484.477 1512.64C459.072 1528.43 484.477 1580.99 453.961 1588.93C462.887 1569.85 448.468 1543.84 453.961 1520.27C441.221 1520.27 428.557 1520.27 415.816 1520.27C396.286 1513.32 375.994 1501.35 354.785 1489.75C349.521 1578.4 296.653 1637.37 309.012 1733.88C295.051 1745.7 267.587 1741.43 278.496 1772.02C304.511 1771.18 350.284 1772.93 339.527 1810.16C269.265 1792.31 308.249 1871.2 288.109 1903.69C267.892 1936.12 289.1 1974.03 309.012 2000.89C322.973 1974.8 311.682 1919.79 347.156 1916.97C347.69 1947.87 343.8 1980.36 354.785 2008.52C321.447 2003.02 336.476 2045.9 331.898 2069.55C299.399 2079.01 316.412 2041.85 301.383 2031.4C279.869 2046.66 265.374 2103.88 286.125 2122.95C302.832 2096.1 322.82 2085.49 354.785 2092.43C327.321 2114.48 354.709 2126.99 362.414 2145.84C384.233 2125.47 434.889 2128.29 423.445 2084.8C399.338 2086.03 385.987 2091.21 362.414 2092.43C382.86 2083.97 372.026 2059.25 385.301 2046.66C397.812 2063.29 420.012 2068.71 438.703 2077.18C428.862 2111.58 431.685 2158.12 392.93 2168.72C419.631 2192.22 447.324 2180.47 431.074 2229.75C451.215 2211.6 449.536 2193.06 484.477 2199.24C481.425 2195.96 482.417 2180.17 476.848 2176.35C459.53 2202.21 421.157 2168.57 431.074 2138.21C448.01 2133.55 484.782 2150.57 484.477 2122.95C458.309 2076.72 399.872 2017.59 438.703 1947.48C454.876 1991.2 459.759 1937.03 469.219 1916.97C460.445 1914.83 459.149 1894.01 453.961 1886.45C453.961 1886.45 447.4 1888.21 446.332 1886.45C434.965 1868.37 366.534 1907.36 377.672 1840.68C409.484 1851.59 449.765 1804.37 469.219 1833.05C495.538 1823.44 477.153 1825.19 492.105 1810.16C489.054 1809.86 477.305 1795.9 469.219 1802.54C471.507 1783.39 453.274 1766.6 469.219 1749.13C460.14 1750.28 450.07 1744.56 453.961 1733.88C466.701 1731.82 496.073 1740.89 492.105 1718.62C471.736 1718.62 451.443 1718.62 431.074 1718.62C431.074 1726.25 431.074 1733.88 431.074 1741.5C425.734 1751.27 435.118 1769.12 431.074 1779.65C393.845 1797.81 343.8 1726.63 400.559 1726.25C410.934 1717.78 429.625 1716.86 423.445 1695.73C400.635 1702.44 391.251 1675.82 392.93 1657.59C423.445 1670.33 416.656 1635.69 438.703 1634.7C433.515 1657.97 463.726 1661.71 453.961 1688.1C454.648 1686.27 460.598 1666.66 461.59 1665.21C467.464 1656.37 474.101 1658.43 484.477 1657.59C495.31 1652.78 504.388 1628.82 522.621 1634.7C522.621 1642.33 522.621 1649.96 522.621 1657.59C530.25 1677.04 515.755 1693.98 522.621 1710.99C542.38 1721.97 550.314 1744.17 583.652 1733.88C575.489 1707.78 567.708 1708.78 560.766 1680.47C555.807 1660.33 556.036 1648.28 568.395 1627.07C543.677 1607.39 523.079 1627.6 497.827 1613.34C472.652 1599.07 512.551 1553.53 484.477 1535.52C493.326 1526.29 510.644 1525.83 507.363 1543.15C509.805 1532.93 541.77 1507.45 545.508 1497.38C527.732 1500.43 524.757 1481.97 522.621 1474.49C513.619 1468.47 496.835 1474.64 492.105 1459.23C494.394 1489.52 468.456 1469.38 453.961 1482.12C449.231 1458.24 418.334 1447.79 423.445 1421.09C456.173 1423.84 460.522 1401.33 492.105 1398.2C485.773 1392.56 483.943 1368.53 469.219 1367.69C478.755 1355.33 498.437 1349.68 507.363 1337.17C480.128 1342.74 494.623 1311.77 461.59 1321.91C462.2 1306.05 456.326 1281.63 476.848 1276.14C453.732 1264.39 452.511 1287.36 431.074 1268.51C423.14 1286.13 400.559 1301.7 377.672 1306.66C377.672 1299.03 377.672 1291.4 377.672 1283.77C360.354 1287.89 348.911 1272.17 331.898 1276.14C321.523 1219.99 241.343 1216.71 270.867 1138.82C301.154 1136.84 317.404 1084.43 278.496 1077.79C268.731 1093.89 260.644 1117.61 232.723 1108.3C220.135 1133.56 219.982 1174.83 179.32 1161.71C181.99 1191.54 183.821 1208.55 225.094 1199.85C205.945 1248.45 220.288 1317.64 171.691 1352.43C204.267 1348.16 238.368 1372.49 232.723 1405.83C255.381 1408.81 275.445 1402.48 293.754 1390.57C282.845 1358.69 205.487 1295.44 270.867 1283.77C269.113 1320.08 309.851 1326.19 309.012 1367.69C342.35 1365.48 356.311 1345.03 377.672 1329.54C370.196 1385.46 406.051 1402.48 400.559 1459.23C382.86 1449.32 382.326 1470.75 377.672 1474.49ZM453.961 1314.29C454.571 1339.92 434.66 1366.39 408.188 1367.69C401.474 1333.05 439.313 1333.51 453.961 1314.29ZM392.93 1535.52C328.389 1539.57 401.245 1598.31 392.93 1535.52V1535.52ZM400.559 1550.78C392.472 1636.76 479.518 1557.95 400.559 1550.78V1550.78ZM354.785 1817.79C356.311 1848.77 381.944 1908.65 324.27 1894.08C335.255 1866.47 301.841 1856.55 301.383 1833.05C320.608 1833.51 337.468 1824.81 354.785 1817.79ZM408.188 1947.48C367.983 1956.56 420.089 2000.66 408.188 1947.48V1947.48Z" fill="#AFB162"/>
<path d="M591.281 1093.05C580.448 1100.14 566.106 1135.69 560.766 1154.08C610.582 1168.73 670.164 1140.96 690.457 1108.3C674.207 1092.44 615.541 1081.68 591.281 1093.05Z" fill="#D8DF98"/>
<path d="M606.539 1176.96C650.177 1179.86 662.154 1140.88 705.715 1146.45C698.315 1178.87 711.284 1203.36 743.86 1207.48C720.973 1233.88 771.476 1224.87 751.489 1253.25C762.627 1248.45 775.977 1236.24 774.375 1222.74C742.563 1224.65 748.513 1219.99 759.118 1199.85C711.208 1191.54 717.082 1134.32 690.457 1108.3C670.164 1140.96 610.583 1168.73 560.766 1154.08C566.106 1135.69 580.449 1100.14 591.282 1093.05C537.803 1118.07 549.78 1173.15 606.539 1176.96Z" fill="#C8E1C1"/>
<path d="M606.539 1176.97C606.539 1187.11 606.539 1197.33 606.539 1207.48C634.613 1202.14 663.222 1199.85 690.457 1192.22C668.333 1225.94 706.707 1225.64 705.715 1253.25C720.057 1250.2 737.451 1257.37 751.488 1253.25C771.476 1224.87 720.973 1233.88 743.859 1207.48C711.284 1203.36 698.315 1178.87 705.715 1146.45C662.154 1140.88 650.176 1179.86 606.539 1176.97Z" fill="#D9E3A7"/>
<path d="M492.106 1238C505.151 1228.38 503.32 1194.74 492.106 1184.59C499.811 1202.98 478.603 1226.63 492.106 1238Z" fill="#C6DFCC"/>
<path d="M377.672 1230.37C374.086 1241.66 374.773 1272.25 377.672 1283.77C377.672 1291.4 377.672 1299.03 377.672 1306.66C400.559 1301.7 423.14 1286.14 431.074 1268.51C449.46 1246.47 426.421 1224.04 431.074 1199.85C413.909 1194.97 382.478 1215.11 377.672 1230.37Z" fill="#ABD5CE"/>
<path d="M469.219 1367.69C486.994 1367.69 504.846 1367.69 522.621 1367.69C533.53 1330.99 497.675 1317.79 469.219 1314.29C466.243 1297.04 471.355 1284.15 484.477 1276.14C484.477 1276.14 479.899 1277.67 476.848 1276.14C456.326 1281.63 462.2 1306.05 461.59 1321.91C494.623 1311.77 480.128 1342.74 507.363 1337.17C498.437 1349.68 478.755 1355.33 469.219 1367.69Z" fill="#AEC7B1"/>
<path d="M453.96 1314.29C439.313 1333.51 401.474 1333.05 408.187 1367.69C434.659 1366.39 454.571 1339.92 453.96 1314.29Z" fill="#A8C4B0"/>
<path d="M522.621 1474.49C515.374 1448.55 521.553 1427.57 507.364 1405.83C505.151 1404.23 492.716 1398.74 492.106 1398.2C460.522 1401.33 456.174 1423.84 423.446 1421.09C418.334 1447.79 449.231 1458.24 453.961 1482.12C468.456 1469.38 494.395 1489.52 492.106 1459.23C496.836 1474.64 513.619 1468.47 522.621 1474.49Z" fill="#D5D882"/>
<path d="M522.621 1474.49C524.757 1481.97 527.732 1500.43 545.508 1497.38C547.491 1492.04 527.885 1421.01 507.363 1405.83C521.553 1427.57 515.374 1448.55 522.621 1474.49Z" fill="#B6CAA4"/>
<path d="M194.578 1436.35C177.795 1439.7 152.238 1429.02 141.176 1443.98C163.223 1448.93 190.001 1483.8 194.578 1436.35Z" fill="#77874F"/>
<path d="M354.785 1489.75C375.994 1501.35 396.286 1513.32 415.816 1520.27C413.528 1518.97 416.961 1489.14 400.253 1497.68C383.546 1506.23 378.74 1492.19 377.672 1482.12C393.845 1481.66 409.942 1480.44 423.445 1489.75C407.882 1479.68 402.313 1469.15 377.672 1474.49C370.348 1480.44 360.583 1482.5 354.785 1489.75Z" fill="#A8B693"/>
<path d="M415.816 1520.27C428.557 1520.27 441.221 1520.27 453.961 1520.27C448.468 1543.84 462.887 1569.85 453.961 1588.93C484.477 1580.99 459.072 1528.43 484.477 1512.64C453.198 1523.09 443.433 1502.64 423.445 1489.75C409.942 1480.44 393.845 1481.66 377.672 1482.12C378.74 1492.19 383.546 1506.23 400.253 1497.68C416.961 1489.14 413.528 1518.97 415.816 1520.27Z" fill="#ABCCBC"/>
<path d="M507.363 1543.15C510.644 1525.83 493.326 1526.29 484.477 1535.52C512.551 1553.53 472.652 1599.07 497.827 1613.34C523.079 1627.6 543.677 1607.39 568.395 1627.07C556.036 1648.28 555.807 1660.33 560.766 1680.47C574.65 1642.25 622.789 1617.46 667.57 1619.44C668.409 1551.93 605.013 1620.51 568.395 1604.18C577.702 1575.96 602.801 1561.69 591.281 1520.27C560.918 1545.14 552.679 1545.29 537.65 1588.7C522.697 1632.11 498.209 1581.37 507.363 1543.15Z" fill="#9FAD83"/>
<path d="M392.93 1535.52C328.389 1539.57 401.245 1598.31 392.93 1535.52V1535.52Z" fill="#A8BA97"/>
<path d="M400.559 1550.78C392.472 1636.76 479.518 1557.95 400.559 1550.78V1550.78Z" fill="#AACAAD"/>
<path d="M400.559 1726.25C406.128 1727.01 417.038 1753.71 431.075 1741.5C431.075 1733.88 431.075 1726.25 431.075 1718.62C451.444 1718.62 471.737 1718.62 492.106 1718.62C483.943 1702.9 460.675 1714.57 446.333 1710.99C439.772 1706.33 453.58 1686.88 453.961 1688.1C463.726 1661.71 433.516 1657.97 438.704 1634.7C416.656 1635.69 423.446 1670.33 392.93 1657.59C391.252 1675.82 400.635 1702.44 423.446 1695.73C429.625 1716.86 410.934 1717.78 400.559 1726.25Z" fill="#ABC5AE"/>
<path d="M484.477 1657.59C492.563 1656.9 515.679 1653.85 522.621 1657.59C522.621 1649.96 522.621 1642.33 522.621 1634.7C504.388 1628.82 495.31 1652.78 484.477 1657.59Z" fill="#A5C1BA"/>
<path d="M461.591 1665.22C461.362 1665.83 517.205 1706.41 522.622 1710.99C515.756 1693.98 530.251 1677.04 522.622 1657.59C515.679 1653.85 492.564 1656.9 484.477 1657.59C474.102 1658.43 467.465 1656.37 461.591 1665.22Z" fill="#A0B18C"/>
<path d="M87.7734 1741.5C74.2703 1785.22 116.992 1807.19 125.918 1840.68C105.625 1835.95 80.9074 1846.55 87.7734 1871.2C70.0744 1873.71 56.8001 1862.88 42 1855.94V1939.86C113.559 1921.85 121.569 1899.04 187.712 1879.51C253.855 1860.06 245.844 1966.79 164.062 1947.48C155.976 1971.21 154.374 1983.26 133.547 1993.26C186.263 1983.57 217.389 2009.58 202.207 2069.55C243.937 2067.56 222.118 2128.98 240.352 2153.46C227.611 2153.46 214.947 2153.46 202.207 2153.46C201.673 2155.75 196.18 2171.77 194.578 2176.35C205.106 2171.55 221.661 2179.94 232.723 2176.35C256.449 2213.28 252.71 2250.5 248.133 2290.94C243.632 2331.45 202.894 2357.84 240.352 2382.33C239.818 2358.3 278.496 2373.56 278.496 2344.19C302.375 2319.85 342.274 2294.14 362.414 2260.27C376.299 2256.07 381.257 2273.62 392.93 2275.53C377.214 2238.22 348.758 2203.82 362.414 2161.09C375.078 2190.69 396.058 2185.74 400.559 2222.12C409.103 2170.48 342.503 2140.65 309.012 2107.69C296.043 2171.7 221.966 2132.18 240.352 2077.18C213.422 2066.5 203.962 2044.98 209.836 2016.14C235.545 2018.66 250.04 2038.34 278.496 2039.03C276.055 2010.8 254.999 2003.63 225.094 1993.26C234.325 1972.51 229.442 1944.81 255.609 1947.48C263.62 1906.44 249.354 1870.51 255.609 1833.05C234.325 1838.01 212.582 1815.58 202.207 1840.68C217.16 1803.91 205.03 1753.94 164.062 1749.13C193.357 1731.13 169.555 1725.33 186.949 1703.36C165.054 1707.33 143.541 1707.56 118.289 1710.99C130.572 1734.79 90.0621 1737.61 87.7734 1741.5Z" fill="#6B7954"/>
<path d="M431.074 1741.5C417.037 1753.71 406.128 1727.01 400.559 1726.25C343.8 1726.63 393.845 1797.81 431.074 1779.65C435.118 1769.12 425.734 1751.27 431.074 1741.5Z" fill="#D5DE7F"/>
<path d="M492.105 1810.16C489.359 1812.91 512.017 1801.77 507.363 1802.53C511.559 1780.79 465.938 1783.31 476.848 1756.76C515.374 1747.07 512.932 1783.69 545.508 1779.65C545.508 1769.5 545.508 1759.28 545.508 1749.13C521.706 1743.79 492.487 1756.3 469.219 1749.13C453.274 1766.6 471.507 1783.39 469.219 1802.53C477.305 1795.9 489.054 1809.86 492.105 1810.16Z" fill="#A7BFA2"/>
<path d="M507.363 1802.53C533.683 1798.03 541.77 1809.55 545.508 1779.65C512.932 1783.69 515.374 1747.07 476.848 1756.76C465.938 1783.31 511.559 1780.79 507.363 1802.53Z" fill="#A9B273"/>
<path d="M354.785 1817.79C337.468 1824.81 320.608 1833.51 301.383 1833.05C301.841 1856.55 335.255 1866.47 324.27 1894.08C381.944 1908.65 356.311 1848.77 354.785 1817.79Z" fill="#D5DB76"/>
<path d="M446.332 1886.45C452.13 1857.39 428.786 1864.63 415.817 1878.82C399.033 1832.59 450.605 1839.84 469.219 1833.05C449.765 1804.37 409.485 1851.59 377.672 1840.68C366.534 1907.36 434.965 1868.37 446.332 1886.45Z" fill="#A5C6AC"/>
<path d="M42 1939.86V2351.82C54.8166 2337.55 67.1754 2355.78 80.1445 2344.19C68.93 2376.38 115.466 2378.67 103.031 2412.85C128.283 2404.99 137.59 2422.61 156.434 2428.11C153.763 2399.04 159.104 2411.78 164.062 2382.33C154.45 2359.83 145.829 2311.77 179.32 2306.04C179.244 2293.76 183.821 2272.25 164.062 2275.53C154.526 2255.46 142.473 2247.07 156.434 2222.13C124.621 2261.11 185.957 2360.29 80.1445 2336.56C100.285 2315.5 88.46 2294.52 72.5156 2275.53C102.65 2264.31 104.938 2209.69 148.805 2214.5C148.805 2176.35 148.805 2138.21 148.805 2100.06C171.997 2167.43 147.05 2059.48 202.207 2084.81C202.207 2107.69 202.207 2130.58 202.207 2153.47C214.947 2153.47 227.611 2153.47 240.352 2153.47C222.118 2128.98 243.937 2067.56 202.207 2069.55C217.389 2009.58 186.263 1983.57 133.547 1993.26C154.374 1983.26 155.976 1971.21 164.062 1947.49C245.844 1966.79 253.855 1860.06 187.712 1879.51C121.569 1899.04 113.559 1921.85 42 1939.86Z" fill="#5A664F"/>
<path d="M476.847 1909.34C475.321 1909.49 470.363 1914.91 469.218 1916.97C459.758 1937.03 454.876 1991.2 438.703 1947.48C399.872 2017.59 458.309 2076.72 484.476 2122.95C484.781 2150.57 448.01 2133.55 431.074 2138.21C421.156 2168.57 459.53 2202.21 476.847 2176.35C482.416 2180.17 481.425 2195.96 484.476 2199.24C484.018 2198.78 499.429 2206.71 499.734 2206.87C525.062 2222.74 539.175 2248.6 568.394 2222.12C589.221 2265.3 626.298 2308.87 606.539 2351.82C613.71 2347.47 620.423 2343.04 629.425 2344.19C636.444 2332.29 653.762 2327.86 667.57 2328.93C670.393 2332.36 664.061 2349.45 667.57 2351.82C681.226 2360.97 692.974 2367.99 713.343 2367.07C713.343 2367.07 717.234 2367.61 720.972 2367.07C729.974 2365.85 735.772 2363.64 743.859 2359.45C714.64 2335.26 730.661 2292.84 766.746 2290.79C773.612 2240.21 721.125 2211.75 705.714 2183.98C697.17 2206.26 679.013 2220.83 675.199 2183.98C721.43 2163 684.43 2088.54 705.714 2046.66C681.149 2036.97 662.84 2041.4 675.199 2008.52C658.797 2037.81 659.56 1984.87 629.425 2008.52C660.17 2024.54 634.384 2048.72 606.539 2039.03C632.858 2010.27 596.316 1992.04 568.394 2000.89C549.169 1971.74 566.639 1965.72 591.281 1962.74C590.594 1939.02 546.194 1953.28 560.765 1916.97C573.277 1879.59 519.188 1907.81 522.621 1878.82C503.014 1898.66 507.134 1906.29 476.847 1909.34Z" fill="#D0D379"/>
<path d="M469.219 1916.97C470.363 1914.91 475.322 1909.49 476.848 1909.34C477 1901.1 462.963 1887.44 453.961 1886.45C459.149 1894.01 460.446 1914.83 469.219 1916.97Z" fill="#ACC9A8"/>
<path d="M705.715 2183.98C711.437 2163.38 686.033 2083.58 728.602 2084.8C731.349 2054.75 716.93 2017.75 682.829 2023.77C694.348 2005.24 671.309 1995.47 667.571 1985.63C645.6 1992.88 623.094 1995.01 598.911 1993.26C611.193 1975.48 605.243 1952.98 606.54 1932.23C591.206 1928.03 574.422 1925.82 560.766 1916.97C546.195 1953.28 590.595 1939.02 591.282 1962.74C566.641 1965.72 549.17 1971.74 568.395 2000.89C596.317 1992.04 632.859 2010.27 606.54 2039.03C634.385 2048.72 660.171 2024.54 629.426 2008.52C659.561 1984.87 658.798 2037.81 675.2 2008.52C662.841 2041.4 681.15 2036.97 705.715 2046.66C684.431 2088.54 721.431 2163 675.2 2183.98C679.014 2220.83 697.171 2206.26 705.715 2183.98Z" fill="#CADBA8"/>
<path d="M408.188 1947.48C367.983 1956.56 420.089 2000.66 408.188 1947.48V1947.48Z" fill="#A4BB9B"/>
<path d="M156.434 2222.12C164.673 2211.98 170.929 2214.88 179.32 2206.87C182.753 2200.54 192.671 2181.69 194.578 2176.35C196.18 2171.77 201.673 2155.75 202.207 2153.46C202.207 2130.58 202.207 2107.69 202.207 2084.8C147.05 2059.48 171.997 2167.43 148.805 2100.06C148.805 2138.21 148.805 2176.35 148.805 2214.5C104.938 2209.69 102.65 2264.31 72.5156 2275.53C88.46 2294.52 100.285 2315.5 80.1445 2336.56C185.957 2360.28 124.621 2261.11 156.434 2222.12Z" fill="#565342"/>
<path d="M392.93 2275.53C399.948 2292.16 403.534 2302.84 408.187 2321.3C412.383 2338.01 418.105 2364.79 415.816 2382.33C430.616 2367.61 475.703 2360.89 492.105 2344.19C478.602 2310.62 522.621 2319.47 514.992 2290.79C472.423 2289.49 476.924 2333.96 431.074 2321.3C422.988 2282.16 414.062 2260.42 400.559 2222.12C396.057 2185.74 375.078 2190.69 362.414 2161.09C348.758 2203.82 377.214 2238.22 392.93 2275.53Z" fill="#676044"/>
<path d="M179.32 2206.87C164.291 2234.94 153.306 2238.15 164.062 2275.53C183.821 2272.25 179.244 2293.76 179.32 2306.04C145.829 2311.77 154.45 2359.83 164.062 2382.33C168.563 2392.86 180.77 2409.72 186.949 2420.48C193.891 2432.61 202.359 2434.97 209.836 2443.36C246.607 2454.27 255.991 2412.01 286.125 2405.22C305.045 2451.91 388.962 2460.61 392.93 2412.85C400.558 2397.67 417.647 2384.09 408.187 2359.45C370.501 2348.46 365.771 2389.35 347.156 2405.22C334.492 2390.73 313.436 2380.88 293.754 2374.7C303.214 2365.09 323.583 2366.16 316.64 2344.19C304.739 2346.63 290.016 2340.53 278.496 2344.19C278.496 2373.56 239.817 2358.3 240.351 2382.33C202.893 2357.84 243.632 2331.45 248.133 2290.94C252.71 2250.51 256.448 2213.28 232.722 2176.35C221.661 2179.94 205.106 2171.55 194.578 2176.35C192.671 2181.69 182.753 2200.54 179.32 2206.87Z" fill="#A6BB62"/>
<path d="M156.434 2222.12C142.473 2247.07 154.526 2255.46 164.063 2275.53C153.306 2238.15 164.291 2234.94 179.32 2206.87C170.929 2214.88 164.673 2211.98 156.434 2222.12Z" fill="#798851"/>
<path d="M629.425 2344.19C620.423 2343.04 613.71 2347.47 606.538 2351.82C626.297 2308.87 589.221 2265.3 568.394 2222.12C539.175 2248.6 525.062 2222.74 499.734 2206.87C497.674 2242.19 543.295 2237.54 545.507 2267.9C568.775 2231.51 563.435 2286.13 591.281 2283.16C564.503 2317.56 565.647 2379.89 614.167 2389.96C627.823 2381.11 622.101 2353.34 629.425 2344.19Z" fill="#A0A758"/>
<path d="M278.496 2344.19C290.016 2340.53 304.74 2346.63 316.641 2344.19C345.096 2338.31 368.822 2303.83 408.188 2321.3C403.534 2302.84 399.948 2292.16 392.93 2275.53C381.257 2273.62 376.299 2256.07 362.414 2260.27C342.274 2294.14 302.375 2319.85 278.496 2344.19Z" fill="#78A5A0"/>
<path d="M553.137 2283.16C513.39 2300.7 505.151 2356.62 476.847 2374.7C475.017 2399.5 498.285 2417.73 522.621 2412.85C521.248 2365.55 571.751 2339 553.137 2283.16Z" fill="#B6C668"/>
<path d="M720.973 2367.07C717.692 2386.83 739.206 2382.26 751.488 2382.33C731.196 2346.78 763.39 2315.58 766.746 2290.79C730.662 2292.84 714.641 2335.26 743.86 2359.45C735.773 2363.64 729.975 2365.85 720.973 2367.07Z" fill="#A4CAB4"/>
</svg>
