<svg width="360" height="655" viewBox="0 0 360 655" fill="none" xmlns="http://www.w3.org/2000/svg">
<g clip-path="url(#clip0_382_5133)">
<path d="M277.271 66.1479C284.211 69.5985 280.846 81.6284 274.753 83.5223C268.654 85.4074 257.84 85.9964 255.477 77.6059C253.104 69.2206 255.435 64.012 259.091 54.4906C262.748 44.9691 252.425 43.2729 251.095 53.1302C249.773 62.9893 249.355 69.2065 242.553 74.6046C235.744 80.0007 228.269 75.1853 224.005 70.0664C219.741 64.9475 222.4 53.3992 230.238 54.4368C229.672 68.804 247.954 58.7619 241.571 49.6553C235.182 40.5468 225.203 42.5423 217.042 46.1898C208.886 49.8463 204.291 55.6016 198.214 61.3287C192.136 67.063 186.4 72.136 178.677 76.2795C170.952 80.4301 161.51 81.9755 152.938 79.5205C150.65 85.4849 145.611 101.568 154.014 104.115C162.416 106.662 174.517 112.195 180.871 107.97C187.22 103.735 191.2 98.6677 198.784 96.4245C206.368 94.1812 212.552 91.6579 220.624 91.6408C228.698 91.6167 239.702 91.9743 247.654 94.7589C255.606 97.5436 263.843 101.718 270.397 106.168C276.96 110.612 281.198 115.884 286.028 121.707C290.857 127.531 293.277 134.363 294.547 141.378C303.21 141.654 312.562 149.102 321.127 147.856C329.692 146.609 329.025 132.736 331.799 126.946C323.083 124.863 315.297 118.415 310.787 110.929C306.286 103.438 304.013 96.1654 301.276 88.238C298.534 80.3016 297.873 72.0208 292.11 65.3346C286.338 58.6537 278.3 52.0099 268.709 57.6106C259.117 63.2183 272.137 79.5775 277.271 66.1479Z" fill="#5C3A27"/>
<path d="M317.405 149.718C307.441 147.357 293.706 145.812 291.193 136.12C288.69 126.424 283.744 122.614 278.02 115.55C272.297 108.487 263.657 104.457 255.428 100.452C247.199 96.4466 233.279 93.7659 224.345 93.9114C215.416 94.066 206.997 95.3891 198.919 98.7243C190.84 102.059 184.199 106.452 179.001 113.019C170.718 110.823 162.442 108.629 154.159 106.433C153.468 109.037 152.779 111.635 152.089 114.24C159.889 116.422 170.076 118.858 177.64 121.015C185.204 123.173 186.736 114.243 192.963 111.214C199.19 108.186 203.44 104.907 210.18 103.64C216.927 102.375 222.798 100.832 229.926 101.454C237.047 102.073 247.33 105.065 253.861 107.967C260.39 110.876 264.954 115.064 270.19 119.498C275.434 123.928 277.439 128.918 281.329 134.644C285.211 140.376 282.845 148.781 290.681 150.228C298.517 151.676 307.57 155.178 315.523 156.815C316.149 154.452 316.778 152.081 317.405 149.718Z" fill="#593826"/>
<path d="M283.728 150.664C283.371 145.107 281.744 139.784 279.012 134.79C276.279 129.796 273.778 126.223 269.796 122.129C265.806 118.04 260.985 114.619 255.848 111.616C250.72 108.608 242.8 105.991 236.647 104.755C230.495 103.519 223.687 103.355 217.816 104.381C211.947 105.4 207.575 105.76 202.349 108.765C197.118 111.761 192.807 111.948 188.723 117.352C184.633 122.748 180.587 124.744 173.005 121.306C165.424 117.867 165.779 130.336 163.708 136.313C161.638 142.289 159.955 151.643 157.874 158.316C155.792 164.995 154.438 172.537 152.228 179.608C150.019 186.68 148.899 194.284 146.394 201.611C143.889 208.939 144.003 215.213 140.749 222.904C137.494 230.595 137.307 237.489 146.588 238.126C155.869 238.764 159.761 242.394 167.881 243.772C176.001 245.15 182.247 247.893 189.884 249.606C197.52 251.32 203.782 253.314 211.177 255.252C218.571 257.19 225.113 258.704 232.469 260.898C239.826 263.092 247.066 264.123 254.472 266.732C261.878 269.342 269.067 271.453 270.028 262.5C270.989 253.548 274.394 248.526 275.862 240.498C277.33 232.47 279.792 226.764 281.508 219.205C283.224 211.645 285.527 204.561 287.342 197.202C289.156 189.843 291.145 183.146 292.988 175.909C294.831 168.672 296.777 161.819 298.634 154.616C293.665 153.299 288.697 151.981 283.728 150.664ZM245.385 129.102C287.635 147.02 295.307 208.992 258.483 236.421C221.661 263.844 166.983 244.696 158.806 198.004C150.621 151.318 199.147 109.496 245.385 129.102Z" fill="#94694A"/>
<path d="M245.385 129.102C199.147 109.496 150.621 151.318 158.806 198.004C166.983 244.696 221.661 263.843 258.483 236.421C295.307 208.992 287.635 147.02 245.385 129.102ZM243.401 130.855C284.725 147.335 292.861 206.984 257.654 233.961C222.445 260.944 169.711 243.346 161.07 198.491C152.43 153.636 198.862 113.09 243.401 130.855Z" fill="#0D0C0A"/>
<path d="M243.401 130.854C198.862 113.089 152.43 153.635 161.07 198.49C169.711 243.345 222.445 260.944 257.654 233.96C292.861 206.983 284.725 147.334 243.401 130.854ZM262.059 146.437C262.714 150.842 267.588 154.778 269.846 159.327C272.104 163.876 272.889 170.344 277.185 172.478C275.1 176.703 276.261 181.691 276.735 186.549C277.217 191.409 274.187 198.279 276.943 202.041C273.296 204.447 271.334 211.477 268.769 215.879C266.209 220.29 261.28 223.579 262.317 228.549C257.835 226.487 253.946 232.847 249.355 235.178C244.766 237.501 239.48 239.586 235.755 242.777C229.246 241.795 223.111 243.42 215.681 243.364C208.253 243.301 201.818 240.668 195.203 237.509C188.588 234.35 184.494 228.79 178.076 228.243C178.744 223.573 173.843 219.395 171.186 214.831C168.53 210.268 167.32 203.398 163.138 201.492C166.06 198.18 163.862 192.659 163.705 187.953C163.556 183.242 165.572 176.271 163.192 172.639C166.704 170.197 168.874 163.07 171.288 158.666C173.702 154.261 178.712 150.751 177.818 146.13C182.249 146.409 186.153 141.883 190.269 138.622C194.385 135.36 202.18 135.217 204.047 130.295C210.651 132.517 216.351 129.645 223.828 130.238C231.311 130.839 238.418 132.541 245.12 135.861C251.812 139.185 255.807 143.944 262.059 146.437Z" fill="#D6C7B8"/>
<path d="M262.059 146.437C255.807 143.944 251.812 139.185 245.12 135.861C238.418 132.542 231.311 130.839 223.828 130.238C216.351 129.645 210.651 132.518 204.047 130.295C202.18 135.217 194.385 135.361 190.269 138.622C186.153 141.883 182.249 146.409 177.818 146.131C178.712 150.751 173.702 154.262 171.288 158.666C168.875 163.07 166.704 170.197 163.192 172.639C165.572 176.271 163.556 183.242 163.705 187.953C163.862 192.659 166.06 198.18 163.138 201.492C167.32 203.399 168.53 210.268 171.186 214.831C173.843 219.395 178.744 223.573 178.076 228.243C184.494 228.79 188.588 234.35 195.203 237.509C201.818 240.668 208.253 243.302 215.681 243.364C223.111 243.42 229.246 241.796 235.755 242.777C239.48 239.586 244.766 237.501 249.355 235.178C253.946 232.847 257.835 226.487 262.317 228.549C261.28 223.58 266.209 220.29 268.769 215.879C271.334 211.477 273.296 204.447 276.943 202.041C274.187 198.279 277.217 191.41 276.735 186.549C276.261 181.691 275.1 176.703 277.185 172.478C272.889 170.344 272.104 163.876 269.846 159.327C267.589 154.778 262.714 150.842 262.059 146.437ZM239.056 135.78C277.459 147.55 285.941 201.623 256.759 227.25C227.577 252.877 180.431 240.847 168.143 203.389C155.846 165.936 190.604 125.181 229.829 133.333C233.013 133.646 236.174 134.56 239.056 135.78Z" fill="#11110E"/>
<path d="M229.829 133.334C232.903 133.974 236.056 134.863 239.056 135.78C236.174 134.56 233.013 133.646 229.829 133.334Z" fill="#777169"/>
<path d="M239.056 135.78C236.056 134.863 232.903 133.974 229.829 133.333C190.604 125.181 155.846 165.936 168.143 203.389C180.431 240.847 227.577 252.877 256.759 227.25C285.941 201.623 277.459 147.55 239.056 135.78ZM229.743 139.388C232.055 134.28 236.805 136.565 241.519 137.952C238.693 141.275 236.392 147.031 237.943 151.438C234.629 150.559 231.321 149.682 228.007 148.803C229.175 147.434 228.902 146.055 228.426 144.356C225.756 145.601 227.358 149.96 223.038 147.486C227.562 144.378 228.394 139.235 227.324 134.188C230.753 134.004 229.649 137.221 229.743 139.388ZM211.999 134.683C211.27 138.979 212.409 144.052 214.666 147.545C212.486 148.463 210.215 148.689 208.047 149.588C207.346 148.392 207.838 146.167 206.149 145.286C205.205 147.9 207.498 150.855 203.224 150.588C206.344 146.956 205.295 140.373 200.181 139.146C201.072 134.725 205.397 136.807 205.149 140.463C207.332 139.735 205.559 137.055 206.466 135.495C208.378 135.964 210.016 133.967 211.999 134.683ZM258.424 151.551C254.462 153.288 251.049 156.675 249.214 160.503C242.099 157.082 255.915 154.311 255.44 148.48C256.688 149.016 258.3 150.013 258.424 151.551ZM185.813 147.491C184.924 152.391 189.32 156.815 194.244 155.804C193.057 159.538 191.067 158.19 188.711 156.616C188.349 159.414 193.006 161.105 188.104 161.772C189.469 156.482 184.358 153.782 179.673 153.459C181.308 151.303 182.821 147.518 185.813 147.491ZM270.985 170.074C270.762 172.492 271.824 174.817 272.13 177.215C268.017 175.509 261.574 177.834 258.371 180.404C257.899 177.886 256.803 175.628 256.515 173.075C260.947 174.926 267.453 172.108 270.985 170.074ZM239.874 178.538C238.078 179.581 236.34 180.776 234.486 181.667C231.414 183.139 228.236 185.586 224.985 185.985C225.655 194.314 212.292 191.796 216.279 184.436C212.79 180.579 209.437 176.264 206.66 172.01C204.947 172.999 203.152 172.835 201.315 172.112C202.436 168.285 200.193 164.628 199.691 161.046C202.82 162.97 214.202 164.825 208.832 169.547C213.131 173.992 219.077 186.006 225.983 181.502C232.889 177.005 242.005 176.717 243.928 168.977C247.585 169.309 251.172 168.186 254.806 168.063C253.767 171.867 249.853 173.936 249.144 177.957C246.146 174.564 243.349 176.778 239.874 178.538ZM183.485 173.462C183.818 175.875 181.127 180.578 180.329 182.501C176.709 180.508 171.437 178.304 167.365 179.823C168.368 176.04 169.373 172.25 170.376 168.467C172.438 169.743 174.234 172.566 176.73 173.182C179.216 173.804 183.34 170.37 183.485 173.462ZM272.582 195.567C271.703 198.881 270.826 202.189 269.947 205.503C266.048 203.421 260.926 201.736 256.462 201.928C257.277 198.854 258.093 195.774 258.908 192.701C262.893 194.775 268.531 196.977 272.582 195.567ZM180.243 188.555C180.546 191.879 182.551 194.834 182.243 198.201C178.452 197.743 173.365 198.651 170.801 201.245C174.64 200.888 178.511 200.646 182.388 200.519C181.029 205.043 173.98 204.754 172.468 209.283C168.394 205.248 175.232 204.729 177.377 202.229C174.737 201.985 172.126 202.637 169.526 203.186C168.742 199.21 166.708 195.336 167.381 191.222C171.895 192.822 176.506 190.413 180.243 188.555ZM262.634 218.758C260.018 222.379 256.591 225.451 253.235 228.42C251.462 224.509 248.526 220.281 244.471 218.5C244.938 216.823 246.945 216.33 247.729 214.806C250.336 218.011 253.779 220.238 257.059 222.597C256.1 219.137 251.549 216.616 248.627 214.284C249.281 212.505 250.973 211.396 252.074 209.88C255.769 212.448 257.775 217.689 262.634 218.758ZM191.298 212.757C189.069 216.207 185.028 218.44 182.797 221.898C186.486 220.217 189.7 216.291 194.094 216.537C192.574 220.578 189.298 223.622 188.055 227.85C182.407 226.292 189.805 222.313 190.314 219.333C187.931 220.585 184.251 221.425 183.652 224.404C181.387 222.975 179.741 220.586 177.495 218.973C180.445 215.41 185.002 212.949 187.082 208.601C188.319 210.212 189.774 211.457 191.298 212.757ZM238.868 236.765C233.56 239.536 236.628 231.203 231.668 229.539C230.966 232.817 235.506 239.991 229.41 238.056C232.299 234.294 229.56 229.094 230.668 224.715C233.838 228.002 237.045 232.955 238.868 236.765ZM206.784 225.979C206.359 229.042 204.116 232.602 205.047 235.394C208.022 233.858 208.178 226.85 210.897 224.791C212.668 229.112 210.379 234.423 212.478 238.884C206.789 239.108 211.078 233.218 209.391 230.469C206.992 233.646 206.405 239.211 201.122 235.873C203.313 232.306 204.635 227.263 204.509 223.097C206.506 223.474 208.705 223.86 206.784 225.979Z" fill="#DFD1C2"/>
<path d="M229.743 139.388C229.65 137.221 230.753 134.004 227.324 134.189C228.394 139.235 227.562 144.378 223.038 147.486C227.358 149.961 225.756 145.601 228.426 144.357C228.902 146.055 229.175 147.434 228.007 148.803C231.321 149.682 234.629 150.559 237.943 151.438C236.392 147.031 238.693 141.275 241.519 137.953C236.805 136.566 232.055 134.281 229.743 139.388ZM230.512 147.948C230.035 143.674 230.258 140.656 233.335 137.302C235.289 139.157 233.207 147.326 230.512 147.948ZM234.959 148.368C234.879 148.498 235.171 140.721 236.696 138.953C237.813 137.661 237.303 147.006 234.959 148.368Z" fill="#1B1916"/>
<path d="M125.295 232.48C131.216 235.334 136.876 235.703 137.635 228.915C138.394 222.128 140.974 218.041 142.152 211.881C143.33 205.721 145.283 200.701 146.669 194.847C148.054 188.992 149.44 184.225 150.997 178.522C152.555 172.82 153.756 167.145 155.514 161.488C157.272 155.831 157.899 150.057 160.031 144.454C162.162 138.85 161.618 132.91 164.547 127.419C167.477 121.929 164.249 116.454 158.116 117.38C151.976 118.305 154.441 126.912 152.019 131.694C149.596 136.476 149.418 143.478 147.502 148.728C145.586 153.978 144.667 160.336 142.985 165.763C141.304 171.189 140.226 176.57 138.657 182.087C137.088 187.604 135.671 193.549 134.14 199.122C132.609 204.694 131.126 210.606 129.624 216.156C128.12 221.713 126.782 226.957 125.295 232.48Z" fill="#563826"/>
<path d="M230.512 147.949C233.207 147.326 235.289 139.157 233.335 137.302C230.258 140.657 230.035 143.674 230.512 147.949Z" fill="#CFC3B5"/>
<path d="M236.696 138.953C236.777 141.253 236.474 146.035 234.959 148.368C237.303 147.007 237.813 137.661 236.696 138.953Z" fill="#877D74"/>
<path d="M309.99 157.627C306.917 156.812 303.836 155.996 300.763 155.181C290.6 193.508 280.438 231.835 270.275 270.163C273.348 270.977 276.429 271.794 279.502 272.609C289.665 234.282 299.827 195.954 309.99 157.627Z" fill="#5A3B29"/>
<path d="M234.959 148.367C236.474 146.034 236.777 141.253 236.696 138.952C235.171 140.721 234.879 148.498 234.959 148.367Z" fill="#E9DDD2"/>
<path d="M211.999 134.684C210.016 133.968 208.378 135.964 206.466 135.496C205.559 137.055 207.332 139.736 205.149 140.464C205.397 136.807 201.072 134.726 200.181 139.147C205.295 140.373 206.344 146.957 203.224 150.589C207.498 150.856 205.205 147.901 206.149 145.287C207.838 146.168 207.346 148.393 208.047 149.589C210.215 148.69 212.486 148.464 214.666 147.545C212.409 144.053 211.27 138.98 211.999 134.684ZM209.117 136.958C209.711 140.42 211.737 143.723 210.929 147.314C207.878 145.586 204.537 138.676 209.117 136.958Z" fill="#1E1D19"/>
<path d="M258.424 151.551C258.3 150.014 256.688 149.016 255.44 148.48C255.915 154.311 242.099 157.082 249.214 160.503C251.049 156.675 254.462 153.288 258.424 151.551Z" fill="#171613"/>
<path d="M209.117 136.958C204.537 138.676 207.878 145.586 210.929 147.314C211.737 143.722 209.711 140.42 209.117 136.958Z" fill="#D6C8BA"/>
<path d="M185.813 147.491C182.821 147.518 181.308 151.303 179.673 153.46C184.358 153.783 189.469 156.483 188.104 161.773C193.006 161.105 188.349 159.415 188.711 156.616C191.067 158.19 193.057 159.538 194.244 155.804C189.32 156.815 184.924 152.391 185.813 147.491ZM185.206 152.648C180.213 152.312 184.645 147.858 185.206 152.648V152.648Z" fill="#22211D"/>
<path d="M270.985 170.075C267.453 172.109 260.947 174.927 256.515 173.075C256.803 175.628 257.899 177.886 258.371 180.404C261.574 177.835 268.017 175.51 272.13 177.216C271.824 174.818 270.762 172.492 270.985 170.075ZM270.044 173.624C267.495 176.161 262.295 176.089 258.602 176.667C261.984 174.943 266.182 173.891 270.044 173.624Z" fill="#181814"/>
<path d="M234.486 181.668C236.282 180.625 238.019 179.429 239.874 178.538C243.349 176.778 246.146 174.565 249.144 177.958C249.853 173.937 253.767 171.868 254.806 168.064C251.172 168.187 247.585 169.31 243.928 168.978C242.005 176.718 232.889 177.005 225.984 181.502C219.077 186.007 213.131 173.992 208.832 169.548C214.202 164.826 202.82 162.97 199.691 161.047C200.193 164.629 202.436 168.285 201.315 172.113C203.152 172.835 204.947 173 206.66 172.011C209.437 176.264 212.79 180.579 216.279 184.437C212.292 191.797 225.655 194.314 224.985 185.985C228.236 185.586 231.414 183.14 234.486 181.668Z" fill="#060606"/>
<path d="M185.206 152.648C180.213 152.312 184.645 147.858 185.206 152.648V152.648Z" fill="#D7C6B8"/>
<path d="M270.044 173.623C266.182 173.891 261.984 174.942 258.602 176.666C262.295 176.088 267.495 176.16 270.044 173.623Z" fill="#BBADA0"/>
<path d="M234.486 181.668C236.34 180.777 238.078 179.581 239.874 178.538C238.019 179.429 236.282 180.625 234.486 181.668Z" fill="#706A61"/>
<path d="M180.329 182.501C180.787 180.457 181.85 178.453 181.124 176.634C179.833 177.12 179.693 176.445 178.285 175.882C178.822 174.717 181.173 174.361 181.313 175.925C181.607 175.615 183.439 173.723 183.485 173.462C183.34 170.37 179.216 173.804 176.73 173.183C174.234 172.566 172.438 169.743 170.376 168.467C169.373 172.25 168.368 176.04 167.365 179.823C171.437 178.305 176.709 180.508 180.329 182.501ZM172.984 172.957C170.205 169.713 169.519 174.735 172.984 172.957V172.957ZM180.56 178.764C177.732 178.857 170.838 178.328 170.102 175.231C174.184 174.703 177.635 175.641 180.56 178.764Z" fill="#21201D"/>
<path d="M272.582 195.567C268.531 196.977 262.893 194.776 258.908 192.701C258.093 195.774 257.277 198.855 256.462 201.928C260.926 201.737 266.048 203.421 269.947 205.504C270.826 202.189 271.703 198.882 272.582 195.567ZM270.221 198.739C267.817 198.467 261.694 198.583 259.387 196.626C258.704 196.05 269.352 195.774 270.221 198.739ZM269.469 201.578C267.268 203.031 258.589 198.891 258.822 198.755C261.31 197.311 267.503 200.427 269.469 201.578Z" fill="#1B1A18"/>
<path d="M181.313 175.925C181.09 176.162 181.125 176.635 181.125 176.635C181.85 178.453 180.787 180.458 180.329 182.501C181.127 180.578 183.818 175.875 183.485 173.462C183.439 173.723 181.607 175.616 181.313 175.925Z" fill="#857C75"/>
<path d="M172.984 172.957C170.205 169.713 169.519 174.735 172.984 172.957V172.957Z" fill="#DDCFC3"/>
<path d="M259.387 196.626C262.711 195.806 266.673 198.254 270.221 198.739C269.352 195.774 258.704 196.05 259.387 196.626Z" fill="#625C55"/>
<path d="M181.125 176.635C181.125 176.635 181.09 176.162 181.313 175.925C181.173 174.361 178.822 174.718 178.285 175.882C179.693 176.445 179.833 177.121 181.125 176.635Z" fill="#D3C6BC"/>
<path d="M259.387 196.627C261.694 198.583 267.817 198.467 270.221 198.74C266.673 198.255 262.711 195.806 259.387 196.627Z" fill="#EBDDD2"/>
<path d="M180.56 178.764C177.635 175.641 174.184 174.703 170.102 175.231C170.838 178.328 177.732 178.857 180.56 178.764Z" fill="#DBCDBF"/>
<path d="M258.822 198.755C262.309 198.556 265.966 201.493 269.469 201.578C267.503 200.426 261.31 197.311 258.822 198.755Z" fill="#514C46"/>
<path d="M269.469 201.578C265.966 201.493 262.309 198.555 258.822 198.755C258.589 198.891 267.268 203.03 269.469 201.578Z" fill="#EEE0D5"/>
<path d="M180.243 188.555C176.506 190.413 171.895 192.822 167.381 191.222C166.708 195.336 168.742 199.21 169.526 203.186C172.126 202.637 174.737 201.985 177.377 202.229C175.232 204.729 168.394 205.248 172.468 209.283C173.98 204.754 181.029 205.043 182.388 200.519C178.511 200.645 174.64 200.888 170.801 201.245C173.365 198.651 178.452 197.743 182.243 198.201C182.551 194.834 180.546 191.879 180.243 188.555ZM180.011 192.292C176.753 193.836 172.477 194.207 168.757 194.626C171.985 192.823 176.268 192.029 180.011 192.292ZM180.678 195.508C177.223 196.764 173.187 197.631 169.424 197.841C171.841 195.747 177.63 194.426 180.678 195.508Z" fill="#1F1D1A"/>
<path d="M262.634 218.758C257.775 217.69 255.769 212.448 252.074 209.881C250.973 211.397 249.281 212.506 248.627 214.285C251.549 216.617 256.1 219.137 257.059 222.597C253.779 220.239 250.336 218.012 247.729 214.806C246.945 216.33 244.938 216.824 244.471 218.5C248.526 220.282 251.462 224.509 253.235 228.421C256.591 225.451 260.018 222.379 262.634 218.758ZM259.941 220.323C256.712 219.664 252.303 215.35 251.509 212.01C254.114 214.995 257.58 217.335 259.941 220.323ZM255.408 225.958C252.538 224.749 250.178 221.761 248.918 218.92C251.205 220.81 255.45 222.619 255.408 225.958Z" fill="#1E1C18"/>
<path d="M180.011 192.292C176.268 192.029 171.985 192.823 168.757 194.626C172.477 194.206 176.753 193.836 180.011 192.292Z" fill="#D2BFB4"/>
<path d="M259.941 220.323C257.58 217.334 254.114 214.994 251.509 212.01C252.303 215.35 256.712 219.664 259.941 220.323Z" fill="#C7B4A9"/>
<path d="M180.678 195.508C177.63 194.426 171.841 195.748 169.424 197.842C173.187 197.632 177.223 196.765 180.678 195.508Z" fill="#C8B8AB"/>
<path d="M255.408 225.957C255.45 222.618 251.205 220.809 248.918 218.919C250.178 221.76 252.538 224.748 255.408 225.957Z" fill="#C8B8AE"/>
<path d="M191.298 212.757C189.774 211.457 188.319 210.213 187.082 208.601C185.002 212.949 180.445 215.41 177.495 218.973C179.741 220.587 181.387 222.975 183.652 224.404C184.251 221.426 187.931 220.586 190.314 219.333C189.805 222.313 182.407 226.292 188.055 227.851C189.298 223.622 192.574 220.579 194.094 216.537C189.7 216.292 186.486 220.218 182.797 221.898C185.028 218.441 189.069 216.208 191.298 212.757ZM189.168 212.193C186.64 214.796 183.81 218.878 180.334 219.726C182.565 216.869 185.246 212.459 189.168 212.193Z" fill="#181915"/>
<path d="M189.168 212.193C185.246 212.459 182.565 216.869 180.334 219.726C183.81 218.878 186.64 214.796 189.168 212.193Z" fill="#C9B8AA"/>
<path d="M238.868 236.766C237.045 232.955 233.838 228.002 230.668 224.716C229.56 229.094 232.299 234.295 229.41 238.056C235.506 239.992 230.966 232.817 231.668 229.539C236.628 231.204 233.56 239.536 238.868 236.766Z" fill="#1E1C1A"/>
<path d="M205.047 235.394C202.176 236.882 206.671 226.405 206.784 225.979C208.705 223.86 206.506 223.474 204.509 223.097C204.635 227.263 203.313 232.306 201.122 235.873C206.405 239.211 206.992 233.646 209.391 230.469C211.078 233.218 206.789 239.108 212.478 238.884C210.379 234.423 212.668 229.112 210.897 224.791C208.178 226.85 208.022 233.858 205.047 235.394Z" fill="#151613"/>
<path d="M205.047 235.395C204.116 232.603 206.359 229.042 206.784 225.979C206.671 226.405 202.176 236.882 205.047 235.395Z" fill="#615D54"/>
<path d="M287.267 277.706C283.298 274.109 274.442 275.506 269.522 273.002C264.603 270.497 257.85 270.438 252.488 268.485C247.126 266.531 241.056 265.674 235.454 263.968C229.851 262.262 223.388 260.853 217.71 259.263C212.031 257.674 206.357 256.238 200.675 254.747C194.993 253.255 189.326 251.623 183.641 250.23C177.956 248.837 172.308 246.929 166.607 245.713C160.905 244.498 154.507 241.867 148.862 241.008C143.218 240.15 137.289 236.466 131.828 236.492C126.367 236.517 120.529 229.713 115.477 233.151C110.42 236.581 118.512 242.047 123.558 241.896C128.605 241.745 135.189 245.648 140.593 246.412C145.996 247.177 152.046 249.745 157.627 250.929C163.208 252.113 168.976 254.052 174.661 255.446C180.346 256.839 186.7 258.661 192.405 260.151C198.118 261.642 203.77 263.103 209.44 264.667C215.11 266.231 220.857 267.505 226.474 269.184C232.091 270.863 238.764 272.025 244.218 273.889C249.672 275.753 256.227 276.101 261.253 278.405C266.278 280.71 274.119 279.645 278.287 282.922C282.454 286.2 292.345 282.304 287.267 277.706Z" fill="#5A3928"/>
<path d="M274.883 284.298C224.664 271.484 174.461 256.661 124.225 245.111C125.192 260.059 143.698 258.623 156.035 262.661C168.373 266.7 185.085 270.311 197.911 273.765C210.738 277.219 227.232 282.17 239.788 284.868C252.343 287.567 267.892 297.858 274.883 284.298Z" fill="#553625"/>
<path d="M261.226 292.832C218.164 281.414 175.11 269.998 132.049 258.58C106.015 356.762 79.9806 454.951 53.9475 553.132C97.0089 564.55 140.063 575.966 183.125 587.384C209.158 489.202 235.193 391.013 261.226 292.832ZM215.489 327.804C223.549 329.234 233.129 330.696 229.034 339.751C224.938 348.807 226.239 355.077 222.635 363.883C228.215 364.413 224.313 371.393 223.549 374.761C222.785 378.129 222.265 385.276 217.365 383.757C206.386 425.164 195.411 466.558 184.431 507.966C189.901 511.976 182.213 521.659 182.189 527.882C176.709 530.501 175.791 538.089 174.457 545.583C173.123 553.077 170.758 561.08 162.364 556.81C153.97 552.541 148.563 554.222 141.071 551.164C133.579 548.107 125.916 548.012 119.068 545.33C112.221 542.649 102.943 542.285 97.0657 539.496C91.1885 536.707 79.1657 538.617 79.3736 531.759C79.5815 524.901 84.047 516.855 85.1987 509.761C86.3503 502.668 89.4739 494.927 91.0327 487.759C92.5915 480.591 94.916 473.686 96.6786 466.466C98.4412 459.245 100.66 451.736 102.513 444.463C104.365 437.191 106.471 429.734 108.347 422.46C110.222 415.186 112.115 408.479 113.993 401.167C115.87 393.856 117.971 386.566 119.827 379.165C121.683 371.764 123.89 364.699 125.661 357.162C127.431 349.625 129.734 343.778 131.307 335.869C132.879 327.96 135.961 322.556 137.141 313.866C138.32 305.177 147.646 309.572 154.449 311.619C159.108 295.139 176.51 286.436 192.685 290.611C208.86 294.786 219.526 311.288 215.489 327.804ZM107.04 401.603C111.773 404.324 104.159 423.842 99.1197 420.014C94.0731 416.184 101.516 398.429 107.04 401.603Z" fill="#5C3B28"/>
<path d="M215.489 327.803C219.526 311.288 208.86 294.786 192.685 290.611C176.51 286.436 159.108 295.138 154.449 311.618C147.646 309.572 138.32 305.177 137.141 313.866C135.961 322.555 132.879 327.96 131.307 335.869C129.734 343.778 127.431 349.624 125.661 357.162C123.89 364.699 121.683 371.764 119.827 379.164C117.971 386.565 115.87 393.856 113.993 401.167C112.115 408.479 110.222 415.186 108.347 422.46C106.471 429.734 104.365 437.19 102.513 444.463C100.66 451.735 98.4412 459.245 96.6786 466.465C94.916 473.686 92.5915 480.59 91.0327 487.758C89.4739 494.927 86.3503 502.667 85.1987 509.761C84.047 516.855 79.5815 524.901 79.3736 531.759C79.1657 538.616 91.1885 536.707 97.0657 539.496C102.943 542.285 112.221 542.648 119.068 545.33C125.916 548.012 133.579 548.106 141.071 551.164C148.563 554.222 153.97 552.541 162.364 556.81C170.758 561.079 173.123 553.076 174.457 545.583C175.791 538.089 176.709 530.5 182.189 527.882C182.213 521.659 189.901 511.976 184.431 507.965C195.411 466.558 206.386 425.164 217.365 383.756C222.265 385.276 222.785 378.129 223.549 374.761C224.313 371.393 228.215 364.413 222.635 363.883C226.239 355.077 224.938 348.807 229.034 339.751C233.129 330.695 223.549 329.234 215.489 327.803ZM162.16 445.845C160.462 447.347 158.043 444.411 156.293 445.049C153.77 446.514 154.575 451.643 153.137 454.088C179.385 463.364 166.473 507.45 139.297 500.556C137.379 500.366 136.052 500.045 134.328 499.238C108.316 490.533 119.006 448.327 146.039 452.206C146.37 449.125 148.773 445.592 147.776 442.79C146.721 441.44 144.013 442.514 142.996 440.763C140.482 436.435 147.445 436.162 149.803 438.01C162.727 389.271 175.65 340.531 188.572 291.799C190.935 292.426 193.306 293.054 195.669 293.681C182.746 342.42 169.824 391.153 156.901 439.892C159.03 440.457 161.16 441.021 163.289 441.586C162.913 443.006 162.536 444.425 162.16 445.845ZM186.254 291.944C173.583 339.732 160.91 387.528 148.239 435.316C142.216 431.471 141.179 437.562 140.302 442.328C145.818 442.211 146.478 445.88 144.287 450.222C113.643 448.44 106.948 494.174 136.603 502.12C166.257 510.067 183.293 466.619 155.643 453.233C156.207 451.103 156.772 448.974 157.337 446.845C159.466 447.409 161.595 447.974 163.724 448.539C165.865 443.788 166.604 438.021 159.595 438.328C172.268 390.532 184.939 342.744 197.61 294.955C201.998 297.691 208.626 300.254 210.409 306.135C212.192 312.017 216.314 315.237 214.075 322.62C211.83 330.001 219.135 333.647 227.512 334.03C207.94 407.845 188.367 481.661 168.795 555.476C139.929 547.822 111.07 540.17 82.2037 532.517C101.774 458.708 121.35 384.878 140.921 311.07C149.233 311.466 154.295 319.334 158.193 308.76C162.083 298.183 175.063 290.488 186.254 291.944ZM223.49 366.389C221.315 371.152 222.143 378.604 217.93 381.627C218.683 377.041 218.624 367.78 223.49 366.389ZM180.436 525.897C180.205 526.026 179.726 525.709 179.726 525.709C178.533 523.737 181.906 511.185 183.867 510.094C184.098 509.966 184.576 510.283 184.576 510.283C185.768 512.262 182.399 524.8 180.436 525.897Z" fill="#0B0906"/>
<path d="M142.996 440.763C144.074 442.113 146.749 441.021 147.776 442.79C148.773 445.592 146.37 449.125 146.039 452.206C119.006 448.327 108.316 490.533 134.328 499.238C135.918 499.774 137.658 500.205 139.297 500.556C166.473 507.45 179.385 463.364 153.137 454.088C154.575 451.643 153.77 446.514 156.293 445.049C158 444.058 160.229 445.621 162.16 445.845C162.536 444.425 162.913 443.006 163.289 441.586C161.16 441.021 159.03 440.457 156.901 439.892C169.824 391.153 182.746 342.42 195.669 293.681C193.306 293.054 190.935 292.425 188.572 291.799C175.65 340.531 162.727 389.271 149.803 438.01C147.445 436.162 140.482 436.435 142.996 440.763Z" fill="#B6A89B"/>
<path d="M186.254 291.944C175.063 290.488 162.083 298.184 158.193 308.76C154.295 319.334 149.233 311.466 140.921 311.07C121.35 384.878 101.774 458.708 82.2037 532.517C111.07 540.171 139.929 547.823 168.795 555.476C188.367 481.661 207.94 407.845 227.512 334.03C219.135 333.647 211.83 330.001 214.075 322.62C216.314 315.237 212.192 312.017 210.409 306.135C208.626 300.254 201.998 297.691 197.61 294.955C184.939 342.744 172.268 390.532 159.595 438.328C166.604 438.021 165.865 443.789 163.724 448.539C161.595 447.974 159.466 447.409 157.337 446.845C156.772 448.974 156.207 451.103 155.643 453.233C183.293 466.619 166.257 510.067 136.603 502.12C106.948 494.174 113.643 448.44 144.287 450.222C146.478 445.88 145.818 442.211 140.302 442.328C141.179 437.562 142.216 431.471 148.239 435.317C160.91 387.528 173.583 339.733 186.254 291.944Z" fill="#362416"/>
<path d="M223.49 366.389C218.624 367.78 218.683 377.041 217.93 381.627C222.143 378.604 221.315 371.153 223.49 366.389ZM222.592 366.91C221.337 371.644 220.083 376.372 218.828 381.106C218.723 376.831 220.354 370.51 222.592 366.91Z" fill="#3C291D"/>
<path d="M222.592 366.911C220.354 370.511 218.723 376.832 218.828 381.106C220.083 376.372 221.337 371.645 222.592 366.911Z" fill="#724932"/>
<path d="M107.04 401.603C101.516 398.429 94.0731 416.184 99.1197 420.014C104.159 423.842 111.773 404.324 107.04 401.603ZM105.766 403.544C104.448 408.513 103.131 413.481 101.814 418.45C98.8765 415.574 101.754 404.577 105.766 403.544Z" fill="#0A0704"/>
<path d="M105.766 403.544C101.754 404.577 98.8765 415.574 101.814 418.449C103.131 413.481 104.448 408.513 105.766 403.544Z" fill="#875E41"/>
<path d="M147.776 442.791C146.749 441.022 144.074 442.113 142.996 440.764C144.013 442.515 146.721 441.44 147.776 442.791Z" fill="#635A54"/>
<path d="M156.293 445.05C158.043 444.412 160.462 447.348 162.16 445.846C160.229 445.622 158 444.059 156.293 445.05Z" fill="#70655C"/>
<path d="M179.726 525.71C180.592 520.667 182.113 514.902 183.867 510.095C181.906 511.186 178.533 523.737 179.726 525.71Z" fill="#36251A"/>
<path d="M179.726 525.71C179.726 525.71 180.205 526.026 180.436 525.898C182.188 521.098 183.719 515.32 184.576 510.283C184.576 510.283 184.098 509.966 183.867 510.095C182.113 514.902 180.592 520.667 179.726 525.71Z" fill="#744C34"/>
<path d="M180.436 525.898C182.399 524.8 185.768 512.263 184.576 510.283C183.719 515.32 182.188 521.098 180.436 525.898Z" fill="#34241A"/>
<path d="M139.297 500.556C137.658 500.205 135.918 499.774 134.328 499.238C136.052 500.045 137.379 500.366 139.297 500.556Z" fill="#675E55"/>
<path d="M193.368 606.053C196.883 588.297 176.872 588.301 163.396 584.432C149.92 580.562 131.962 576.12 117.971 572.387C103.981 568.655 85.4904 563.555 71.8368 560.155C58.1831 556.755 41.4022 547.185 35.8001 564.273C88.3227 578.2 140.845 592.126 193.368 606.053Z" fill="#5A3927"/>
<path d="M195.675 631.734C199.336 621.651 203.893 609.391 191.384 607.806C178.874 606.221 171.53 601.805 160.154 599.525C148.779 597.246 139.805 593.902 128.924 591.245C118.044 588.588 109.161 586.164 98.4046 583.152C87.6486 580.141 78.1161 578.388 67.1749 574.872C56.2338 571.355 47.4153 571.122 35.9453 566.591C24.4753 562.061 23.1742 575.534 21.0725 585.438C79.2732 600.87 137.474 616.302 195.675 631.734Z" fill="#5C3C29"/>
</g>
<defs>
<clipPath id="clip0_382_5133">
<rect width="206.336" height="622.679" fill="white" transform="translate(159.59) rotate(14.8504)"/>
</clipPath>
</defs>
</svg>
