<svg width="350" height="491" viewBox="0 0 350 491" fill="none" xmlns="http://www.w3.org/2000/svg">
<g clip-path="url(#clip0_382_6035)">
<path d="M132.744 108.786C132.688 107.394 132.388 105.77 133.37 104.599C133.14 104.717 132.311 104.803 132.092 105.66C124.197 99.2071 118.611 92.0644 119.289 81.7853C119.967 71.5061 125.285 64.7615 135.229 63.5052C145.172 62.2439 151.416 68.2519 156.06 76.0996C160.701 83.9424 154.942 92.6503 152.135 100.676C152.131 100.594 152.625 100.486 152.625 100.486C153.761 100.044 154.949 99.6658 156.052 99.1524C161.95 97.899 164.123 89.128 163.816 84.3131C163.516 79.501 163.639 77.0649 161.757 73.2855C159.871 69.5128 156.902 67.3282 154.263 64.5021C151.629 61.6742 148.514 60.3744 145.003 58.8116C141.492 57.2489 138.022 57.3995 134.216 57.5119C130.41 57.6242 127.708 59.329 124.572 61.3945C121.44 63.458 120.083 65.6196 117.678 68.5048C115.272 71.39 115.736 74.8991 114.285 78.3702C112.834 81.8412 112.684 85.5104 113.771 89.0866C114.854 92.6647 116.727 96.639 118.939 99.468C121.143 102.294 124.24 104.474 124.966 106.18C127.845 105.899 129.483 109.689 132.744 108.786Z" fill="#201408"/>
<path d="M133.37 104.6C135.873 103.327 138.584 102.441 141.583 102.53C137.956 99.0751 130.616 99.667 127.235 94.5841C123.846 89.4981 121.904 81.0161 124.98 75.3635C128.051 69.7127 134.522 68.4674 140.507 69.0282C146.494 69.5821 150.91 75.6143 151.85 81.0844C152.796 86.5575 151.23 95.295 145.744 95.8414C145.448 97.1509 144.399 98.2352 143.759 99.4305C143.769 97.8775 141.702 96.7218 142.236 95.5169C141.81 94.7983 141.764 93.1883 140.495 93.9411C141.174 94.9329 140.452 96.0592 141.148 97.0668C141.43 98.095 143.67 101.707 142.753 102.638C145.792 102.554 148.529 102.824 151.537 102.036C152.522 101.366 151.938 101.677 152.135 100.677C154.942 92.6508 160.701 83.9429 156.06 76.1001C151.416 68.2525 145.172 62.2445 135.229 63.5057C125.285 64.7621 119.967 71.5066 119.289 81.7858C118.611 92.065 124.198 99.2076 132.092 105.661C132.311 104.804 133.14 104.718 133.37 104.6Z" fill="#35220E"/>
<path d="M141.583 102.53C141.885 102.537 142.313 102.652 142.753 102.638C143.67 101.707 141.43 98.0949 141.148 97.0667C141.105 97.0273 139.89 96.5141 139.788 96.4693C129.524 91.9074 134.216 82.0773 132.5 73.3946C140.209 75.1712 148.407 85.2742 144.792 93.3954C143.949 95.3121 143.991 96.304 142.236 95.5168C141.702 96.7218 143.769 97.8774 143.759 99.4304C144.399 98.2351 145.448 97.1509 145.744 95.8414C151.23 95.2949 152.796 86.5574 151.85 81.0843C150.91 75.6143 146.494 69.582 140.507 69.0281C134.522 68.4674 128.051 69.7126 124.98 75.3634C121.904 81.0161 123.846 89.4981 127.235 94.584C130.616 99.667 137.956 99.0751 141.583 102.53Z" fill="#4F3314"/>
<path d="M139.788 96.469C135.746 93.5697 135.541 86.9745 137.966 83.096C141.624 85.3396 144.397 89.0482 144.792 93.3951C148.407 85.2739 140.209 75.171 132.5 73.3943C134.216 82.077 129.524 91.9071 139.788 96.469Z" fill="#F0B33A"/>
<path d="M139.788 96.4686C139.89 96.5134 141.105 97.0265 141.148 97.0659C140.452 96.0583 141.175 94.9321 140.495 93.9402C141.764 93.1875 141.81 94.7975 142.236 95.516C143.991 96.3032 143.949 95.3114 144.792 93.3946C144.397 89.0477 141.624 85.3391 137.966 83.0955C135.541 86.974 135.746 93.5692 139.788 96.4686Z" fill="#ED8134"/>
<path d="M133.37 104.6C132.388 105.77 132.688 107.394 132.744 108.786C133.032 113.913 132.785 117.146 136.525 121.397C140.265 125.648 135.262 129.623 138.902 134.43C142.541 139.233 145.285 134.391 141.91 129.441C138.535 124.49 138.823 119.917 136.878 115.063C138.926 117.297 139.63 121.192 140.985 124.168C142.34 127.144 143.298 130.472 144.602 133.462C145.907 136.453 146.891 139.821 148.219 142.757C149.548 145.693 150.405 149.286 151.836 152.052C153.268 154.818 153.767 158.967 155.454 161.347C157.141 163.726 156.803 169.13 159.071 170.642C160.559 169.426 163.612 169.725 164.945 168.356C165.095 165.887 167.219 161.105 170.741 161.639C174.266 162.165 175.946 159.951 179.087 158.346C176.923 152.395 174.146 146.17 172.043 140.245C169.941 134.321 168.069 128.904 163.782 124.911C159.491 120.926 162.222 113.605 157.411 109.889C155.503 111.054 156.845 114.605 154.058 114.743C151.268 114.888 151.171 111.771 148.709 112.149C149.072 116.43 150.645 121.935 153.359 125.548C156.073 129.162 154.182 136.629 149.701 133.861C145.224 131.091 146.469 125.644 145.01 121.475C144.609 120.329 144.169 119.155 143.677 118.05C142.707 114.659 139.71 112.418 137.014 111.067C140.701 110.112 142.603 113.827 144.342 116.541C146.08 119.256 147.809 123.799 147.784 127.155C147.76 130.51 152.442 135.706 153.353 131.223C154.27 126.743 151.323 124.443 149.797 120.739C148.954 119.168 148.241 117.609 147.893 115.847C145.697 113.361 148.71 108.386 151.371 111.632C154.027 114.879 155.65 112.112 155.372 108.993C160.004 109.106 162.595 114.012 162.688 119.102C162.78 124.192 169.698 127.904 168.508 122.47C167.317 117.035 162.597 114.191 161.912 109.839C161.234 105.489 160.783 98.7085 156.052 99.1527C154.949 99.6661 153.761 100.044 152.625 100.486C152.957 100.717 153.195 101.588 153.685 101.763C153.006 101.87 152.117 102.802 151.537 102.036C148.529 102.824 145.792 102.554 142.753 102.638C142.313 102.652 141.885 102.537 141.583 102.53C138.584 102.441 135.873 103.327 133.37 104.6Z" fill="#EDE1CB"/>
<path d="M151.537 102.036C152.117 102.802 153.006 101.87 153.686 101.764C153.195 101.588 152.957 100.718 152.625 100.486C152.625 100.486 152.131 100.594 152.135 100.677C151.939 101.677 152.522 101.366 151.537 102.036Z" fill="#5F5343"/>
<path d="M98.2875 172.328C98.3598 168.762 100.97 167.606 104.189 167.215C93.7424 164.69 86.4135 154.316 89.6729 142.587C92.9323 130.859 107.939 129.503 115.328 138.22C122.714 146.943 122.812 162.013 110.254 165.418C110.048 164.079 108.472 162.563 109.22 161.314C108.874 160.322 108.429 159.369 108.078 158.379C106.585 158.729 107.013 160.421 107.561 161.396C107.694 161.621 107.752 161.886 107.752 161.886C108.309 163.319 109.99 165.943 108.676 167.159C112.754 167.222 117.022 167.978 119.228 165.305C119.643 164.806 119.905 164.698 120.507 164.245C120.87 163.354 122.287 162.431 123.253 162.612C131.721 145.235 114.838 121.027 95.7541 128.623C76.6657 136.22 82.4255 164.216 98.2875 172.328Z" fill="#201408"/>
<path d="M201.007 130.664C201.731 126.208 208.3 127.083 211.546 126.996C214.793 126.91 220.08 127.168 223.39 125.897C223.038 124.327 221.004 125.952 220.18 124.892C220.561 124.22 221.223 123.878 221.948 123.641C221.903 121.772 224.251 120.013 226.272 120.269C225.122 119.528 226.342 117.797 227.469 117.55C226.62 111.791 227.794 105.741 224.738 100.711C221.677 95.6839 217.736 91.99 212.545 89.7012C207.358 87.4104 201.178 87.8384 196.273 90.8626C191.366 93.8819 188.874 97.4428 187.727 103.331C186.576 109.225 188.308 113.92 189.802 119.252C191.297 124.585 199.568 126.588 201.007 130.664ZM212.321 120.628C211.796 119.875 211.763 118.282 210.39 118.563C212.681 122.076 212.859 125.95 207.779 126.339C200.278 122.431 191.645 115.544 193.168 105.725C194.683 95.903 206.637 91.1778 214.096 97.2369C221.56 103.294 223.242 113.105 218.358 121.658C216.628 121.673 214.93 122.379 213.273 123.074C212.955 122.257 212.639 121.445 212.321 120.628Z" fill="#26180A"/>
<path d="M104.189 167.215C105.325 167.077 107.367 167.139 108.676 167.159C109.99 165.943 108.309 163.319 107.752 161.886C107.783 162.212 107.222 163.089 107.833 163.544C103.727 162.218 98.9958 161.446 95.9628 157.331C92.9318 153.222 91.9584 148.446 93.7454 143.16C95.5393 137.877 99.978 138.115 105.065 137.572C110.155 137.022 113.767 142.117 114.648 146.263C115.527 150.405 117.201 158.068 111.695 157.535C111.524 158.486 111.178 159.567 110.498 160.253C110.171 160.6 109.461 160.804 109.22 161.314C108.472 162.563 110.048 164.079 110.254 165.418C122.811 162.013 122.713 146.944 115.328 138.22C107.939 129.503 92.9322 130.859 89.6728 142.588C86.4134 154.316 93.7423 164.69 104.189 167.215Z" fill="#38230F"/>
<path d="M149.797 120.738C149.136 119.142 148.41 117.493 147.893 115.846C148.241 117.609 148.954 119.168 149.797 120.738Z" fill="#6B6459"/>
<path d="M145.01 121.474C144.715 120.209 144.36 119.209 143.677 118.05C144.169 119.154 144.61 120.329 145.01 121.474Z" fill="#726D61"/>
<path d="M210.39 118.563C209.691 119.303 210.721 120.372 210.852 121.2C209.429 121.353 207.637 121.065 206.473 120.087C199.65 116.124 199.868 104.548 203.264 98.8047C206.032 105.366 217.963 109.302 213.517 117.909C213.378 118.262 212.304 120.471 212.321 120.628C212.638 121.445 212.954 122.257 213.272 123.074C214.929 122.379 216.628 121.673 218.358 121.658C223.242 113.105 221.56 103.294 214.096 97.2367C206.637 91.1776 194.683 95.9029 193.168 105.725C191.645 115.544 200.278 122.431 207.779 126.339C212.859 125.95 212.681 122.076 210.39 118.563Z" fill="#482F13"/>
<path d="M107.752 161.886C107.752 161.886 107.694 161.621 107.561 161.396C106.072 161.48 104.926 160.94 103.672 160.093C96.2449 155.086 101.625 145.315 99.7831 138.512C106.261 142.514 114.692 150.099 110.906 158.405C110.747 158.85 110.738 159.912 110.498 160.253C111.178 159.566 111.524 158.485 111.695 157.534C117.201 158.067 115.527 150.405 114.648 146.263C113.767 142.117 110.155 137.022 105.065 137.572C99.978 138.115 95.5394 137.877 93.7455 143.16C91.9585 148.446 92.9319 153.221 95.9629 157.331C98.9959 161.446 103.727 162.218 107.833 163.544C107.222 163.089 107.783 162.211 107.752 161.886Z" fill="#98580E"/>
<path d="M103.672 160.093C102.889 156.472 102.734 152.308 104.27 148.595C108.421 149.875 109.4 154.693 110.906 158.404C114.692 150.099 106.261 142.514 99.783 138.512C101.624 145.315 96.2449 155.086 103.672 160.093Z" fill="#F0B43C"/>
<path d="M206.473 120.087C204.601 117.391 205.438 112.3 205.603 109.16C209.68 109.539 212.4 114.024 213.517 117.909C217.963 109.301 206.032 105.366 203.264 98.8045C199.868 104.548 199.65 116.124 206.473 120.087Z" fill="#EEAF38"/>
<path d="M103.672 160.094C104.926 160.941 106.072 161.48 107.561 161.397C107.013 160.421 106.585 158.729 108.078 158.379C108.429 159.369 108.874 160.322 109.22 161.314C109.461 160.804 110.171 160.601 110.498 160.254C110.738 159.913 110.747 158.85 110.906 158.405C109.4 154.693 108.421 149.875 104.27 148.595C102.734 152.308 102.889 156.472 103.672 160.094Z" fill="#EE8537"/>
<path d="M206.473 120.088C207.637 121.065 209.429 121.354 210.852 121.2C210.722 120.372 209.691 119.303 210.39 118.564C211.763 118.283 211.796 119.875 212.321 120.628C212.305 120.471 213.378 118.262 213.517 117.91C212.4 114.024 209.68 109.54 205.603 109.161C205.438 112.3 204.601 117.391 206.473 120.088Z" fill="#EC7F33"/>
<path d="M98.2874 172.328C98.195 176.972 100.918 180.537 102.557 184.749C103.119 185.859 103.626 186.929 103.89 188.173C104.992 191.484 104.055 194.739 104.869 197.931C105.215 199.283 105.833 200.192 106.691 201.165C110.364 205.346 111.266 200.246 110.145 197.004C109.459 195.024 108.62 193.086 107.861 191.134C107.291 188.815 105.312 186.352 105.685 184.095C109.821 189.38 111.799 196.474 111.94 203.065C112.569 207.056 115.953 213.71 117.461 217.252C118.969 220.794 120.238 229.037 123.58 230.079C126.123 229.14 129.432 230.748 130.869 232.876C133.151 232.236 135.441 230.764 137.722 230.209C140.003 229.654 141.115 228.5 140.857 226.313C140.591 224.124 143.844 223.822 144.331 222.567C141.645 217.157 140.507 210.756 137.668 205.445C134.829 200.134 134.023 192.996 131.494 188.133C129.018 184.292 126.061 180.863 125.565 175.795C124.963 172.047 126.434 174.871 126.925 176.392C128.38 179.538 127.7 183.656 130.942 185.7C134.182 187.74 134.092 182.12 131.763 180.148C129.439 178.174 127.955 173.693 126.986 170.741C126.018 167.789 125.957 164.765 122.166 164.162C121.369 164.258 119.911 164.887 119.228 165.305C117.022 167.978 112.754 167.222 108.676 167.159C107.367 167.139 105.325 167.077 104.189 167.215C100.97 167.606 98.3597 168.762 98.2874 172.328ZM120.235 192.515C119.286 191.307 119.19 190.454 118.902 189.09C117.005 183.39 115.893 176.506 109.683 174.09C116.547 173.84 119.293 183.215 119.888 188.712C120.478 194.211 125.046 194.146 124.974 190.541C124.901 186.936 120.697 184.201 120.153 180.717C119.609 177.234 117.512 174.118 121.214 171.855C119.563 176.362 120.494 182.1 124.375 185.873C128.251 189.649 124.795 198.902 120.235 192.515Z" fill="#EEE2CB"/>
<path d="M201.007 130.664C202.226 134.116 204.745 138.938 204.55 142.765C204.349 146.595 210.187 150.603 208.867 145.067C208.636 144.098 208.126 143.047 207.725 142.132C207.376 139.976 203.419 137.138 206.229 135.392C210.673 144.9 211.976 154.723 216.482 164.635C220.988 174.548 223.924 185.003 228.285 194.966C231.74 192.619 238.534 193.304 239.103 188.362C239.678 183.424 246.715 186.183 248.302 182.67C245.434 177.156 244.511 170.452 241.448 165.059C238.385 159.666 238.124 151.882 234.404 146.958C228.706 144.946 228.885 137.716 227.224 132.854C231.625 133.299 228.381 145.416 234.257 145.45C240.132 145.484 232.575 136.174 231.603 133.966C231.078 133.038 230.746 131.968 230.461 131.031C228.998 127.274 227.142 121.142 221.948 123.642C221.223 123.879 220.561 124.221 220.18 124.893C221.004 125.952 223.038 124.327 223.39 125.897C220.08 127.168 214.793 126.91 211.546 126.997C208.299 127.083 201.731 126.209 201.007 130.664ZM220.208 132.205C220.555 134.88 228.885 146.363 222.21 147.012C215.53 147.662 218.005 134.887 213.082 132.725C216.535 133.876 218.213 136.175 218.284 140.282C218.354 144.389 224.125 147.354 223.036 142.37C221.943 137.388 218.299 136.874 220.208 132.205Z" fill="#EEE2CC"/>
<path d="M119.228 165.305C119.911 164.887 121.369 164.258 122.166 164.162C121.438 164.045 121.383 163.903 120.507 164.244C119.905 164.698 119.643 164.805 119.228 165.305Z" fill="#827562"/>
<path d="M220.208 132.204C218.299 136.873 221.943 137.387 223.036 142.369C224.124 147.353 218.354 144.388 218.284 140.281C218.213 136.174 216.535 133.875 213.082 132.724C218.005 134.886 215.53 147.661 222.21 147.011C228.885 146.362 220.555 134.879 220.208 132.204Z" fill="#252320"/>
<path d="M260.703 160.945C262.693 159.41 266.024 159.511 268.046 158.087C264.944 159.255 258.171 157.711 254.14 154.655C250.108 151.594 247.506 144.603 246.955 138.683C246.398 132.76 247.6 128.276 252.177 123.537C256.751 118.794 263.033 119.206 268.722 120.602C274.41 121.994 278.848 127.285 280.393 131.878C281.939 136.475 285.192 145.399 280.719 148.649C281.945 148.583 282.839 149.621 283.629 150.333C287.51 147.848 286.364 141.631 286.534 137.419C286.702 133.213 281.768 128.098 282.215 124.972C278.791 123.59 276.119 117.651 271.928 117.006C267.737 116.361 266.059 114.716 261.935 114.822C257.811 114.929 254.297 117.124 250.939 118.938C247.576 120.754 246.107 125.871 242.78 127.926C242.865 134.546 242.335 140.295 243.883 145.692C245.432 151.093 251.654 156.349 255.536 160.703C257.821 160.377 260.106 160.366 262.28 159.205C262.073 160.063 261.13 160.232 260.703 160.945Z" fill="#180F05"/>
<path d="M75.7694 231.787C75.8713 229.499 77.4356 227.696 79.5224 226.946C78.6344 226.982 76.6423 226.208 75.4158 227.981C68.3135 219.71 61.9484 209.018 68.2766 198.483C74.6067 187.953 88.4773 189.63 95.5742 198.771C102.666 207.913 100.085 220.589 89.9657 226.262C93.514 226.182 94.9682 225.487 98.179 224.192C99.9116 222.735 103.167 220.426 104.053 217.445C104.946 214.467 105.498 211.554 105.205 208.643C104.912 205.732 104.993 203.696 106.691 201.165C105.833 200.192 105.215 199.283 104.869 197.931C104.218 198.184 103.562 198.439 102.911 198.693C100.225 195.643 97.2837 192.721 93.4126 189.856C89.5415 186.991 86.5782 187.3 82.7653 186.395C78.9524 185.491 73.976 188.013 70.1833 189.579C66.3924 191.15 64.901 194.806 62.3138 198.297C59.7267 201.788 61.1912 207.116 61.2873 210.824C61.3833 214.533 63.562 221.971 66.0935 224.275C68.6279 226.573 72.8058 233.644 75.7694 231.787Z" fill="#191006"/>
<path d="M118.902 189.09C119.263 190.178 119.664 191.526 120.235 192.515C124.795 198.902 128.251 189.649 124.375 185.874C120.494 182.1 119.563 176.362 121.214 171.856C117.512 174.119 119.609 177.234 120.153 180.718C120.697 184.201 124.901 186.936 124.974 190.541C125.046 194.146 120.478 194.211 119.888 188.712C119.293 183.215 116.547 173.841 109.683 174.09C115.893 176.506 117.005 183.39 118.902 189.09Z" fill="#1B1A19"/>
<path d="M268.046 158.087C270.174 156.589 271.971 155.456 273.607 153.23C275.251 151.008 278.548 150.226 280.719 148.649C285.192 145.399 281.939 136.475 280.393 131.877C278.848 127.285 274.41 121.994 268.722 120.602C263.033 119.206 256.751 118.794 252.177 123.537C247.6 128.275 246.398 132.76 246.955 138.683C247.506 144.602 250.108 151.594 254.14 154.655C258.171 157.711 264.944 159.255 268.046 158.087ZM269.596 149.035C269.011 148.299 268.463 147.543 267.665 146.97C266.983 147.534 267.836 148.452 267.937 149.117C268.372 150.294 270.274 152.066 270.33 153.819C263.189 154.485 256.388 150.682 253.061 144.204C249.733 137.725 251.486 129.467 257.779 125.593C264.074 121.724 273.022 126.466 276.09 132.437C279.155 138.415 277.425 148.224 271.418 152.269C270.925 151.103 270.691 149.763 269.596 149.035Z" fill="#2D1C0C"/>
<path d="M231.603 133.966C231.18 133.01 230.839 132.004 230.461 131.031C230.746 131.967 231.078 133.038 231.603 133.966Z" fill="#736C5E"/>
<path d="M79.5224 226.946C82.9736 226.82 86.477 226.335 89.9657 226.262C100.085 220.589 102.666 207.913 95.5742 198.771C88.4773 189.63 74.6067 187.953 68.2766 198.483C61.9484 209.018 68.3135 219.71 75.4158 227.981C76.6423 226.208 78.6345 226.982 79.5224 226.946ZM86.6206 219.114C86.2749 218.95 86.3652 217.879 86.0494 217.647C84.9338 217.72 85.3627 218.866 85.6415 219.495C85.5112 220.667 85.663 222.129 85.9951 223.301C81.2284 223.291 75.8213 222.027 72.8925 217.123C69.9667 212.212 68.8051 207.127 72.1317 201.799C75.4515 196.468 79.0457 195.058 84.9547 197.09C90.8655 199.127 93.9585 202.774 94.3918 209.145C94.83 215.514 91.6801 218.182 87.7628 222.05C87.8082 220.877 85.5784 220.275 86.6206 219.114Z" fill="#884C0F"/>
<path d="M125.565 175.794C126.433 175.372 125.201 174.381 125.973 173.946C126.328 174.743 126.56 175.599 126.925 176.392C126.434 174.87 124.963 172.046 125.565 175.794Z" fill="#6F695C"/>
<path d="M208.867 145.067C208.741 143.73 208.344 143.231 207.725 142.132C208.125 143.046 208.636 144.098 208.867 145.067Z" fill="#6F6C60"/>
<path d="M103.89 188.172C103.626 186.929 103.119 185.859 102.557 184.748C102.999 185.883 103.507 187.015 103.89 188.172Z" fill="#6A6459"/>
<path d="M267.937 149.117C267.288 150.62 266.844 149.785 265.109 149.091C256.888 145.812 256.947 134.028 260.539 127.211C262.854 134.202 273.885 136.663 271.581 145.446C271.276 146.849 270.707 148.124 269.596 149.035C270.691 149.763 270.925 151.103 271.418 152.269C277.425 148.224 279.154 138.415 276.09 132.437C273.022 126.466 264.074 121.724 257.779 125.593C251.486 129.467 249.733 137.725 253.061 144.204C256.388 150.682 263.189 154.485 270.33 153.819C270.274 152.066 268.372 150.294 267.937 149.117Z" fill="#4E3314"/>
<path d="M85.6415 219.496C84.4552 221.039 83.5561 220.814 81.6436 219.361C74.4102 213.868 80.3153 205.548 77.4553 198.46C84.2133 200.545 91.1016 208.352 89.9657 216.123C89.5566 217.983 88.5488 219.333 87.1917 220.582C87.0013 220.093 86.8109 219.604 86.6205 219.115C85.5784 220.275 87.8082 220.877 87.7628 222.05C91.6801 218.182 94.8299 215.514 94.3918 209.145C93.9585 202.774 90.8655 199.128 84.9546 197.091C79.0457 195.058 75.4515 196.468 72.1317 201.799C68.8051 207.127 69.9667 212.212 72.8924 217.123C75.8212 222.027 81.2284 223.291 85.9951 223.301C85.663 222.129 85.5112 220.667 85.6415 219.496Z" fill="#513414"/>
<path d="M81.6436 219.362C83.7334 219.72 80.7078 215.451 81.1609 213.878C81.6071 212.301 81.3681 209.471 82.9218 208.162C84.4102 209.076 85.8922 210.465 87.0589 211.667C88.2286 212.862 88.1324 217.597 89.9656 216.123C91.1016 208.353 84.2133 200.545 77.4553 198.46C80.3153 205.549 74.4102 213.868 81.6436 219.362Z" fill="#F1B840"/>
<path d="M265.109 149.091C262.33 146.252 262.093 141.602 263.069 138.056C265.273 138.043 266.227 140.145 267.814 141.11C269.395 142.072 269.992 146.634 271.581 145.446C273.885 136.664 262.854 134.202 260.54 127.212C256.947 134.028 256.888 145.813 265.109 149.091Z" fill="#F0B23B"/>
<path d="M180.23 171.42C180.924 172.378 181.456 174.035 182.242 175.143C184.484 177.515 185.533 175.705 184.799 173.022C184.525 172.03 184.029 171.045 183.656 170.086C183.13 167.199 178.565 162.205 183.738 161.605C180.637 156.723 177.054 162.753 174.424 163.411C171.794 164.068 166.126 162.105 166.414 167.784C172.278 167.006 173.214 173.829 175.28 178.979C177.346 184.129 178.431 188.191 179.523 194.227C180.615 200.263 188.305 199.934 185.669 194.088C183.033 188.242 181.273 184.544 178.489 179.983C175.705 175.423 176.605 166.437 180.23 171.42Z" fill="#E6DCC5"/>
<path d="M164.945 168.356C163.612 169.725 160.559 169.426 159.071 170.642C160.288 171.453 164.254 169.346 164.945 168.356Z" fill="#6B675D"/>
<path d="M110.145 197.004C109.681 195.016 108.777 192.952 107.861 191.134C108.62 193.086 109.459 195.024 110.145 197.004Z" fill="#7C766A"/>
<path d="M172.016 173.49C171.127 169.989 168.334 168.575 165.516 169.823C162.699 171.072 158.116 173.171 155.726 173.633C153.335 174.096 147.376 177.902 153.258 179.241C159.139 180.58 166.059 174.766 172.016 173.49Z" fill="#5D412F"/>
<path d="M184.255 168.727C187.009 167.289 192.897 166.891 191.924 162.363C190.953 157.84 184.828 163.017 182.16 163.346C182.859 165.141 183.556 166.932 184.255 168.727Z" fill="#593F2E"/>
<path d="M120.235 192.514C119.664 191.525 119.263 190.177 118.902 189.09C119.191 190.453 119.286 191.306 120.235 192.514Z" fill="#746C62"/>
<path d="M248.302 182.67C249.627 179.732 244.96 174.169 244.222 170.739C243.484 167.308 240.85 161.957 239.463 158.509C238.076 155.06 236.914 149.44 234.404 146.958C238.124 151.881 238.385 159.666 241.448 165.059C244.511 170.452 245.434 177.156 248.302 182.67Z" fill="#878071"/>
<path d="M144.331 222.567C145.495 219.562 141.224 214.527 140.442 211.125C139.659 207.723 137.261 202.793 135.873 199.384C134.484 195.976 133.5 191.244 131.494 188.133C134.023 192.995 134.829 200.134 137.668 205.445C140.507 210.756 141.645 217.157 144.331 222.567Z" fill="#8A8376"/>
<path d="M81.6437 219.361C83.5561 220.814 84.4553 221.038 85.6415 219.495C85.3628 218.866 84.9339 217.72 86.0495 217.647C86.3652 217.879 86.2749 218.95 86.6206 219.114C86.811 219.603 87.0014 220.093 87.1917 220.582C88.5488 219.333 89.5567 217.983 89.9657 216.123C88.1324 217.596 88.2287 212.861 87.059 211.666C85.8922 210.464 84.4103 209.075 82.9218 208.161C81.3681 209.47 81.6072 212.301 81.1609 213.877C80.7079 215.45 83.7335 219.72 81.6437 219.361Z" fill="#EF8633"/>
<path d="M265.109 149.091C266.844 149.785 267.288 150.62 267.937 149.117C267.836 148.452 266.983 147.534 267.665 146.97C268.463 147.544 269.011 148.299 269.596 149.035C270.707 148.124 271.276 146.849 271.581 145.446C269.992 146.633 269.395 142.072 267.814 141.11C266.227 140.145 265.273 138.043 263.069 138.056C262.092 141.602 262.33 146.252 265.109 149.091Z" fill="#EB8334"/>
<path d="M178.57 171.502C176.275 177.769 182.256 183.986 184.935 189.304C189.672 188.108 188.216 181.296 187.654 177.926C187.092 174.556 190.841 166.591 185.315 170.004C186.804 172.309 187.687 177.547 183.898 177.833C180.107 178.114 180.858 173.079 178.57 171.502Z" fill="#5B4130"/>
<path d="M182.242 175.143C181.456 174.035 180.924 172.378 180.229 171.42C180.998 172.8 181.267 174.114 182.242 175.143Z" fill="#7C766A"/>
<path d="M184.798 173.022C184.62 171.824 184.14 171.098 183.656 170.087C184.029 171.046 184.525 172.03 184.798 173.022Z" fill="#706A60"/>
<path d="M172.587 174.958C167.854 176.8 163.125 178.64 158.391 180.482C166.23 182.912 167.839 198.171 177.401 191.673C176.158 186.045 175.113 180.419 172.587 174.958ZM173.512 190.37C169.776 189.098 167.803 183.551 164.238 181.023C168.498 181.844 171.235 186.806 173.512 190.37ZM171.472 179.335C173.34 181.019 175.09 184.039 174.818 186.482C174.008 184.026 171.266 181.758 171.472 179.335Z" fill="#5D4230"/>
<path d="M173.512 190.369C171.235 186.805 168.498 181.843 164.238 181.022C167.803 183.55 169.776 189.097 173.512 190.369Z" fill="#0B0705"/>
<path d="M171.472 179.334C171.266 181.758 174.008 184.026 174.818 186.482C175.09 184.038 173.34 181.019 171.472 179.334Z" fill="#0B0A07"/>
<path d="M123.58 230.079C120.238 229.037 118.969 220.794 117.461 217.252C115.953 213.71 112.569 207.056 111.94 203.065C114.165 212.158 118.918 221.473 122.112 230.651C122.573 230.663 123.123 230.02 123.58 230.079Z" fill="#746D60"/>
<path d="M75.7694 231.787C75.5709 236.201 80.5791 239.801 82.1878 243.934C87.8362 258.449 93.4828 272.959 99.1313 287.473C104.028 283.241 110.062 290.852 115.34 285.672C114.723 282.115 118.797 280.766 121.541 279.879C119.854 274.024 116.387 268.664 114.878 262.757C113.368 256.85 110.274 253.243 106.719 249.033C103.164 244.823 105.817 237.302 100.817 233.868C98.9756 234.771 100.197 239.14 97.3292 239.028C94.4616 238.916 94.3055 235.169 91.6248 236.319C91.0866 244.713 98.3233 246.014 97.9072 254.896C97.498 263.78 89.2602 257.545 89.3472 250.73C89.4323 243.909 84.9672 237.186 79.4409 235.427C82.4004 232.777 85.3855 237.508 86.8769 239.732C88.3684 241.957 90.6556 248.153 90.8498 250.579C91.0391 253.006 92.5434 260.594 95.65 258.365C98.7547 256.132 95.747 251.517 94.5139 248.189C93.2827 244.866 90.4687 242.43 90.401 237.403C90.3283 232.379 95.2033 237.258 96.7752 237.503C98.352 237.745 99.8326 229.745 102.687 234.227C105.547 238.708 106.049 241.171 106.855 245.037C107.66 248.903 111.125 253.402 112.906 250.129C114.694 246.859 110.13 243.678 108.644 240.973C107.154 238.274 105.022 233.826 104.611 230.262C104.204 226.697 102.576 222.425 98.179 224.192C94.9682 225.487 93.514 226.182 89.9658 226.262C86.477 226.335 82.9736 226.82 79.5224 226.946C77.4357 227.696 75.8714 229.499 75.7694 231.787Z" fill="#EDE1CB"/>
<path d="M268.046 158.087C266.024 159.511 262.693 159.41 260.703 160.945C258.104 165.274 261.876 168.132 263.912 172.088C265.948 176.045 266.247 180.333 267.203 184.89C268.159 189.446 273.72 191.107 271.5 184.344C271.066 183.026 270.504 181.712 269.977 180.43C268.223 176.184 266.069 174.054 266.564 169.197C267.056 164.336 273.114 172.546 272.989 167.559C272.858 162.574 276.826 162.95 278.619 166.325C280.41 169.696 282.089 174.286 282.487 177.815C282.885 181.344 288.273 185.629 289.191 181.977C290.116 178.328 285.848 174.372 284.5 171.399C283.336 169.424 282.496 167.25 282.025 165.04C281.026 161.981 280.031 156.673 283.874 155.307C279.482 162.402 286.351 170.639 289.123 177.486C289.649 178.52 290.084 179.202 290.265 180.421C291.446 187.684 283.227 184.917 282.079 179.664C280.931 174.41 278.912 168.802 275.688 164.689C274.698 168.663 272.253 173.518 267.747 168.906C268.885 176.366 273.162 182.3 273.104 189.916C273.784 195.036 277.511 199.529 278.816 204.592C280.121 209.655 283.249 214.695 284.717 219.757C289.285 217.98 293.857 216.2 298.424 214.423C298.326 211.216 301.133 207.015 304.734 207.461C300.269 191.686 290.23 176.565 287.138 160.797C285.903 156.855 287.067 153.417 283.629 150.333C282.839 149.621 281.945 148.583 280.719 148.649C278.548 150.226 275.251 151.008 273.607 153.23C271.971 155.456 270.174 156.589 268.046 158.087Z" fill="#EEE2CB"/>
<path d="M177.972 193.14C174.339 193.698 167.353 197.182 170.644 201.495C173.934 205.808 178.804 200.984 182.487 200.396C179.926 198.784 178.943 195.967 177.972 193.14Z" fill="#593F2D"/>
<path d="M187.872 198.3C197.079 198.103 193.604 184.685 185.805 190.092C187.195 192.751 187.656 195.529 187.872 198.3Z" fill="#583E2D"/>
<path d="M190.211 198.517C187.451 201.129 177.033 201.285 177.748 205.614C178.465 209.949 178.53 214.852 176.728 218.55C174.926 222.248 171.701 227.474 175.695 229.655C179.694 231.833 183.671 230.944 187.207 233.917C190.737 236.892 193.705 239.984 195.623 244.29C198.722 243.084 201.825 241.876 204.924 240.671C203.184 235.084 201.356 228.112 205.706 222.764C210.056 217.415 210.137 211.773 202.85 210.356C195.563 208.939 194.353 202.932 190.211 198.517ZM186.73 205.505C190.294 205.25 191.725 211.678 195.332 212.69C198.944 213.701 203.656 215.54 201.429 219.668C199.203 223.796 197.966 225.252 198.254 230.44C198.543 235.628 195.154 235.612 192.338 231.475C189.525 227.331 185.982 228.468 182.364 226.485C178.746 224.502 182.531 218.99 183.548 216.274C184.563 213.552 182.787 205.788 186.73 205.505Z" fill="#5E4230"/>
<path d="M304.734 207.461C300.592 191.837 292.068 176.565 287.138 160.797C290.23 176.565 300.269 191.686 304.734 207.461Z" fill="#8C8678"/>
<path d="M284.5 171.399C283.578 169.364 282.721 167.162 282.025 165.039C282.496 167.25 283.336 169.424 284.5 171.399Z" fill="#656154"/>
<path d="M99.1312 287.473C93.4828 272.958 87.8362 258.448 82.1878 243.934C86.252 258.361 93.2856 273.683 99.1312 287.473Z" fill="#5F5B52"/>
<path d="M186.73 205.504C182.787 205.788 184.563 213.552 183.548 216.273C182.531 218.99 178.746 224.502 182.364 226.485C185.982 228.467 189.525 227.331 192.338 231.475C195.154 235.612 198.543 235.628 198.254 230.44C197.966 225.252 199.203 223.796 201.429 219.668C203.656 215.54 198.944 213.701 195.332 212.69C191.725 211.677 190.294 205.249 186.73 205.504ZM196.303 234.449C194.387 231.438 191.828 228.89 188.545 227.188C185.257 225.488 181.118 225.775 183.187 221.387C185.261 216.998 185.751 216.576 185.547 211.474C185.337 206.373 187.734 206.984 190.578 210.586C193.421 214.183 195.463 214.2 199.237 215.801C203.011 217.402 199.017 220.64 197.941 223.813C196.863 226.982 197.889 231.934 196.303 234.449Z" fill="#0B0806"/>
<path d="M136.227 264.024C135.996 263.055 135.483 261.998 135.084 261.089C134.085 258.014 129.301 253.499 133.425 251.032C132.252 245.597 121.746 237.591 129.4 233.447C126.718 228.655 117.512 231.736 119.12 237.447C123.098 237.037 126.136 243.121 127.415 247.175C128.694 251.229 131.776 256.107 130.393 260.65C129.003 265.19 137.835 270.794 136.227 264.024Z" fill="#E4DAC6"/>
<path d="M196.303 234.449C197.889 231.934 196.863 226.982 197.941 223.813C199.018 220.64 203.011 217.402 199.237 215.801C195.463 214.199 193.421 214.183 190.579 210.586C187.734 206.984 185.337 206.373 185.547 211.474C185.751 216.576 185.261 216.998 183.187 221.387C181.118 225.775 185.257 225.488 188.545 227.188C191.829 228.89 194.387 231.438 196.303 234.449Z" fill="#5F4230"/>
<path d="M142.128 228.494C145.914 225.968 151.95 231.195 150.634 235.881C149.325 240.57 157.49 245.374 156.161 239.932C154.833 234.489 150.587 232.052 150.335 226.438C150.086 220.829 140.42 224.394 142.128 228.494Z" fill="#E0D7BF"/>
<path d="M253.251 185.25C251.062 181.449 247.987 185.135 246.116 186.106C244.24 187.078 238.638 185.416 240.524 190.203C246.086 187.317 245.463 192.945 247.208 197.138C248.95 201.327 254.162 197.135 250.828 193.521C247.494 189.907 248.221 185.923 253.251 185.25Z" fill="#E1D8C3"/>
<path d="M120.48 238.045C112.257 238.395 118.749 246.835 123.553 243.045C122.955 241.058 121.235 239.897 120.48 238.045Z" fill="#553F2F"/>
<path d="M148.519 233.33C147.22 226.456 140.906 229.989 136.634 231.759C132.363 233.528 124.519 234.767 128.938 240.95C135.463 238.411 141.994 235.869 148.519 233.33Z" fill="#5B412F"/>
<path d="M155.726 224.329C154.258 224.901 152.789 225.472 151.32 226.044C152.057 227.892 151.842 229.817 152.925 231.615C156.533 231.254 157.545 227.018 155.726 224.329Z" fill="#584131"/>
<path d="M243.352 190.229C235.681 193.214 228.015 196.197 220.344 199.183C225.179 209.158 237.564 196.357 245.446 195.61C244.747 193.815 244.051 192.024 243.352 190.229Z" fill="#5D4231"/>
<path d="M259.996 183.751C255.599 185.721 246.722 186.664 251.81 193.133C256.25 191.738 263.346 189.709 259.996 183.751Z" fill="#614633"/>
<path d="M271.5 184.344C271.194 182.92 270.662 181.713 269.977 180.431C270.504 181.713 271.066 183.026 271.5 184.344Z" fill="#6E6A60"/>
<path d="M290.265 180.422C290.084 179.202 289.649 178.521 289.123 177.486C289.509 178.435 289.994 179.434 290.265 180.422Z" fill="#7D7568"/>
<path d="M125.674 245.6C122.555 245.406 124.407 242.764 125.674 245.6V245.6Z" fill="#42382C"/>
<path d="M148.9 234.308C142.536 236.785 136.172 239.262 129.808 241.738C131.002 245.487 137.416 249.424 133.208 253.371C135.443 259.722 140.69 255.376 144.712 253.963C148.733 252.55 154.582 252.342 153.183 246.735C151.792 241.131 149.182 240.074 148.9 234.308ZM146.126 238.768C146.188 242.388 147.094 246.238 146.996 249.695C145.112 247.099 144.323 241.536 146.126 238.768ZM142.101 251.6C139.803 250.01 138.069 245.671 137.206 243.366C139.654 245.122 141.692 248.621 142.101 251.6ZM149.906 241.24C150.239 243.819 150.004 246.429 150.124 249.041C148.378 247.467 148.168 242.857 149.906 241.24Z" fill="#5E4231"/>
<path d="M252.191 194.111C255.067 195.752 251.504 203.616 248.594 200.44C245.687 197.256 243.668 196.645 239.463 199.065C235.258 201.484 231.849 201.442 227.714 203.637C233.584 205.757 234.834 212.532 239.375 215.857C243.915 219.182 250.756 210.008 256.216 211.697C258.243 205.275 254.837 198.45 257.576 192.016C255.779 192.715 253.987 193.412 252.191 194.111ZM243.434 212.165C241.971 208.768 239.161 206.341 237.178 203.333C239.885 204.263 244.821 209.242 243.434 212.165ZM248.628 209.58C246.936 207.506 246.283 203.395 246.86 200.692C247.706 202.966 248.861 206.876 248.628 209.58ZM240.986 213.117C238.932 210.706 236.632 208.548 234.812 205.944C237.359 207.33 241.171 210.015 240.986 213.117Z" fill="#5E4331"/>
<path d="M146.126 238.767C144.323 241.536 145.112 247.098 146.996 249.694C147.094 246.237 146.188 242.387 146.126 238.767Z" fill="#030303"/>
<path d="M243.434 212.164C244.821 209.242 239.885 204.262 237.178 203.333C239.161 206.341 241.971 208.768 243.434 212.164Z" fill="#050403"/>
<path d="M284.717 219.757C283.249 214.696 280.121 209.655 278.816 204.592C277.511 199.529 273.784 195.037 273.104 189.916C273.086 192.779 275.226 197.061 276.422 199.891C277.619 202.72 278.937 207.801 280.42 210.164C281.904 212.527 282.245 219.154 284.717 219.757Z" fill="#59544C"/>
<path d="M142.101 251.599C141.692 248.621 139.653 245.122 137.206 243.365C138.069 245.671 139.803 250.009 142.101 251.599Z" fill="#0E0B0A"/>
<path d="M248.628 209.58C248.861 206.876 247.706 202.965 246.86 200.692C246.283 203.395 246.936 207.506 248.628 209.58Z" fill="#120F0B"/>
<path d="M240.986 213.118C241.171 210.015 237.359 207.331 234.812 205.944C236.632 208.548 238.932 210.706 240.986 213.118Z" fill="#030202"/>
<path d="M149.906 241.239C148.168 242.856 148.378 247.467 150.124 249.041C150.004 246.429 150.239 243.819 149.906 241.239Z" fill="#050506"/>
<path d="M194.154 244.861C192.826 241.012 190.074 237.735 186.96 235.398C183.847 233.061 180.352 232.061 176.613 233.099C172.874 234.137 169.143 236.918 168.291 240.799C167.446 244.682 168.755 248.943 171.388 251.422C174.018 253.908 178.813 255.394 181.923 252.871C185.035 250.353 185.923 245.957 182.545 242.664C179.168 239.376 173.439 246.597 180.203 245.221C182.694 252.317 172.195 250.106 172.479 244.666C172.764 239.227 176.904 235.977 182.059 237.316C187.219 238.654 189.279 244.122 190.021 248.723C191.042 247.103 192.364 245.62 194.154 244.861Z" fill="#5D4130"/>
<path d="M216.129 231.803C222.494 226.504 211.7 226.435 213.001 232.457C214.302 238.48 220.263 238.835 223.934 236.044C227.612 233.255 228.14 227.76 226.049 224.011C223.956 220.269 219.569 217.859 215.187 218.274C210.805 218.689 206.121 222.512 205.196 227C204.271 231.489 204.154 235.895 205.903 240.289C207.775 239.364 209.694 239.659 211.56 240.341C208.732 236.259 206.963 230.729 209.983 226.264C213.009 221.802 218.513 221.852 222.04 225.746C225.568 229.64 219.239 237.882 216.129 231.803Z" fill="#5E4230"/>
<path d="M241.04 217.602C236.776 215.031 234.258 221.306 236.39 224.482C237.99 224.073 237.468 221.617 239.055 221.191C238.433 223.444 241.819 232.885 243.998 229.446C246.179 226.012 238.576 221.293 241.04 217.602Z" fill="#E3DBC6"/>
<path d="M180.992 274.768C178.12 277.384 175.654 280.056 172.5 282.393C169.345 284.731 164.309 286.578 160.492 287.241C156.673 287.899 153.44 287.878 149.736 286.791C146.028 285.705 143.434 283.081 141.319 280.108C139.205 277.139 137.947 272.616 139.13 268.95C140.315 265.289 142.472 262.895 145.718 260.894C148.964 258.893 153.774 259.1 157.106 260.828C160.436 262.562 162.511 266.735 160.438 270.2C158.372 273.668 152.919 273.779 152.81 268.876C152.706 263.977 146.778 268.165 147.982 272.028C149.187 275.891 151.9 278.851 156.179 278.606C160.452 278.362 163.259 276.335 165.429 272.798C167.598 269.261 167.196 265.824 165.898 262.054C164.6 258.284 161.253 256.144 157.8 254.643C154.352 253.141 149.731 253.215 146.751 254.859C143.772 256.503 136.911 257.658 136.934 261.496C136.956 265.335 138.76 270.085 132.474 268.865C130.86 280.522 139.256 291.754 151.134 293.756C163.014 295.751 175.876 289.388 183.956 280.937C182.906 278.935 182.737 276.269 180.992 274.768Z" fill="#5F422F"/>
<path d="M249.907 259.214C257.703 257.825 265.87 253.233 270.548 247.193C275.225 241.149 276.321 234.16 274.6 227.073C272.88 219.986 265.908 213.732 258.843 213.102C251.782 212.47 237.405 216.792 244.576 225.239C251.126 214.319 268.326 219.263 268.985 231.501C269.636 243.735 258.672 251.308 247.622 253.344C248.384 255.301 249.145 257.258 249.907 259.214Z" fill="#614431"/>
<path d="M136.227 264.024C136.101 262.687 135.704 262.188 135.084 261.089C135.483 261.998 135.996 263.055 136.227 264.024Z" fill="#766E66"/>
<path d="M238.13 226.057C235.956 229.827 238.513 234.82 240.557 238.057C242.603 241.289 246.605 242.17 250.064 242.266C253.52 242.369 258.621 239.038 259.228 235.731C259.828 232.422 259.799 226.626 254.632 226.356C249.47 226.083 255.153 231.662 253.15 234.683C251.153 237.708 244.033 236.474 244.222 231.573C240.759 233.405 238.965 228.679 238.13 226.057Z" fill="#5F4330"/>
<path d="M208.922 240.804C204.215 240.732 200.52 245.792 195.705 245.947C190.89 246.103 190.472 253.403 195.341 253.226C200.21 253.049 203.712 248.52 208.46 248.306C213.207 248.093 213.487 240.875 208.922 240.804Z" fill="#5F422F"/>
<path d="M190.673 251.849C191.491 260.092 182.869 267.948 187.709 276.097C192.577 270.08 195.541 262.358 196.303 254.727C194.139 254.714 191.372 254.326 190.673 251.849Z" fill="#5D412E"/>
<path d="M234.595 258.977C231.074 249.944 218.909 249.884 213.192 243.085C214.323 244.848 213.204 247.694 211.288 248.333C216.637 255.066 226.186 258.56 234.595 258.977Z" fill="#5C412F"/>
<path d="M101.933 310.604C103.206 313.122 104.413 316.24 105.169 318.92C109.04 322.016 103.207 331.811 108.467 333.55C113.724 335.284 112.861 324.044 109.862 321.161C106.864 318.278 103.767 311.625 105.087 307.123C100.493 309.266 98.8378 301.957 98.533 298.971C98.7715 299.729 103.344 308.393 104.101 305.068C104.859 301.743 100.2 298.069 101.103 294.423C102.006 290.776 104.27 289.844 107.317 288.23C103.099 286.531 100.405 288.341 96.2925 289.332C92.1755 290.326 93.549 297.114 95.5958 300.114C97.6426 303.114 100.516 306.964 101.933 310.604Z" fill="#E6DCC5"/>
<path d="M321.732 235.207C320.398 232.837 319.401 229.929 318.685 227.38C316.792 223.717 316.352 218.053 315.884 214.388C315.416 210.723 311.481 204.796 308.018 206.876C304.55 208.958 300.306 209.337 299.893 213.852C302.904 211.841 307.174 211.559 309.248 214.717C311.323 217.875 310.601 222.814 314.524 223.93C314.725 221.086 312.834 218.194 312.947 215.531C314.83 217.502 318.137 225.29 313.437 225.48C316.172 228.482 318.721 231.354 319.087 235.667C319.454 239.986 320.516 243.178 323.051 246.956C325.587 250.735 330.805 248.732 328.177 244.528C325.551 240.328 323.662 239.661 321.732 235.207Z" fill="#E4DAC3"/>
<path d="M125.43 281.182C122.396 281.309 118.637 281.397 116.428 284.122C120.312 283.399 119.696 287.885 122.598 289.46C125.496 291.042 125.228 283.632 122.683 282.814C122.763 281.397 125.383 282.901 125.43 281.182Z" fill="#DBCEB6"/>
<path d="M208.541 249.965C205.276 251.236 202.016 252.505 198.751 253.775C201.779 258.342 199.986 264.554 200.688 269.227C201.391 273.899 196.084 277.384 196.629 281.638C197.173 285.888 205.328 284.928 207.855 288.395C210.379 291.868 216.426 295.328 216.537 300.929C220.125 299.532 223.719 298.134 227.307 296.738C224.199 292.444 225.456 285.595 225.267 281.241C225.08 276.892 231.382 272.463 228.539 269.052C225.698 265.634 220.201 266.151 217.23 262.485C214.259 258.82 209.68 255.138 208.541 249.965ZM207.671 259.316C210.299 259.437 211.081 265.211 213.821 266.544C216.563 267.871 217.37 269.928 221.14 271.114C224.91 272.3 221.148 275.741 220.433 278.712C219.718 281.683 219.181 283.796 219.896 287.804C220.617 291.816 217.209 291.328 215.162 288.385C213.117 285.434 211.125 283.416 208.059 282.401C204.99 281.381 202.127 279.876 204.21 276.858C206.295 273.844 205.422 270.657 206.066 268.345C206.718 266.036 204.154 259.158 207.671 259.316Z" fill="#5F4230"/>
<path d="M93.0666 299.409C89.3731 296.335 93.5801 295.008 93.0666 299.409V299.409Z" fill="#5B4534"/>
<path d="M121.731 290.507C119.663 284.192 114.889 286.917 110.336 288.746C105.783 290.574 100.155 291.885 103.129 297.746C109.331 295.333 115.529 292.921 121.731 290.507Z" fill="#5D4230"/>
<path d="M126.137 288.792C129.215 287.577 131.965 287.212 131.896 283.211C131.829 279.215 127.014 282.356 124.533 283.221C125.016 285.071 126.488 286.842 126.137 288.792Z" fill="#5B4130"/>
<path d="M317.462 212.647C316.976 211.327 318.301 208.721 315.939 208.734C315.395 209.829 316.415 212.131 317.462 212.647Z" fill="#604B38"/>
<path d="M309.221 217.544C306.3 210.659 299.949 215.778 294.59 217.605C289.23 219.432 282.457 222.524 276.967 224.463C279.591 231.525 286.32 226.163 291.598 224.402C296.876 222.641 303.791 219.437 309.221 217.544Z" fill="#614532"/>
<path d="M184.908 263.105C185.526 262.853 186.516 262.169 187.056 262.832C186.879 260.958 185.93 262.488 184.908 263.105Z" fill="#6D6558"/>
<path d="M183.412 276.642C183.937 277.57 184.269 278.641 184.554 279.578C185.367 281.666 185.692 283.602 186.349 285.638C186.64 286.545 186.986 287.768 187.492 288.574C190.882 292.419 192.392 285.45 189.673 282.694C186.957 279.944 186.833 275.452 185.023 272.078C183.214 268.704 187.321 265.613 187.056 262.832C186.516 262.169 185.526 262.853 184.908 263.105C181.416 263.59 182.569 267.986 181.216 270C179.87 272.016 175.596 272.823 177.075 276.292C179.697 273.238 181.594 272.506 183.412 276.642Z" fill="#E3DAC3"/>
<path d="M226.001 249.93C229.613 249.898 231.979 252.69 233.773 255.315C235.565 257.935 238.176 262.676 238.872 265.723C239.56 268.767 239.624 274.724 243.151 275.487C246.677 276.249 245.299 268.19 242.808 267.047C240.318 265.904 239.763 257.338 242.959 258.409C246.155 259.481 247.854 266.311 248.758 261.955C249.668 257.601 245.998 253.864 244.008 251.416C242.016 248.975 236.766 253.778 234.766 250.292C232.772 246.804 228.012 248.071 226.001 249.93Z" fill="#E9DDC7"/>
<path d="M128.476 289.009C120.696 293.09 111.958 295.809 103.7 299.214C105.254 304.422 106.086 306.836 109.952 310.818C113.815 314.806 116.801 309.747 121.65 309.127C126.499 308.507 130.404 305.45 127.891 300.513C125.385 295.58 128.917 293.546 128.476 289.009ZM116.183 309.564C114.063 306.593 110.505 303.432 109.738 300.244C112.679 302.282 115.71 306.205 116.183 309.564ZM122.466 295.291C122.85 298.87 123.573 302.757 123.336 306.218C121.762 303.591 120.857 298.051 122.466 295.291Z" fill="#614330"/>
<path d="M309.303 219.202C300.981 222.441 292.659 225.679 284.337 228.918C288.151 231.433 291.689 234.5 293.312 238.944C295.169 238.069 297.1 237.555 299.077 237.827C297.27 234.863 293.952 231.857 293.312 228.805C296.041 231.184 298.433 234.478 299.757 238.126C303.673 239.266 307.481 236.32 311.479 236.381C314.241 230.546 312.026 224.62 309.303 219.202ZM306.91 234.779C304.896 232.183 305.335 227.444 305.06 224.233C307.095 226.826 306.887 231.549 306.91 234.779Z" fill="#624431"/>
<path d="M207.671 259.316C204.154 259.158 206.718 266.036 206.067 268.345C205.422 270.658 206.296 273.844 204.21 276.858C202.127 279.876 204.99 281.382 208.059 282.401C211.125 283.416 213.117 285.435 215.162 288.385C217.209 291.328 220.617 291.816 219.896 287.804C219.181 283.796 219.718 281.683 220.433 278.712C221.148 275.741 224.91 272.3 221.14 271.114C217.37 269.928 216.563 267.871 213.821 266.544C211.081 265.211 210.3 259.437 207.671 259.316ZM222.167 273.39C217.82 277.966 218.545 284.607 218.495 290.028C215.173 286.139 211.085 280.835 205.224 280.547C206.553 274.346 208.267 267.539 207.263 261.165C210.856 266.459 216.377 270.461 222.167 273.39Z" fill="#090706"/>
<path d="M222.167 273.39C216.377 270.461 210.856 266.458 207.263 261.165C208.267 267.539 206.553 274.346 205.223 280.547C211.085 280.835 215.172 286.138 218.495 290.028C218.544 284.606 217.82 277.966 222.167 273.39Z" fill="#5F422F"/>
<path d="M116.183 309.565C115.71 306.206 112.679 302.283 109.738 300.244C110.505 303.433 114.063 306.594 116.183 309.565Z" fill="#0E0B08"/>
<path d="M122.466 295.291C120.857 298.052 121.762 303.592 123.336 306.218C123.573 302.757 122.85 298.871 122.466 295.291Z" fill="#090806"/>
<path d="M306.91 234.779C306.887 231.549 307.095 226.826 305.06 224.233C305.335 227.444 304.896 232.183 306.91 234.779Z" fill="#0B0907"/>
<path d="M184.554 279.578C184.269 278.641 183.937 277.571 183.412 276.643C183.835 277.599 184.176 278.604 184.554 279.578Z" fill="#746C61"/>
<path d="M105.169 318.921C104.413 316.241 103.206 313.123 101.933 310.604C103.012 313.378 104.09 316.147 105.169 318.921Z" fill="#797368"/>
<path d="M321.731 235.207C320.621 232.643 319.698 229.982 318.685 227.38C319.401 229.929 320.397 232.836 321.731 235.207Z" fill="#7B766A"/>
<path d="M300.138 239.104C295.41 237.716 289.831 242.05 292.55 247.126C293.704 245.832 294.198 243.77 296.194 243.455C298.271 245.936 297.201 250.301 300.024 252.267C302.843 254.24 302.716 248.64 300.845 246.715C298.974 244.79 299.714 241.246 300.138 239.104Z" fill="#E3D9C1"/>
<path d="M135.411 308.278C135.23 304.946 128.126 303.289 129.564 307.737C131.557 307.209 133.446 307.849 135.411 308.278Z" fill="#E2D8C9"/>
<path d="M109.303 335.337C110.541 340.026 113.843 344.555 117.404 347.348C120.966 350.142 123.898 351.767 128.38 352.828C132.863 353.888 137.088 353.331 141.655 352.162C146.222 350.993 151.384 348.613 154.809 345.19C158.232 341.762 160.475 340.298 163.247 335.919C166.023 331.538 160.071 327.179 157.766 332.295C155.462 337.41 152.3 337.96 148.894 341.375C145.495 344.793 139.218 346.436 134.719 346.722C130.219 347.009 127.056 345.384 123.248 343.289C119.443 341.187 115.766 335.926 115.143 331.414C114.527 326.905 115.613 323.599 118.475 319.9C121.331 316.203 126.779 314.849 131.417 315.511C136.054 316.174 139.503 321.315 138.926 325.64C138.349 329.965 129.855 332.922 129.639 326.427C129.422 319.932 122.555 324.519 124.478 329.432C126.401 334.344 129.52 336.753 134.459 336.25C139.399 335.747 143.449 331.817 144.971 327.484C146.485 323.149 144.696 318.015 141.98 314.555C139.268 311.092 135.641 309.26 131.138 308.77C126.632 308.287 121.161 310.101 117.332 312.503C113.498 314.903 109.256 319.082 112.05 323.566C114.843 328.05 114.507 333.819 109.303 335.337Z" fill="#604330"/>
<path d="M301.036 287.76C305.264 287.444 309.67 287.092 313.736 285.634C317.802 284.175 321.542 281.447 324.479 278.592C327.42 275.735 328.694 273.78 330.251 269.772C331.806 265.759 332.136 263.478 332.053 258.802C331.971 254.13 330.54 250.063 325.559 250.474C320.581 250.891 320.976 243.245 318.655 240.352C316.334 237.459 311.694 237.642 307.774 238.345C303.857 239.042 297.929 241.394 302.504 246.632C314.478 238.671 327.644 251.066 324.982 263.401C322.326 275.74 310.775 281.891 299.05 281.21C299.63 283.395 301.307 285.474 301.036 287.76Z" fill="#5F4230"/>
<path d="M187.492 288.574C186.986 287.768 186.64 286.545 186.349 285.639C186.613 286.866 186.54 287.491 187.492 288.574Z" fill="#746F63"/>
<path d="M295.786 245.303C293.136 248.025 291.522 251.48 291.285 255.493C291.044 259.507 293.536 264.621 296.757 267.063C299.981 269.509 304.154 270.268 307.943 269.3C311.732 268.333 314.937 264.444 315.497 260.857C316.057 257.271 313.168 250.396 308.603 252.151C304.033 253.906 312.123 259.416 307.882 262.379C303.641 265.342 298.541 261.913 298.214 257.32C297.884 252.722 297.483 249.764 295.786 245.303Z" fill="#5F4330"/>
<path d="M214.09 301.881C201.112 279.786 163.275 299.868 170.875 322.641C173.054 320.115 174.17 316.841 176.103 313.988C178.044 311.137 179.373 308.586 181.808 305.949C184.249 303.315 187.961 300.31 191.677 299.343C195.393 298.376 198.484 298.294 202.089 299.651C205.697 301.012 208.391 303.98 209.548 307.591C210.698 311.199 210.65 314.378 208.433 317.646C206.209 320.911 201.657 322.221 198.024 321.793C194.39 321.365 191.38 316.453 193.924 314.111C196.468 311.769 203.204 315.304 201.032 310.347C198.866 305.389 194.152 307.73 191.048 309.197C187.948 310.663 186.656 315.12 187.301 318.502C187.947 321.884 190.705 325.582 194.121 326.973C197.539 328.369 201.098 328.854 204.67 327.892C208.241 326.93 211.523 324.47 213.423 321.461C215.329 318.449 216.599 315.702 216.428 312.236C210.046 313.65 207.535 303.26 214.09 301.881Z" fill="#5F422F"/>
<path d="M273.595 280.978C269.677 269.868 255.961 269.037 246.181 271.368C248.278 276.105 241.837 279.311 239.518 274.524C231.88 278.245 227.81 287.631 229.755 295.785C235.492 292.263 240.776 301.945 235.031 304.998C237.418 307.51 240.275 309.131 243.835 309.88C247.399 310.622 251.294 309.985 254.537 308.295C257.78 306.605 259.859 304.083 261.431 300.779C263.003 297.475 262.49 292.825 260.727 289.945C258.957 287.063 255.228 284.751 252.093 285.588C248.957 286.425 243.066 287.884 244.638 292.996C246.21 298.107 248.39 292.701 251.638 291.229C254.89 289.749 257.666 295.536 255.503 298.58C253.339 301.624 250.007 304.172 246.173 303.647C242.336 303.129 239.91 302.068 237.723 298.88C235.536 295.693 235.363 290.904 236.492 287.389C237.628 283.878 240.156 281.711 243.121 279.757C246.087 277.803 250.818 276.621 254.353 276.766C257.887 276.912 260.773 277.912 264.089 278.61C267.404 279.308 270.345 280.564 273.595 280.978Z" fill="#604330"/>
<path d="M292.959 316.252C292.629 314.955 291.97 313.567 291.436 312.338C289.796 308.081 286.149 304.606 285.996 299.81C287.262 299.182 287.837 301.048 289.205 300.814C289.465 297.108 286.404 293.573 284.462 290.391C282.519 287.21 281.703 280.492 286.132 285.675C289.181 284.499 284.679 279.61 287.265 278.491C289.854 277.365 292.379 279.87 293.584 281.648C294.272 282.664 294.414 283.55 294.726 284.583C296.449 289.011 300.304 292.833 299.105 285.696C298.731 284.388 298.124 283.03 297.582 281.782C295.403 274.924 287.105 276.21 281.57 275.762C276.032 275.32 271.856 266.66 265.599 270.57C269.932 272.579 273.137 276.21 275.254 280.895C277.37 285.581 280.839 291.672 282.515 296.658C284.191 301.644 286.631 307.815 286.989 312.818C287.347 317.822 293.934 323.814 292.959 316.252Z" fill="#E8DDC7"/>
<path d="M168.482 338.218C169.093 339.428 169.673 340.83 170.005 342.132C171.326 345.296 171.41 347.668 171.773 351.02C172.135 354.371 175.724 356.624 175.471 351.833C178.818 355.725 180.308 360.727 180.503 366.211C180.698 371.694 188.389 375.207 187.111 368.708C185.834 362.21 182.276 358.919 179.974 353.585C177.675 348.255 175.307 343.662 174.139 338.27C172.97 332.878 170.502 327.535 169.481 322.435C168.46 317.334 167.667 313.92 169.542 309.078C163.91 310.233 165.124 316.177 163.607 320.259C162.09 324.342 153.975 325.157 156.651 330.993C161.181 322.471 166.527 333.194 168.482 338.218Z" fill="#E7DDC6"/>
<path d="M231.604 296.192C226.027 296.621 221.008 301.554 215.449 302.478C209.89 303.402 210.676 311.619 216.281 310.728C221.886 309.836 226.709 306.107 232.202 304.971C237.689 303.833 237.023 295.778 231.604 296.192Z" fill="#5E412E"/>
<path d="M294.318 286.432C293.228 283.82 292.721 280.632 289.431 280.031C286.137 279.431 289.297 284.392 289.151 286.19C290.914 285.999 292.638 287.198 294.318 286.432Z" fill="#5C4331"/>
<path d="M294.726 284.583C294.414 283.549 294.272 282.664 293.584 281.647C294.053 282.563 294.353 283.624 294.726 284.583Z" fill="#706A5E"/>
<path d="M233.752 306.058C229.886 305.901 225.894 310.271 222.004 310.631C218.113 310.99 216.79 314.687 217.054 318.19C217.318 321.692 220.403 324.158 223.76 324.153C227.113 324.15 231.848 321.963 234.929 320.77C238.003 319.574 240.285 316.01 239.926 313.232C239.568 310.459 236.248 306.157 233.752 306.058Z" fill="#5E412F"/>
<path d="M299.105 285.696C298.85 284.173 298.329 283.108 297.582 281.782C298.124 283.03 298.731 284.388 299.105 285.696Z" fill="#6D665A"/>
<path d="M170.005 342.131C169.673 340.83 169.093 339.427 168.482 338.218C168.988 339.519 169.523 340.821 170.005 342.131Z" fill="#79756A"/>
<path d="M219.148 333.71C219.644 332.334 221.997 326.084 223.418 325.852C221.636 325.605 219.676 331.792 219.148 333.71Z" fill="#666258"/>
<path d="M255.836 342.527C255.259 341.507 254.935 340.72 254.694 339.592C254.025 335.239 254.629 327.202 250.382 324.501C246.135 321.799 242.431 318.712 238.104 320.137C240.902 323.475 244.026 324.389 247.601 327.132C251.18 329.868 250.909 336.356 252.008 340.034C253.102 343.715 251.266 351.003 256.738 352.45C262.218 353.9 256.813 344.749 255.836 342.527Z" fill="#E5DAC3"/>
<path d="M219.148 333.709C217.373 340.157 220.736 342.729 223.989 347.598C224.795 348.799 225.036 349.68 225.322 351.022C226.343 354.094 225.497 356.091 227.592 358.768C229.69 361.45 231.605 359.026 231.224 356.048C230.897 354.761 230.251 353.345 229.7 352.134C228.053 348.495 222.903 341.678 222.541 338.039C222.172 334.397 226.494 326.282 223.418 325.852C221.998 326.083 219.644 332.334 219.148 333.709Z" fill="#E7DCC4"/>
<path d="M236.826 321.198C233.77 323.384 229.704 324.696 226.056 325.389C226.321 329.893 224.088 332.773 223.84 337.393C223.585 342.01 227.288 345.937 229.939 349.749C232.593 353.555 232.6 359.253 235.554 362.801C238.51 366.343 241.312 370.226 243.435 374.391C248.152 374.606 258.064 372.326 256.455 366.322C254.846 360.318 255.893 354.711 252.844 349.324C249.795 343.937 251.115 336.625 248.626 331.257C246.14 325.882 240.478 325.353 236.826 321.198ZM246.1 371.101C239.453 360.191 230.571 349.447 228.585 336.234C231.412 338.181 231.674 344.562 233.834 348.273C235.994 351.984 237.794 356.347 240.062 359.932C242.331 363.516 245.672 367.003 246.1 371.101ZM252.464 368.624C248.735 357.001 247.892 342.132 241.313 331.28C249.561 341.364 250.935 356.455 252.464 368.624Z" fill="#5F4230"/>
<path d="M246.1 371.1C245.672 367.003 242.331 363.515 240.062 359.931C237.794 356.347 235.994 351.983 233.834 348.273C231.674 344.562 231.412 338.181 228.585 336.233C230.571 349.447 239.453 360.191 246.1 371.1Z" fill="#0B0806"/>
<path d="M252.464 368.624C250.935 356.454 249.561 341.364 241.313 331.28C247.892 342.131 248.735 357.001 252.464 368.624Z" fill="#0A0806"/>
<path d="M292.959 316.251C292.754 314.669 292.195 313.681 291.436 312.338C291.97 313.566 292.629 314.955 292.959 316.251Z" fill="#777368"/>
<path d="M225.322 351.022C225.036 349.68 224.795 348.799 223.989 347.598C224.519 348.653 224.947 349.9 225.322 351.022Z" fill="#6B6559"/>
<path d="M255.836 342.527C255.424 341.583 255.013 340.572 254.694 339.592C254.936 340.72 255.259 341.507 255.836 342.527Z" fill="#736E62"/>
<path d="M231.224 356.048C231.015 354.456 230.495 353.482 229.701 352.135C230.251 353.346 230.897 354.761 231.224 356.048Z" fill="#79766A"/>
<path d="M244.985 375.477C241.475 376.64 239.811 383.445 243.401 385.529C246.988 387.619 251.656 385.566 255.238 384.443C258.82 383.319 264.047 380.327 264.824 376.893C265.602 373.458 260.1 368.62 257.189 371.105C254.278 373.59 248.271 374.39 244.985 375.477Z" fill="#5C402E"/>
<path d="M296.467 397.689C291.947 397.285 284.733 397.896 285.718 392.156C286.696 386.413 278.587 388.346 274.554 386.643C270.519 384.935 265.898 379.377 261.806 382.462C257.72 385.55 250.328 387.616 245.257 387.764C244.466 392.511 244.34 396.373 241.062 400.522C237.789 404.668 235.132 407.735 236.731 413.219C238.335 418.701 226.441 418.643 226.383 423.273C250.402 421.452 276.533 411.384 296.467 397.689ZM253.443 388.522C256.997 395.627 258.009 401.993 256.897 410.317C255.785 418.642 241.664 417.727 245.998 409.585C250.33 401.438 249.108 397.863 250.016 389.855C252.316 392.824 250.543 400.144 249.846 403.57C249.15 406.995 243.043 414.39 248.512 415.394C253.977 416.399 256.64 409.324 256.251 404.761C255.864 400.203 254.67 393.181 253.443 388.522ZM262.255 385.092C268.35 390.268 269.275 394.037 278.212 396.767C287.151 399.501 278.193 410.203 271.304 405.088C264.412 399.98 261.545 393.728 258.828 386.426C261.055 390.483 264.893 396.002 267.572 399.741C270.251 403.481 276.297 407.707 280.388 403.198C284.478 398.688 274.948 397.215 271.984 395.247C269.02 393.28 262.678 388.831 262.255 385.092Z" fill="#604230"/>
<path d="M253.443 388.522C254.67 393.181 255.864 400.203 256.251 404.761C256.64 409.324 253.977 416.399 248.513 415.394C243.043 414.39 249.15 406.995 249.846 403.57C250.543 400.144 252.316 392.824 250.016 389.855C249.108 397.864 250.33 401.438 245.998 409.585C241.664 417.727 255.785 418.642 256.897 410.317C258.009 401.993 256.997 395.627 253.443 388.522Z" fill="#0B0906"/>
<path d="M262.254 385.092C262.678 388.831 269.02 393.28 271.984 395.247C274.948 397.215 284.478 398.688 280.388 403.198C276.297 407.707 270.251 403.481 267.572 399.741C264.893 396.001 261.055 390.482 258.828 386.426C261.545 393.727 264.412 399.98 271.304 405.088C278.193 410.203 287.15 399.501 278.212 396.767C269.275 394.037 268.35 390.268 262.254 385.092Z" fill="#0B0906"/>
<path d="M241.558 397.089C234.05 395.713 231.198 402.405 229.966 408.219C228.732 414.028 215.588 412.902 218.795 421.156C221.372 418.971 223.31 414.42 226.954 414.602C224.02 416.954 219.296 422.037 220.876 426.532C222.449 431.023 220.639 439.118 216.048 432.928C213.655 439.075 205.074 439.345 201.784 444.506C198.494 449.667 205.598 445.573 207.638 444.644C209.678 443.715 213.037 439.789 216.3 439.73C219.563 439.671 212.612 444.432 214.392 445.908C216.173 447.384 221.152 444.218 222.718 442.347C224.284 440.476 229.362 439.807 230.734 437.352C225.401 434.96 223.219 428.628 225.043 423.09C226.87 417.558 236.855 417.086 234.421 410.586C231.991 404.08 240.989 402.752 241.558 397.089Z" fill="#E6DAC2"/>
<path d="M301.689 402.416C302.419 403.653 302.925 404.318 303.022 405.841C303.592 407.292 302.651 408.61 302.396 410.027C308.3 408.366 315.512 409.576 320.291 405.316C319.073 402.388 314.946 405.414 313.683 402.818C318.967 400.058 323.01 398.079 329.239 397.891C335.468 397.704 339.373 391.863 332.023 392.487C324.671 393.106 323.783 395.345 317.082 394.173C318.742 398.568 309.607 406.28 305.98 401.884C302.35 397.495 300.661 391.894 294.482 391.139C296.093 390.253 297.829 391.425 299.459 390.892C300.23 386.936 305.553 388.374 308.461 387.952C305.817 378.363 296.45 386.39 290.938 385.364C285.424 384.345 279.335 377.273 273.677 384.027C275.95 387.71 282.59 385.493 285.413 387.779C288.238 390.071 286 397.312 291.687 395.646C297.371 393.986 299.985 398.601 301.689 402.416Z" fill="#E8DCC4"/>
<path d="M306.693 389.203C304.709 388.855 299.138 390.054 301.11 392.672C303.078 395.297 305.532 390.303 306.693 389.203Z" fill="#614533"/>
<path d="M219.258 423.793C217.208 426.275 215.371 434.329 220.237 433.551C219.853 430.292 219.959 427.001 219.258 423.793Z" fill="#604734"/>
<path d="M309.032 389.42C306.903 390.93 305.345 393.142 303.13 394.533C305.009 400.257 309 404.055 313.54 399.106C318.072 394.154 313.543 391.917 309.032 389.42Z" fill="#604330"/>
<path d="M298.018 398.776C276.725 412.571 251.084 422.408 225.975 425.122C224.334 432.638 230.33 436.558 236.908 434.386C243.486 432.215 249.853 431.861 256.462 429.593C263.071 427.325 270.114 424.973 276.716 422.269C283.318 419.564 288.542 415.706 295.046 412.882C301.558 410.061 303.983 404.357 298.018 398.776Z" fill="#5F422F"/>
<path d="M303.022 405.84C302.925 404.318 302.418 403.653 301.689 402.416C302.156 403.457 302.792 404.73 303.022 405.84Z" fill="#625D52"/>
</g>
<defs>
<clipPath id="clip0_382_6035">
<rect width="270" height="421" fill="white" transform="translate(0 97.9199) rotate(-21.2639)"/>
</clipPath>
</defs>
</svg>
